%FSLAX25Y25*%
%MOIN*%
G70*
G01*
G75*
G04 Layer_Physical_Order=2*
G04 Layer_Color=36540*
%ADD10R,0.03000X0.03370*%
%ADD11R,0.03000X0.03000*%
%ADD12R,0.01181X0.02559*%
%ADD13R,0.07000X0.13500*%
%ADD14R,0.06890X0.05709*%
%ADD15R,0.02953X0.01181*%
%ADD16R,0.02362X0.01181*%
%ADD17R,0.01575X0.02362*%
%ADD18C,0.00886*%
G04:AMPARAMS|DCode=19|XSize=10.83mil|YSize=57.36mil|CornerRadius=2.71mil|HoleSize=0mil|Usage=FLASHONLY|Rotation=180.000|XOffset=0mil|YOffset=0mil|HoleType=Round|Shape=RoundedRectangle|*
%AMROUNDEDRECTD19*
21,1,0.01083,0.05195,0,0,180.0*
21,1,0.00541,0.05736,0,0,180.0*
1,1,0.00541,-0.00271,0.02597*
1,1,0.00541,0.00271,0.02597*
1,1,0.00541,0.00271,-0.02597*
1,1,0.00541,-0.00271,-0.02597*
%
%ADD19ROUNDEDRECTD19*%
G04:AMPARAMS|DCode=20|XSize=10.83mil|YSize=25.79mil|CornerRadius=2.71mil|HoleSize=0mil|Usage=FLASHONLY|Rotation=180.000|XOffset=0mil|YOffset=0mil|HoleType=Round|Shape=RoundedRectangle|*
%AMROUNDEDRECTD20*
21,1,0.01083,0.02037,0,0,180.0*
21,1,0.00541,0.02579,0,0,180.0*
1,1,0.00541,-0.00271,0.01019*
1,1,0.00541,0.00271,0.01019*
1,1,0.00541,0.00271,-0.01019*
1,1,0.00541,-0.00271,-0.01019*
%
%ADD20ROUNDEDRECTD20*%
%ADD21R,0.02362X0.01575*%
%ADD22R,0.05000X0.03000*%
%ADD23R,0.03150X0.03150*%
%ADD24R,0.03937X0.07874*%
%ADD25C,0.02000*%
%ADD26C,0.01500*%
%ADD27C,0.01969*%
%ADD28C,0.01800*%
%ADD29C,0.01200*%
%ADD30C,0.00800*%
%ADD31C,0.01000*%
%ADD32C,0.00984*%
%ADD33C,0.00600*%
%ADD34C,0.01083*%
%ADD35R,0.08268X0.05118*%
%ADD36R,0.09055X0.03937*%
%ADD37R,0.07087X0.03937*%
%ADD38R,0.07087X0.04331*%
%ADD39R,0.02756X0.07087*%
%ADD40R,0.01969X0.07972*%
%ADD41C,0.00984*%
%ADD42C,0.06000*%
%ADD43C,0.05000*%
%ADD44R,0.05000X0.05000*%
%ADD45C,0.02500*%
%ADD46C,0.02000*%
%ADD47C,0.01000*%
%ADD48R,0.00295X0.00098*%
G36*
X148819Y121260D02*
X127685D01*
Y126772D01*
X127663Y126824D01*
X127674Y126880D01*
X127590Y127002D01*
X127533Y127139D01*
X127480Y127161D01*
X127448Y127207D01*
X125631Y128388D01*
X124420Y129176D01*
X124274Y129203D01*
X124137Y129260D01*
X83667D01*
X83648Y129272D01*
X83071Y129387D01*
X79046D01*
X78740Y129693D01*
Y135433D01*
Y198819D01*
X148819D01*
Y121260D01*
D02*
G37*
G36*
X55118Y142126D02*
Y116535D01*
X67716Y103937D01*
X68504Y103150D01*
X75840D01*
X77021Y101969D01*
D01*
D01*
X77093Y101896D01*
X77461Y101744D01*
X81496D01*
X81734Y101843D01*
X82005D01*
X82018Y101848D01*
X82032Y101843D01*
X82200Y101923D01*
X82372Y101995D01*
X82378Y102008D01*
X82391Y102014D01*
X82732Y102392D01*
Y85881D01*
X77165Y80315D01*
X73622Y83858D01*
Y83928D01*
X73552D01*
X73622Y83858D01*
X70866Y81102D01*
Y76378D01*
Y1181D01*
X1181D01*
Y198819D01*
X55118D01*
Y142126D01*
D02*
G37*
G36*
X148819Y81102D02*
X128347D01*
Y116535D01*
Y120472D01*
X148819D01*
Y81102D01*
D02*
G37*
G36*
X83071Y110630D02*
Y108268D01*
Y103543D01*
X82005Y102362D01*
X81201D01*
Y102264D01*
X77461D01*
X76207Y103517D01*
X75858Y103662D01*
X75699Y103839D01*
X69659D01*
X69570Y103937D01*
X68504Y105118D01*
Y107087D01*
Y109843D01*
X69214Y110630D01*
X70636Y112205D01*
X81650D01*
X83071Y110630D01*
D02*
G37*
G36*
X125348Y127953D02*
X127165Y126772D01*
Y88976D01*
Y80315D01*
X148819D01*
Y1181D01*
X77559D01*
Y77953D01*
Y79134D01*
X77658Y79232D01*
X83519Y85236D01*
Y85379D01*
Y103371D01*
Y103371D01*
X83590Y103543D01*
Y108268D01*
Y110630D01*
X83519Y110802D01*
X83457Y110978D01*
X82284Y112278D01*
Y123622D01*
Y124803D01*
Y128740D01*
X124137D01*
X125348Y127953D01*
D02*
G37*
%LPC*%
G36*
X43795Y45006D02*
X42887Y44886D01*
X42040Y44536D01*
X41313Y43978D01*
X40756Y43251D01*
X40405Y42404D01*
X40285Y41496D01*
X40405Y40588D01*
X40756Y39741D01*
X41313Y39014D01*
X42040Y38456D01*
X42887Y38106D01*
X43795Y37986D01*
X44704Y38106D01*
X45550Y38456D01*
X46277Y39014D01*
X46835Y39741D01*
X47186Y40588D01*
X47305Y41496D01*
X47186Y42404D01*
X46835Y43251D01*
X46277Y43978D01*
X45550Y44536D01*
X44704Y44886D01*
X43795Y45006D01*
D02*
G37*
G36*
Y55006D02*
X42887Y54887D01*
X42040Y54536D01*
X41313Y53978D01*
X40756Y53251D01*
X40405Y52404D01*
X40285Y51496D01*
X40405Y50588D01*
X40756Y49741D01*
X41313Y49014D01*
X42040Y48456D01*
X42887Y48106D01*
X43795Y47986D01*
X44704Y48106D01*
X45550Y48456D01*
X46277Y49014D01*
X46835Y49741D01*
X47186Y50588D01*
X47305Y51496D01*
X47186Y52404D01*
X46835Y53251D01*
X46277Y53978D01*
X45550Y54536D01*
X44704Y54887D01*
X43795Y55006D01*
D02*
G37*
G36*
X100523Y89574D02*
X100140Y89498D01*
X99816Y89281D01*
X99600Y88957D01*
X99524Y88575D01*
Y88189D01*
Y85575D01*
X99600Y85192D01*
X99816Y84868D01*
X100140Y84652D01*
X100523Y84576D01*
X100905Y84652D01*
X101229Y84868D01*
X101446Y85192D01*
X101522Y85575D01*
Y88189D01*
Y88575D01*
X101446Y88957D01*
X101229Y89281D01*
X100905Y89498D01*
X100523Y89574D01*
D02*
G37*
G36*
X91099Y89592D02*
X90717Y89516D01*
X90393Y89299D01*
X90176Y88975D01*
X90100Y88593D01*
Y88189D01*
Y85593D01*
X90176Y85210D01*
X90393Y84886D01*
X90717Y84669D01*
X91099Y84593D01*
X91482Y84669D01*
X91806Y84886D01*
X92022Y85210D01*
X92098Y85593D01*
Y88189D01*
Y88593D01*
X92022Y88975D01*
X91806Y89299D01*
X91482Y89516D01*
X91099Y89592D01*
D02*
G37*
G36*
X94224Y89574D02*
X93841Y89498D01*
X93517Y89281D01*
X93300Y88957D01*
X93224Y88575D01*
Y88189D01*
Y85575D01*
X93300Y85192D01*
X93517Y84868D01*
X93841Y84652D01*
X94224Y84576D01*
X94606Y84652D01*
X94930Y84868D01*
X95147Y85192D01*
X95223Y85575D01*
Y88189D01*
Y88575D01*
X95147Y88957D01*
X94930Y89281D01*
X94606Y89498D01*
X94224Y89574D01*
D02*
G37*
G36*
X97373D02*
X96991Y89498D01*
X96667Y89281D01*
X96450Y88957D01*
X96374Y88575D01*
Y88189D01*
Y85575D01*
X96450Y85192D01*
X96667Y84868D01*
X96991Y84652D01*
X97373Y84576D01*
X97756Y84652D01*
X98080Y84868D01*
X98296Y85192D01*
X98372Y85575D01*
Y88189D01*
Y88575D01*
X98296Y88957D01*
X98080Y89281D01*
X97756Y89498D01*
X97373Y89574D01*
D02*
G37*
G36*
X10480Y20480D02*
X4520D01*
Y14520D01*
X10480D01*
Y20480D01*
D02*
G37*
G36*
X17717Y24205D02*
X17041Y24071D01*
X16469Y23688D01*
X16087Y23116D01*
X15953Y22441D01*
X16087Y21766D01*
X16469Y21194D01*
X17041Y20811D01*
X17717Y20677D01*
X18392Y20811D01*
X18964Y21194D01*
X19346Y21766D01*
X19480Y22441D01*
X19346Y23116D01*
X18964Y23688D01*
X18392Y24071D01*
X17717Y24205D01*
D02*
G37*
G36*
X43795Y8234D02*
X42887Y8115D01*
X42040Y7764D01*
X41313Y7206D01*
X40756Y6479D01*
X40405Y5633D01*
X40285Y4724D01*
X40405Y3816D01*
X40756Y2969D01*
X41313Y2242D01*
X42040Y1685D01*
X42887Y1334D01*
X43795Y1214D01*
X44704Y1334D01*
X45550Y1685D01*
X46277Y2242D01*
X46835Y2969D01*
X47186Y3816D01*
X47305Y4724D01*
X47186Y5633D01*
X46835Y6479D01*
X46277Y7206D01*
X45550Y7764D01*
X44704Y8115D01*
X43795Y8234D01*
D02*
G37*
G36*
Y18234D02*
X42887Y18115D01*
X42040Y17764D01*
X41313Y17206D01*
X40756Y16479D01*
X40405Y15633D01*
X40285Y14724D01*
X40405Y13816D01*
X40756Y12969D01*
X41313Y12242D01*
X42040Y11685D01*
X42887Y11334D01*
X43795Y11214D01*
X44704Y11334D01*
X45550Y11685D01*
X46277Y12242D01*
X46835Y12969D01*
X47186Y13816D01*
X47305Y14724D01*
X47186Y15633D01*
X46835Y16479D01*
X46277Y17206D01*
X45550Y17764D01*
X44704Y18115D01*
X43795Y18234D01*
D02*
G37*
G36*
X27165Y37591D02*
X26490Y37456D01*
X25918Y37074D01*
X25536Y36502D01*
X25401Y35827D01*
X25536Y35152D01*
X25918Y34580D01*
X26490Y34197D01*
X27165Y34063D01*
X27840Y34197D01*
X28413Y34580D01*
X28795Y35152D01*
X28929Y35827D01*
X28795Y36502D01*
X28413Y37074D01*
X27840Y37456D01*
X27165Y37591D01*
D02*
G37*
G36*
X10480Y40480D02*
X4520D01*
Y34520D01*
X10480D01*
Y40480D01*
D02*
G37*
G36*
X43795Y35006D02*
X42887Y34887D01*
X42040Y34536D01*
X41313Y33978D01*
X40756Y33251D01*
X40405Y32405D01*
X40285Y31496D01*
X40405Y30588D01*
X40756Y29741D01*
X41313Y29014D01*
X42040Y28456D01*
X42876Y28110D01*
X42040Y27764D01*
X41313Y27206D01*
X40756Y26479D01*
X40405Y25633D01*
X40285Y24724D01*
X40405Y23816D01*
X40756Y22969D01*
X41313Y22242D01*
X42040Y21685D01*
X42887Y21334D01*
X43795Y21214D01*
X44704Y21334D01*
X45550Y21685D01*
X46277Y22242D01*
X46835Y22969D01*
X47186Y23816D01*
X47305Y24724D01*
X47186Y25633D01*
X46835Y26479D01*
X46277Y27206D01*
X45550Y27764D01*
X44715Y28110D01*
X45550Y28456D01*
X46277Y29014D01*
X46835Y29741D01*
X47186Y30588D01*
X47305Y31496D01*
X47186Y32405D01*
X46835Y33251D01*
X46277Y33978D01*
X45550Y34536D01*
X44704Y34887D01*
X43795Y35006D01*
D02*
G37*
G36*
X26500Y27764D02*
X25825Y27630D01*
X25253Y27247D01*
X24870Y26675D01*
X24736Y26000D01*
X24870Y25325D01*
X25253Y24753D01*
X25825Y24370D01*
X26500Y24236D01*
X27175Y24370D01*
X27747Y24753D01*
X28130Y25325D01*
X28264Y26000D01*
X28130Y26675D01*
X27747Y27247D01*
X27175Y27630D01*
X26500Y27764D01*
D02*
G37*
G36*
X91600Y121224D02*
X91499Y121204D01*
X91499D01*
X91319Y121168D01*
D01*
X91218Y121148D01*
X90893Y120931D01*
X90677Y120607D01*
X90601Y120225D01*
Y120174D01*
Y117276D01*
Y117225D01*
X90677Y116842D01*
X90893Y116518D01*
X91218Y116302D01*
X91319Y116281D01*
D01*
X91499Y116246D01*
X91499D01*
X91600Y116226D01*
X91701Y116246D01*
X91701D01*
X91881Y116281D01*
D01*
X91982Y116302D01*
X92307Y116518D01*
X92523Y116842D01*
X92599Y117225D01*
Y120225D01*
X92523Y120607D01*
X92307Y120931D01*
X91982Y121148D01*
X91881Y121168D01*
D01*
X91701Y121204D01*
X91701D01*
X91600Y121224D01*
D02*
G37*
G36*
X94750D02*
X94648Y121204D01*
X94648D01*
X94469Y121168D01*
D01*
X94367Y121148D01*
X94043Y120931D01*
X93826Y120607D01*
X93750Y120225D01*
Y120174D01*
Y117276D01*
Y117225D01*
X93826Y116842D01*
X94043Y116518D01*
X94367Y116302D01*
X94469Y116281D01*
D01*
X94648Y116246D01*
X94648D01*
X94750Y116226D01*
X94851Y116246D01*
X94851D01*
X95031Y116281D01*
D01*
X95132Y116302D01*
X95456Y116518D01*
X95673Y116842D01*
X95749Y117225D01*
Y120225D01*
X95673Y120607D01*
X95456Y120931D01*
X95132Y121148D01*
X95031Y121168D01*
D01*
X94851Y121204D01*
X94851D01*
X94750Y121224D01*
D02*
G37*
G36*
X101037Y121176D02*
X100936Y121156D01*
X100936D01*
X100756Y121121D01*
D01*
X100655Y121100D01*
X100330Y120884D01*
X100114Y120560D01*
X100038Y120177D01*
Y120126D01*
Y117288D01*
Y117237D01*
X100114Y116854D01*
X100233Y116676D01*
X100278Y116609D01*
X100278Y116609D01*
X100330Y116530D01*
X100342Y116518D01*
X100421Y116466D01*
X100421Y116466D01*
X100581Y116359D01*
D01*
X100666Y116302D01*
X100768Y116281D01*
D01*
X100947Y116246D01*
X100947D01*
X101049Y116226D01*
X101150Y116246D01*
X101150D01*
X101330Y116281D01*
D01*
X101431Y116302D01*
X101755Y116518D01*
X101972Y116842D01*
X102048Y117225D01*
X102036Y117284D01*
Y118591D01*
X102039Y118595D01*
X102045Y118623D01*
X102036Y118666D01*
X102048Y118725D01*
X102036Y118784D01*
X102045Y118826D01*
X102039Y118855D01*
X102036Y118859D01*
Y120126D01*
Y120177D01*
X101960Y120560D01*
X101743Y120884D01*
X101419Y121100D01*
X101318Y121121D01*
D01*
X101138Y121156D01*
X101138D01*
X101037Y121176D01*
D02*
G37*
G36*
X85301Y121187D02*
X85199Y121166D01*
X85199D01*
X85020Y121131D01*
D01*
X84918Y121110D01*
X84594Y120894D01*
X84378Y120570D01*
X84302Y120187D01*
Y120136D01*
Y117298D01*
Y117247D01*
X84378Y116864D01*
X84497Y116686D01*
X84541Y116619D01*
X84542Y116619D01*
X84594Y116540D01*
X84606Y116528D01*
X84685Y116476D01*
X84685Y116476D01*
X84844Y116369D01*
D01*
X84930Y116312D01*
X85032Y116292D01*
D01*
X85211Y116256D01*
X85211D01*
X85313Y116236D01*
X85414Y116256D01*
X85414D01*
X85594Y116292D01*
D01*
X85695Y116312D01*
X86019Y116528D01*
X86236Y116853D01*
X86312Y117235D01*
X86300Y117294D01*
Y118601D01*
X86303Y118605D01*
X86308Y118634D01*
X86300Y118676D01*
X86312Y118735D01*
X86300Y118794D01*
X86308Y118836D01*
X86303Y118865D01*
X86300Y118869D01*
Y120136D01*
Y120187D01*
X86224Y120570D01*
X86007Y120894D01*
X85683Y121110D01*
X85582Y121131D01*
D01*
X85402Y121166D01*
X85402D01*
X85301Y121187D01*
D02*
G37*
G36*
X10480Y175480D02*
X4520D01*
Y169520D01*
X10480D01*
Y175480D01*
D02*
G37*
G36*
X19500Y178509D02*
X18923Y178394D01*
X18433Y178067D01*
X18106Y177577D01*
X17991Y177000D01*
X18106Y176423D01*
X18433Y175933D01*
X18923Y175606D01*
X19500Y175491D01*
X20077Y175606D01*
X20567Y175933D01*
X20894Y176423D01*
X21009Y177000D01*
X20894Y177577D01*
X20567Y178067D01*
X20077Y178394D01*
X19500Y178509D01*
D02*
G37*
G36*
X97899Y121224D02*
X97798Y121204D01*
X97798D01*
X97618Y121168D01*
D01*
X97517Y121148D01*
X97193Y120931D01*
X96976Y120607D01*
X96900Y120225D01*
Y120174D01*
Y117276D01*
Y117225D01*
X96976Y116842D01*
X97193Y116518D01*
X97517Y116302D01*
X97618Y116281D01*
D01*
X97798Y116246D01*
X97798D01*
X97899Y116226D01*
X98001Y116246D01*
X98001D01*
X98180Y116281D01*
D01*
X98282Y116302D01*
X98606Y116518D01*
X98822Y116842D01*
X98898Y117225D01*
Y120225D01*
X98822Y120607D01*
X98606Y120931D01*
X98282Y121148D01*
X98180Y121168D01*
D01*
X98001Y121204D01*
X98001D01*
X97899Y121224D01*
D02*
G37*
G36*
X44980Y164698D02*
X44403Y164583D01*
X43913Y164256D01*
X43586Y163767D01*
X43471Y163189D01*
X43586Y162611D01*
X43913Y162122D01*
X44403Y161795D01*
X44980Y161680D01*
X45558Y161795D01*
X46047Y162122D01*
X46374Y162611D01*
X46489Y163189D01*
X46374Y163767D01*
X46047Y164256D01*
X45558Y164583D01*
X44980Y164698D01*
D02*
G37*
G36*
X88439Y121176D02*
X88337Y121156D01*
X88337D01*
X88158Y121121D01*
D01*
X88056Y121100D01*
X87732Y120884D01*
X87515Y120560D01*
X87439Y120177D01*
Y120126D01*
Y117288D01*
Y117237D01*
X87515Y116854D01*
X87635Y116676D01*
X87679Y116609D01*
X87679Y116609D01*
X87732Y116530D01*
X87744Y116518D01*
X87823Y116466D01*
X87823Y116466D01*
X87982Y116359D01*
D01*
X88068Y116302D01*
X88169Y116281D01*
D01*
X88349Y116246D01*
X88349D01*
X88450Y116226D01*
X88552Y116246D01*
X88552D01*
X88731Y116281D01*
D01*
X88833Y116302D01*
X89157Y116518D01*
X89373Y116842D01*
X89450Y117225D01*
X89438Y117284D01*
Y118591D01*
X89440Y118595D01*
X89446Y118623D01*
X89438Y118666D01*
X89450Y118725D01*
X89438Y118784D01*
X89446Y118826D01*
X89440Y118855D01*
X89438Y118859D01*
Y120126D01*
Y120177D01*
X89362Y120560D01*
X89145Y120884D01*
X88821Y121100D01*
X88720Y121121D01*
D01*
X88540Y121156D01*
X88540D01*
X88439Y121176D01*
D02*
G37*
G36*
X70768Y100212D02*
X70385Y100136D01*
X70061Y99919D01*
X69845Y99595D01*
X69811Y99426D01*
X69627Y99242D01*
X69432Y98951D01*
X69364Y98608D01*
Y97160D01*
X69432Y96816D01*
X69627Y96525D01*
X69753Y96399D01*
X69390Y96472D01*
X69007Y96396D01*
X68683Y96179D01*
X68467Y95855D01*
X68391Y95472D01*
X68467Y95090D01*
X68683Y94766D01*
X69007Y94549D01*
X69390Y94473D01*
X69772Y94549D01*
X69969Y94681D01*
Y90256D01*
X70037Y89912D01*
X70232Y89622D01*
X70328Y89526D01*
X70337Y89480D01*
X70553Y89156D01*
X70877Y88939D01*
X71260Y88863D01*
X71642Y88939D01*
X71755Y89014D01*
Y87787D01*
X70923Y86956D01*
X70877Y86947D01*
X70553Y86730D01*
X70337Y86406D01*
X70261Y86024D01*
X70337Y85641D01*
X70553Y85317D01*
X70877Y85101D01*
X71260Y85024D01*
X71642Y85101D01*
X71966Y85317D01*
X72183Y85641D01*
X72192Y85687D01*
X73286Y86781D01*
X73481Y87072D01*
X73549Y87416D01*
Y96738D01*
X73542Y96772D01*
X73622Y96757D01*
X73721Y96737D01*
X74103Y96813D01*
X74427Y97030D01*
X74644Y97354D01*
X74720Y97736D01*
X74644Y98119D01*
X74427Y98443D01*
X74103Y98659D01*
X73721Y98735D01*
X73622Y98716D01*
X73338Y98659D01*
X73014Y98443D01*
X72797Y98119D01*
X72755Y97904D01*
X72586Y98073D01*
X72577Y98119D01*
X72360Y98443D01*
X72036Y98659D01*
X71653Y98735D01*
X71623Y98729D01*
X71691Y98830D01*
X71767Y99213D01*
X71691Y99595D01*
X71474Y99919D01*
X71150Y100136D01*
X70768Y100212D01*
D02*
G37*
G36*
X87950Y102070D02*
X87567Y101994D01*
X87243Y101778D01*
X87027Y101453D01*
X86950Y101071D01*
Y98071D01*
X87027Y97689D01*
X87243Y97364D01*
X87567Y97148D01*
X87950Y97072D01*
X88332Y97148D01*
X88656Y97364D01*
X88873Y97689D01*
X88949Y98071D01*
Y101071D01*
X88873Y101453D01*
X88656Y101778D01*
X88332Y101994D01*
X87950Y102070D01*
D02*
G37*
G36*
Y89610D02*
X87567Y89534D01*
X87243Y89317D01*
X87027Y88993D01*
X86950Y88610D01*
Y88189D01*
Y85610D01*
X87027Y85228D01*
X87243Y84904D01*
X87567Y84687D01*
X87950Y84611D01*
X88332Y84687D01*
X88656Y84904D01*
X88873Y85228D01*
X88949Y85610D01*
Y88189D01*
Y88610D01*
X88873Y88993D01*
X88656Y89317D01*
X88332Y89534D01*
X87950Y89610D01*
D02*
G37*
G36*
X103543Y93181D02*
X103543Y93181D01*
X103543Y93181D01*
Y93181D01*
D02*
G37*
G36*
X97398Y102070D02*
X97016Y101994D01*
X96692Y101778D01*
X96475Y101453D01*
X96399Y101071D01*
Y98071D01*
X96475Y97689D01*
X96692Y97364D01*
X97016Y97148D01*
X97398Y97072D01*
X97781Y97148D01*
X98105Y97364D01*
X98322Y97689D01*
X98398Y98071D01*
Y101071D01*
X98322Y101453D01*
X98105Y101778D01*
X97781Y101994D01*
X97398Y102070D01*
D02*
G37*
G36*
X100548D02*
X100166Y101994D01*
X99841Y101778D01*
X99625Y101453D01*
X99549Y101071D01*
Y98071D01*
X99625Y97689D01*
X99841Y97364D01*
X100166Y97148D01*
X100548Y97072D01*
X100930Y97148D01*
X101255Y97364D01*
X101471Y97689D01*
X101547Y98071D01*
Y101071D01*
X101471Y101453D01*
X101255Y101778D01*
X100930Y101994D01*
X100548Y102070D01*
D02*
G37*
G36*
X91099D02*
X90717Y101994D01*
X90393Y101778D01*
X90176Y101453D01*
X90100Y101071D01*
Y98071D01*
X90176Y97689D01*
X90393Y97364D01*
X90717Y97148D01*
X91099Y97072D01*
X91482Y97148D01*
X91806Y97364D01*
X92022Y97689D01*
X92098Y98071D01*
Y101071D01*
X92022Y101453D01*
X91806Y101778D01*
X91482Y101994D01*
X91099Y102070D01*
D02*
G37*
G36*
X94249D02*
X93866Y101994D01*
X93542Y101778D01*
X93326Y101453D01*
X93250Y101071D01*
Y98071D01*
X93326Y97689D01*
X93542Y97364D01*
X93866Y97148D01*
X94249Y97072D01*
X94631Y97148D01*
X94955Y97364D01*
X95172Y97689D01*
X95248Y98071D01*
Y101071D01*
X95172Y101453D01*
X94955Y101778D01*
X94631Y101994D01*
X94249Y102070D01*
D02*
G37*
%LPD*%
D25*
X78421Y127878D02*
X83071D01*
X71878Y134421D02*
X78421Y127878D01*
D30*
X70866Y90256D02*
X71260Y89862D01*
X71260Y86024D02*
X72652Y87416D01*
Y96738D01*
X72638Y96752D02*
X72652Y96738D01*
X72638Y96752D02*
Y96752D01*
X71653Y97736D02*
X72638Y96752D01*
X70261Y98608D02*
X70866Y99213D01*
X70261Y97160D02*
Y98608D01*
Y97160D02*
X70866Y96555D01*
Y90256D02*
Y96555D01*
D31*
X88439Y117237D02*
Y120177D01*
Y117237D02*
X88450Y117225D01*
X91600D02*
Y120225D01*
X94750Y117225D02*
Y120225D01*
X97899Y117225D02*
Y120225D01*
X87950Y98071D02*
Y101071D01*
X91099Y98071D02*
Y101071D01*
X94249Y98071D02*
Y101071D01*
X97398Y98071D02*
Y101071D01*
X100548Y98071D02*
Y101071D01*
X91099Y85593D02*
Y88593D01*
X94224Y85575D02*
Y88575D01*
X97373Y85575D02*
Y88575D01*
X100523Y85575D02*
Y88575D01*
X85301Y117247D02*
X85313Y117235D01*
X85301Y117247D02*
Y120187D01*
X101037Y117237D02*
Y120177D01*
Y117237D02*
X101049Y117225D01*
X87950Y85610D02*
Y88610D01*
D32*
X0Y0D02*
X150000D01*
X0Y200000D02*
X150000D01*
D41*
Y0D02*
Y200000D01*
X0Y0D02*
Y200000D01*
D43*
X133000Y155500D02*
D03*
Y145500D02*
D03*
Y135500D02*
D03*
Y125500D02*
D03*
X143000Y155500D02*
D03*
Y145500D02*
D03*
Y135500D02*
D03*
Y125500D02*
D03*
X133000Y75500D02*
D03*
Y65500D02*
D03*
Y55500D02*
D03*
Y45500D02*
D03*
X143000Y115500D02*
D03*
Y105500D02*
D03*
Y95500D02*
D03*
Y85500D02*
D03*
X7500Y182500D02*
D03*
X143000Y75500D02*
D03*
Y65500D02*
D03*
Y55500D02*
D03*
Y45500D02*
D03*
X7500Y7500D02*
D03*
Y27500D02*
D03*
X133000Y115500D02*
D03*
Y105500D02*
D03*
Y95500D02*
D03*
Y85500D02*
D03*
X100394Y77953D02*
D03*
D45*
X120000Y78000D02*
D03*
Y68000D02*
D03*
Y58000D02*
D03*
X120079Y38189D02*
D03*
Y48425D02*
D03*
X90000Y68000D02*
D03*
X100000D02*
D03*
X110000D02*
D03*
X90000Y78000D02*
D03*
X110000D02*
D03*
X90000Y48000D02*
D03*
X100000D02*
D03*
X110000D02*
D03*
X90000Y58000D02*
D03*
X100000D02*
D03*
X110000D02*
D03*
X113000Y144500D02*
D03*
X103000D02*
D03*
X93000D02*
D03*
X113000Y134500D02*
D03*
X103000D02*
D03*
X93000D02*
D03*
X123228Y144882D02*
D03*
Y154724D02*
D03*
Y134646D02*
D03*
X71878Y134421D02*
D03*
X110000Y38000D02*
D03*
X100000D02*
D03*
X90000D02*
D03*
X130000Y28000D02*
D03*
X120000D02*
D03*
X110000D02*
D03*
X100000D02*
D03*
X90000D02*
D03*
X130000Y18000D02*
D03*
X120000D02*
D03*
X110000D02*
D03*
X100000D02*
D03*
X90000D02*
D03*
X130000Y8000D02*
D03*
X120000D02*
D03*
X110000D02*
D03*
X100000D02*
D03*
X90000D02*
D03*
X140000D02*
D03*
Y18000D02*
D03*
Y28000D02*
D03*
X143000Y184500D02*
D03*
Y174500D02*
D03*
Y164500D02*
D03*
X113000Y154500D02*
D03*
X103000D02*
D03*
X93000D02*
D03*
Y164500D02*
D03*
X103000D02*
D03*
X113000D02*
D03*
X123000D02*
D03*
X133000D02*
D03*
X93000Y174500D02*
D03*
X103000D02*
D03*
X113000D02*
D03*
X123000D02*
D03*
X133000D02*
D03*
X93000Y184500D02*
D03*
X103000D02*
D03*
X113000D02*
D03*
X123000D02*
D03*
X133000D02*
D03*
X18202Y31736D02*
D03*
D46*
X26691Y172570D02*
D03*
Y175370D02*
D03*
X30191Y175270D02*
D03*
X30091Y172570D02*
D03*
D47*
X102657Y127878D02*
D03*
X99508Y127878D02*
D03*
X96358D02*
D03*
Y126378D02*
D03*
X99508D02*
D03*
X102657Y126378D02*
D03*
X93209Y127878D02*
D03*
X90059Y127976D02*
D03*
X86221Y127878D02*
D03*
X83071D02*
D03*
Y126378D02*
D03*
X86221D02*
D03*
X90059Y126476D02*
D03*
X93209Y126378D02*
D03*
X91600Y117225D02*
D03*
X85313Y117235D02*
D03*
Y118735D02*
D03*
X85301Y120187D02*
D03*
X101049Y117225D02*
D03*
Y118725D02*
D03*
X101037Y120177D02*
D03*
X70768Y99213D02*
D03*
X71653Y97736D02*
D03*
X71850Y104337D02*
D03*
X75886Y97638D02*
D03*
X90025Y120975D02*
D03*
Y119475D02*
D03*
Y117975D02*
D03*
X93175Y120975D02*
D03*
Y119475D02*
D03*
Y117975D02*
D03*
X75886Y96161D02*
D03*
X71260Y89862D02*
D03*
X71260Y86024D02*
D03*
X75886Y94784D02*
D03*
X86350Y87843D02*
D03*
X86375Y86360D02*
D03*
X87950Y85610D02*
D03*
Y87110D02*
D03*
Y88610D02*
D03*
X78740Y102854D02*
D03*
X80610D02*
D03*
X80250Y103971D02*
D03*
X91099Y88593D02*
D03*
Y87093D02*
D03*
Y85593D02*
D03*
X89524Y86343D02*
D03*
X100523Y85575D02*
D03*
Y87075D02*
D03*
Y88575D02*
D03*
X89499Y87825D02*
D03*
X92674Y89360D02*
D03*
X92649Y86325D02*
D03*
Y87825D02*
D03*
X95798D02*
D03*
Y86325D02*
D03*
X89524Y89360D02*
D03*
X94224Y85575D02*
D03*
Y87075D02*
D03*
Y88575D02*
D03*
X97373D02*
D03*
Y87075D02*
D03*
Y85575D02*
D03*
X86375Y89360D02*
D03*
X98948Y86325D02*
D03*
Y87825D02*
D03*
X97899Y120225D02*
D03*
Y118725D02*
D03*
Y117225D02*
D03*
X96324Y117975D02*
D03*
Y119475D02*
D03*
Y120975D02*
D03*
X94750Y117225D02*
D03*
Y118725D02*
D03*
Y120225D02*
D03*
X91600D02*
D03*
Y118725D02*
D03*
X88439Y120177D02*
D03*
X88450Y118725D02*
D03*
Y117225D02*
D03*
X86876Y117975D02*
D03*
Y119475D02*
D03*
Y120975D02*
D03*
X99474D02*
D03*
Y119475D02*
D03*
Y117975D02*
D03*
X100548Y98071D02*
D03*
Y99571D02*
D03*
Y101071D02*
D03*
X91099Y98071D02*
D03*
X87950Y101071D02*
D03*
Y99571D02*
D03*
Y98071D02*
D03*
X91099Y101071D02*
D03*
Y99571D02*
D03*
X92674Y97321D02*
D03*
Y98821D02*
D03*
Y100321D02*
D03*
X95824D02*
D03*
Y98821D02*
D03*
Y97321D02*
D03*
X94249Y98071D02*
D03*
Y99571D02*
D03*
Y101071D02*
D03*
X97398D02*
D03*
Y99571D02*
D03*
Y98071D02*
D03*
X98973Y97321D02*
D03*
Y98821D02*
D03*
Y100321D02*
D03*
X89524D02*
D03*
Y98821D02*
D03*
Y97321D02*
D03*
X95798Y89343D02*
D03*
X70669Y108858D02*
D03*
Y107579D02*
D03*
X98948Y89325D02*
D03*
D48*
X81348Y102313D02*
D03*
M02*
