%FSLAX25Y25*%
%MOIN*%
G70*
G01*
G75*
G04 Layer_Physical_Order=3*
G04 Layer_Color=16440176*
%ADD10R,0.03000X0.03370*%
%ADD11R,0.03000X0.03000*%
%ADD12R,0.01181X0.02559*%
%ADD13R,0.07000X0.13500*%
%ADD14R,0.06890X0.05709*%
%ADD15R,0.02953X0.01181*%
%ADD16R,0.02362X0.01181*%
%ADD17R,0.01575X0.02362*%
%ADD18C,0.00886*%
G04:AMPARAMS|DCode=19|XSize=10.83mil|YSize=57.36mil|CornerRadius=2.71mil|HoleSize=0mil|Usage=FLASHONLY|Rotation=180.000|XOffset=0mil|YOffset=0mil|HoleType=Round|Shape=RoundedRectangle|*
%AMROUNDEDRECTD19*
21,1,0.01083,0.05195,0,0,180.0*
21,1,0.00541,0.05736,0,0,180.0*
1,1,0.00541,-0.00271,0.02597*
1,1,0.00541,0.00271,0.02597*
1,1,0.00541,0.00271,-0.02597*
1,1,0.00541,-0.00271,-0.02597*
%
%ADD19ROUNDEDRECTD19*%
G04:AMPARAMS|DCode=20|XSize=10.83mil|YSize=25.79mil|CornerRadius=2.71mil|HoleSize=0mil|Usage=FLASHONLY|Rotation=180.000|XOffset=0mil|YOffset=0mil|HoleType=Round|Shape=RoundedRectangle|*
%AMROUNDEDRECTD20*
21,1,0.01083,0.02037,0,0,180.0*
21,1,0.00541,0.02579,0,0,180.0*
1,1,0.00541,-0.00271,0.01019*
1,1,0.00541,0.00271,0.01019*
1,1,0.00541,0.00271,-0.01019*
1,1,0.00541,-0.00271,-0.01019*
%
%ADD20ROUNDEDRECTD20*%
%ADD21R,0.02362X0.01575*%
%ADD22R,0.05000X0.03000*%
%ADD23R,0.03150X0.03150*%
%ADD24R,0.03937X0.07874*%
%ADD25C,0.02000*%
%ADD26C,0.01500*%
%ADD27C,0.01969*%
%ADD28C,0.01800*%
%ADD29C,0.01200*%
%ADD30C,0.00800*%
%ADD31C,0.01000*%
%ADD32C,0.00984*%
%ADD33C,0.00600*%
%ADD34C,0.01083*%
%ADD35R,0.08268X0.05118*%
%ADD36R,0.09055X0.03937*%
%ADD37R,0.07087X0.03937*%
%ADD38R,0.07087X0.04331*%
%ADD39R,0.02756X0.07087*%
%ADD40R,0.01969X0.07972*%
%ADD41C,0.00984*%
%ADD42C,0.06000*%
%ADD43C,0.05000*%
%ADD44R,0.05000X0.05000*%
%ADD45C,0.02500*%
%ADD46C,0.02000*%
%ADD47C,0.01000*%
%ADD48R,0.00295X0.00098*%
G36*
X148819Y81102D02*
X86033D01*
X85930D01*
X85835Y81142D01*
D01*
X85754Y81175D01*
X83071Y83858D01*
Y93701D01*
Y110630D01*
X83858Y111417D01*
X85345D01*
X85358Y111404D01*
X85535Y111331D01*
X85638D01*
X85733Y111292D01*
X103440D01*
X103535Y111331D01*
X103639D01*
X103734Y111371D01*
X103815Y111404D01*
X103828Y111417D01*
X103937D01*
X111811Y119291D01*
X112992Y120472D01*
X148819D01*
Y81102D01*
D02*
G37*
G36*
Y131102D02*
Y121260D01*
X112992D01*
X103616Y111884D01*
X103535Y111851D01*
X103535D01*
X103440Y111811D01*
X103337D01*
X85733D01*
X85557Y111884D01*
X81201Y116240D01*
X78740Y118701D01*
Y129134D01*
Y185827D01*
Y198819D01*
X148819D01*
Y131102D01*
D02*
G37*
G36*
X81890Y102362D02*
X77559D01*
X75984Y103937D01*
X69685D01*
X68504Y105118D01*
Y109843D01*
X68898Y110236D01*
X70866Y112205D01*
X81890D01*
Y102362D01*
D02*
G37*
G36*
X55118Y142126D02*
Y116535D01*
X67716Y103937D01*
X68504Y103150D01*
X75984D01*
X76772Y102362D01*
Y94095D01*
Y87148D01*
X73552Y83928D01*
X73622Y83858D01*
X70866Y81102D01*
Y76378D01*
Y1181D01*
X1181D01*
Y198819D01*
X55118D01*
Y142126D01*
D02*
G37*
G36*
X82551Y83858D02*
X82704Y83491D01*
X85386Y80808D01*
X85482Y80769D01*
X85555Y80695D01*
X85636Y80662D01*
D01*
X85731Y80622D01*
X85835D01*
X85930Y80583D01*
X115874D01*
X116142Y80315D01*
X148819D01*
Y1181D01*
X77559D01*
Y77953D01*
Y88189D01*
X82551D01*
Y83858D01*
D02*
G37*
%LPC*%
G36*
X92674Y90360D02*
X92292Y90284D01*
X91967Y90067D01*
X91945Y90033D01*
X91942Y90031D01*
X91726Y89707D01*
X91650Y89325D01*
Y86325D01*
X91726Y85942D01*
X91942Y85618D01*
X92266Y85402D01*
X92649Y85326D01*
X93031Y85402D01*
X93355Y85618D01*
X93572Y85942D01*
X93648Y86325D01*
Y89234D01*
X93673Y89360D01*
X93597Y89743D01*
X93381Y90067D01*
X93056Y90284D01*
X92674Y90360D01*
D02*
G37*
G36*
X95798Y90342D02*
X95416Y90266D01*
X95092Y90049D01*
X94875Y89725D01*
X94799Y89343D01*
X94801Y89334D01*
X94799Y89325D01*
Y86325D01*
X94875Y85942D01*
X95092Y85618D01*
X95416Y85402D01*
X95798Y85326D01*
X96181Y85402D01*
X96505Y85618D01*
X96722Y85942D01*
X96798Y86325D01*
Y89325D01*
X96796Y89334D01*
X96798Y89343D01*
X96722Y89725D01*
X96505Y90049D01*
X96181Y90266D01*
X95798Y90342D01*
D02*
G37*
G36*
X71260Y90861D02*
X70877Y90785D01*
X70553Y90569D01*
X70337Y90245D01*
X70261Y89862D01*
X70337Y89480D01*
X70553Y89156D01*
X70877Y88939D01*
X71260Y88863D01*
X71642Y88939D01*
X71966Y89156D01*
X72183Y89480D01*
X72259Y89862D01*
X72183Y90245D01*
X71966Y90569D01*
X71642Y90785D01*
X71260Y90861D01*
D02*
G37*
G36*
X69390Y96472D02*
X69007Y96396D01*
X68683Y96179D01*
X68467Y95855D01*
X68391Y95472D01*
X68467Y95090D01*
X68683Y94766D01*
X69007Y94549D01*
X69390Y94473D01*
X69772Y94549D01*
X70096Y94766D01*
X70313Y95090D01*
X70389Y95472D01*
X70313Y95855D01*
X70096Y96179D01*
X69772Y96396D01*
X69390Y96472D01*
D02*
G37*
G36*
X86375Y90360D02*
X85992Y90284D01*
X85668Y90067D01*
X85452Y89743D01*
X85376Y89360D01*
X85380Y89339D01*
X85376Y89317D01*
Y87969D01*
X85350Y87843D01*
X85376Y87716D01*
Y86360D01*
X85452Y85978D01*
X85668Y85654D01*
X85992Y85437D01*
X86375Y85361D01*
X86757Y85437D01*
X87081Y85654D01*
X87298Y85978D01*
X87374Y86360D01*
Y89317D01*
X87370Y89339D01*
X87374Y89360D01*
X87298Y89743D01*
X87081Y90067D01*
X86757Y90284D01*
X86375Y90360D01*
D02*
G37*
G36*
X98948Y90324D02*
X98566Y90248D01*
X98242Y90031D01*
X98025Y89707D01*
X97949Y89325D01*
Y86325D01*
X98025Y85942D01*
X98242Y85618D01*
X98566Y85402D01*
X98948Y85326D01*
X99330Y85402D01*
X99655Y85618D01*
X99871Y85942D01*
X99947Y86325D01*
Y89325D01*
X99871Y89707D01*
X99655Y90031D01*
X99330Y90248D01*
X98948Y90324D01*
D02*
G37*
G36*
X89524Y90360D02*
X89142Y90284D01*
X88818Y90067D01*
X88601Y89743D01*
X88525Y89360D01*
X88531Y89330D01*
X88525Y89300D01*
Y87951D01*
X88500Y87825D01*
X88525Y87698D01*
Y86343D01*
X88601Y85960D01*
X88818Y85636D01*
X89142Y85419D01*
X89524Y85343D01*
X89907Y85419D01*
X90231Y85636D01*
X90448Y85960D01*
X90524Y86343D01*
Y89300D01*
X90518Y89330D01*
X90524Y89360D01*
X90448Y89743D01*
X90231Y90067D01*
X89907Y90284D01*
X89524Y90360D01*
D02*
G37*
G36*
X71260Y87023D02*
X70877Y86947D01*
X70553Y86730D01*
X70337Y86406D01*
X70261Y86024D01*
X70337Y85641D01*
X70553Y85317D01*
X70877Y85101D01*
X71260Y85024D01*
X71642Y85101D01*
X71966Y85317D01*
X72183Y85641D01*
X72259Y86024D01*
X72183Y86406D01*
X71966Y86730D01*
X71642Y86947D01*
X71260Y87023D01*
D02*
G37*
G36*
X17717Y24205D02*
X17041Y24071D01*
X16469Y23688D01*
X16087Y23116D01*
X15953Y22441D01*
X16087Y21766D01*
X16469Y21194D01*
X17041Y20811D01*
X17717Y20677D01*
X18392Y20811D01*
X18964Y21194D01*
X19346Y21766D01*
X19480Y22441D01*
X19346Y23116D01*
X18964Y23688D01*
X18392Y24071D01*
X17717Y24205D01*
D02*
G37*
G36*
X43795Y35006D02*
X42887Y34887D01*
X42040Y34536D01*
X41313Y33978D01*
X40756Y33251D01*
X40405Y32405D01*
X40285Y31496D01*
X40405Y30588D01*
X40756Y29741D01*
X41313Y29014D01*
X42040Y28456D01*
X42876Y28110D01*
X42040Y27764D01*
X41313Y27206D01*
X40756Y26479D01*
X40405Y25633D01*
X40285Y24724D01*
X40405Y23816D01*
X40756Y22969D01*
X41313Y22242D01*
X42040Y21685D01*
X42887Y21334D01*
X43795Y21214D01*
X44704Y21334D01*
X45550Y21685D01*
X46277Y22242D01*
X46835Y22969D01*
X47186Y23816D01*
X47305Y24724D01*
X47186Y25633D01*
X46835Y26479D01*
X46277Y27206D01*
X45550Y27764D01*
X44715Y28110D01*
X45550Y28456D01*
X46277Y29014D01*
X46835Y29741D01*
X47186Y30588D01*
X47305Y31496D01*
X47186Y32405D01*
X46835Y33251D01*
X46277Y33978D01*
X45550Y34536D01*
X44704Y34887D01*
X43795Y35006D01*
D02*
G37*
G36*
X10480Y20480D02*
X4520D01*
Y14520D01*
X10480D01*
Y20480D01*
D02*
G37*
G36*
X43795Y8234D02*
X42887Y8115D01*
X42040Y7764D01*
X41313Y7206D01*
X40756Y6479D01*
X40405Y5633D01*
X40285Y4724D01*
X40405Y3816D01*
X40756Y2969D01*
X41313Y2242D01*
X42040Y1685D01*
X42887Y1334D01*
X43795Y1214D01*
X44704Y1334D01*
X45550Y1685D01*
X46277Y2242D01*
X46835Y2969D01*
X47186Y3816D01*
X47305Y4724D01*
X47186Y5633D01*
X46835Y6479D01*
X46277Y7206D01*
X45550Y7764D01*
X44704Y8115D01*
X43795Y8234D01*
D02*
G37*
G36*
Y18234D02*
X42887Y18115D01*
X42040Y17764D01*
X41313Y17206D01*
X40756Y16479D01*
X40405Y15633D01*
X40285Y14724D01*
X40405Y13816D01*
X40756Y12969D01*
X41313Y12242D01*
X42040Y11685D01*
X42887Y11334D01*
X43795Y11214D01*
X44704Y11334D01*
X45550Y11685D01*
X46277Y12242D01*
X46835Y12969D01*
X47186Y13816D01*
X47305Y14724D01*
X47186Y15633D01*
X46835Y16479D01*
X46277Y17206D01*
X45550Y17764D01*
X44704Y18115D01*
X43795Y18234D01*
D02*
G37*
G36*
Y45006D02*
X42887Y44886D01*
X42040Y44536D01*
X41313Y43978D01*
X40756Y43251D01*
X40405Y42404D01*
X40285Y41496D01*
X40405Y40588D01*
X40756Y39741D01*
X41313Y39014D01*
X42040Y38456D01*
X42887Y38106D01*
X43795Y37986D01*
X44704Y38106D01*
X45550Y38456D01*
X46277Y39014D01*
X46835Y39741D01*
X47186Y40588D01*
X47305Y41496D01*
X47186Y42404D01*
X46835Y43251D01*
X46277Y43978D01*
X45550Y44536D01*
X44704Y44886D01*
X43795Y45006D01*
D02*
G37*
G36*
Y55006D02*
X42887Y54887D01*
X42040Y54536D01*
X41313Y53978D01*
X40756Y53251D01*
X40405Y52404D01*
X40285Y51496D01*
X40405Y50588D01*
X40756Y49741D01*
X41313Y49014D01*
X42040Y48456D01*
X42887Y48106D01*
X43795Y47986D01*
X44704Y48106D01*
X45550Y48456D01*
X46277Y49014D01*
X46835Y49741D01*
X47186Y50588D01*
X47305Y51496D01*
X47186Y52404D01*
X46835Y53251D01*
X46277Y53978D01*
X45550Y54536D01*
X44704Y54887D01*
X43795Y55006D01*
D02*
G37*
G36*
X10480Y40480D02*
X4520D01*
Y34520D01*
X10480D01*
Y40480D01*
D02*
G37*
G36*
X26500Y27764D02*
X25825Y27630D01*
X25253Y27247D01*
X24870Y26675D01*
X24736Y26000D01*
X24870Y25325D01*
X25253Y24753D01*
X25825Y24370D01*
X26500Y24236D01*
X27175Y24370D01*
X27747Y24753D01*
X28130Y25325D01*
X28264Y26000D01*
X28130Y26675D01*
X27747Y27247D01*
X27175Y27630D01*
X26500Y27764D01*
D02*
G37*
G36*
X27165Y37591D02*
X26490Y37456D01*
X25918Y37074D01*
X25536Y36502D01*
X25401Y35827D01*
X25536Y35152D01*
X25918Y34580D01*
X26490Y34197D01*
X27165Y34063D01*
X27840Y34197D01*
X28413Y34580D01*
X28795Y35152D01*
X28929Y35827D01*
X28795Y36502D01*
X28413Y37074D01*
X27840Y37456D01*
X27165Y37591D01*
D02*
G37*
G36*
X89524Y101320D02*
X89142Y101244D01*
X88818Y101028D01*
X88601Y100703D01*
X88525Y100321D01*
Y97321D01*
X88601Y96938D01*
X88818Y96614D01*
X89142Y96398D01*
X89524Y96322D01*
X89907Y96398D01*
X90231Y96614D01*
X90448Y96938D01*
X90524Y97321D01*
Y100321D01*
X90448Y100703D01*
X90231Y101028D01*
X89907Y101244D01*
X89524Y101320D01*
D02*
G37*
G36*
X86221Y128877D02*
X85838Y128801D01*
X85514Y128585D01*
X85297Y128260D01*
X85221Y127878D01*
Y126378D01*
X85297Y125996D01*
X85514Y125671D01*
X85838Y125455D01*
X86221Y125379D01*
X86603Y125455D01*
X86927Y125671D01*
X87144Y125996D01*
X87220Y126378D01*
Y127878D01*
X87144Y128260D01*
X86927Y128585D01*
X86603Y128801D01*
X86221Y128877D01*
D02*
G37*
G36*
X93209D02*
X92826Y128801D01*
X92502Y128585D01*
X92286Y128260D01*
X92210Y127878D01*
Y126378D01*
X92286Y125996D01*
X92502Y125671D01*
X92826Y125455D01*
X93209Y125379D01*
X93591Y125455D01*
X93915Y125671D01*
X94132Y125996D01*
X94208Y126378D01*
Y127878D01*
X94132Y128260D01*
X93915Y128585D01*
X93591Y128801D01*
X93209Y128877D01*
D02*
G37*
G36*
X96358D02*
X95976Y128801D01*
X95652Y128585D01*
X95435Y128260D01*
X95359Y127878D01*
Y126378D01*
X95435Y125996D01*
X95652Y125671D01*
X95976Y125455D01*
X96358Y125379D01*
X96741Y125455D01*
X97065Y125671D01*
X97281Y125996D01*
X97357Y126378D01*
Y127878D01*
X97281Y128260D01*
X97065Y128585D01*
X96741Y128801D01*
X96358Y128877D01*
D02*
G37*
G36*
X96324Y121974D02*
X95942Y121898D01*
X95618Y121681D01*
X95401Y121357D01*
X95325Y120975D01*
Y117975D01*
X95401Y117592D01*
X95618Y117268D01*
X95942Y117052D01*
X96324Y116976D01*
X96707Y117052D01*
X97031Y117268D01*
X97247Y117592D01*
X97324Y117975D01*
Y120975D01*
X97247Y121357D01*
X97031Y121681D01*
X96707Y121898D01*
X96324Y121974D01*
D02*
G37*
G36*
X99474D02*
X99092Y121898D01*
X98767Y121681D01*
X98551Y121357D01*
X98475Y120975D01*
Y117975D01*
X98551Y117592D01*
X98767Y117268D01*
X99092Y117052D01*
X99474Y116976D01*
X99856Y117052D01*
X100180Y117268D01*
X100397Y117592D01*
X100473Y117975D01*
Y120975D01*
X100397Y121357D01*
X100180Y121681D01*
X99856Y121898D01*
X99474Y121974D01*
D02*
G37*
G36*
X83071Y128877D02*
X82688Y128801D01*
X82364Y128585D01*
X82148Y128260D01*
X82072Y127878D01*
Y126378D01*
X82148Y125996D01*
X82364Y125671D01*
X82688Y125455D01*
X83071Y125379D01*
X83453Y125455D01*
X83777Y125671D01*
X83994Y125996D01*
X84070Y126378D01*
Y127878D01*
X83994Y128260D01*
X83777Y128585D01*
X83453Y128801D01*
X83071Y128877D01*
D02*
G37*
G36*
X44980Y164698D02*
X44403Y164583D01*
X43913Y164256D01*
X43586Y163767D01*
X43471Y163189D01*
X43586Y162611D01*
X43913Y162122D01*
X44403Y161795D01*
X44980Y161680D01*
X45558Y161795D01*
X46047Y162122D01*
X46374Y162611D01*
X46489Y163189D01*
X46374Y163767D01*
X46047Y164256D01*
X45558Y164583D01*
X44980Y164698D01*
D02*
G37*
G36*
X10480Y175480D02*
X4520D01*
Y169520D01*
X10480D01*
Y175480D01*
D02*
G37*
G36*
X19500Y178509D02*
X18923Y178394D01*
X18433Y178067D01*
X18106Y177577D01*
X17991Y177000D01*
X18106Y176423D01*
X18433Y175933D01*
X18923Y175606D01*
X19500Y175491D01*
X20077Y175606D01*
X20567Y175933D01*
X20894Y176423D01*
X21009Y177000D01*
X20894Y177577D01*
X20567Y178067D01*
X20077Y178394D01*
X19500Y178509D01*
D02*
G37*
G36*
X99508Y128877D02*
X99125Y128801D01*
X98801Y128585D01*
X98585Y128260D01*
X98509Y127878D01*
Y126378D01*
X98585Y125996D01*
X98801Y125671D01*
X99125Y125455D01*
X99508Y125379D01*
X99890Y125455D01*
X100214Y125671D01*
X100431Y125996D01*
X100507Y126378D01*
Y127878D01*
X100431Y128260D01*
X100214Y128585D01*
X99890Y128801D01*
X99508Y128877D01*
D02*
G37*
G36*
X102657Y128877D02*
X102275Y128801D01*
X101951Y128585D01*
X101734Y128260D01*
X101658Y127878D01*
Y126378D01*
X101734Y125996D01*
X101951Y125671D01*
X102275Y125455D01*
X102657Y125379D01*
X103040Y125455D01*
X103364Y125671D01*
X103581Y125996D01*
X103657Y126378D01*
Y127878D01*
X103581Y128260D01*
X103364Y128585D01*
X103040Y128801D01*
X102657Y128877D01*
D02*
G37*
G36*
X90059Y128976D02*
X89677Y128900D01*
X89353Y128683D01*
X89136Y128359D01*
X89060Y127976D01*
Y126476D01*
X89136Y126094D01*
X89353Y125770D01*
X89677Y125553D01*
X90059Y125477D01*
X90441Y125553D01*
X90766Y125770D01*
X90982Y126094D01*
X91058Y126476D01*
Y127976D01*
X90982Y128359D01*
X90766Y128683D01*
X90441Y128900D01*
X90059Y128976D01*
D02*
G37*
G36*
X93175Y121974D02*
X92792Y121898D01*
X92468Y121681D01*
X92252Y121357D01*
X92176Y120975D01*
Y117975D01*
X92252Y117592D01*
X92468Y117268D01*
X92792Y117052D01*
X93175Y116976D01*
X93557Y117052D01*
X93881Y117268D01*
X94098Y117592D01*
X94174Y117975D01*
Y120975D01*
X94098Y121357D01*
X93881Y121681D01*
X93557Y121898D01*
X93175Y121974D01*
D02*
G37*
G36*
X98973Y101320D02*
X98591Y101244D01*
X98267Y101028D01*
X98050Y100703D01*
X97974Y100321D01*
Y97321D01*
X98050Y96939D01*
X98267Y96614D01*
X98591Y96398D01*
X98973Y96322D01*
X99356Y96398D01*
X99680Y96614D01*
X99896Y96939D01*
X99972Y97321D01*
Y100321D01*
X99896Y100703D01*
X99680Y101028D01*
X99356Y101244D01*
X98973Y101320D01*
D02*
G37*
G36*
X92674D02*
X92292Y101244D01*
X91967Y101028D01*
X91751Y100703D01*
X91675Y100321D01*
Y97321D01*
X91751Y96938D01*
X91967Y96614D01*
X92292Y96398D01*
X92674Y96322D01*
X93056Y96398D01*
X93381Y96614D01*
X93597Y96938D01*
X93673Y97321D01*
Y100321D01*
X93597Y100703D01*
X93381Y101028D01*
X93056Y101244D01*
X92674Y101320D01*
D02*
G37*
G36*
X95824D02*
X95441Y101244D01*
X95117Y101028D01*
X94901Y100703D01*
X94824Y100321D01*
Y97321D01*
X94901Y96939D01*
X95117Y96614D01*
X95441Y96398D01*
X95824Y96322D01*
X96206Y96398D01*
X96530Y96614D01*
X96747Y96939D01*
X96823Y97321D01*
Y100321D01*
X96747Y100703D01*
X96530Y101028D01*
X96206Y101244D01*
X95824Y101320D01*
D02*
G37*
G36*
X70768Y100212D02*
X70385Y100136D01*
X70061Y99919D01*
X69845Y99595D01*
X69769Y99213D01*
X69845Y98830D01*
X70061Y98506D01*
X70385Y98289D01*
X70768Y98213D01*
X70798Y98219D01*
X70730Y98119D01*
X70654Y97736D01*
X70730Y97354D01*
X70947Y97030D01*
X71271Y96813D01*
X71653Y96737D01*
X72036Y96813D01*
X72360Y97030D01*
X72577Y97354D01*
X72653Y97736D01*
X72577Y98119D01*
X72360Y98443D01*
X72036Y98659D01*
X71653Y98735D01*
X71623Y98729D01*
X71691Y98830D01*
X71767Y99213D01*
X71691Y99595D01*
X71474Y99919D01*
X71150Y100136D01*
X70768Y100212D01*
D02*
G37*
G36*
X90025Y121974D02*
X89643Y121898D01*
X89319Y121681D01*
X89102Y121357D01*
X89026Y120975D01*
Y117975D01*
X89102Y117592D01*
X89319Y117268D01*
X89643Y117052D01*
X90025Y116976D01*
X90408Y117052D01*
X90732Y117268D01*
X90948Y117592D01*
X91024Y117975D01*
Y120975D01*
X90948Y121357D01*
X90732Y121681D01*
X90408Y121898D01*
X90025Y121974D01*
D02*
G37*
G36*
X86876D02*
X86493Y121898D01*
X86169Y121681D01*
X85952Y121357D01*
X85876Y120975D01*
Y117975D01*
X85952Y117592D01*
X86169Y117268D01*
X86493Y117052D01*
X86876Y116976D01*
X87258Y117052D01*
X87582Y117268D01*
X87799Y117592D01*
X87875Y117975D01*
Y120975D01*
X87799Y121357D01*
X87582Y121681D01*
X87258Y121898D01*
X86876Y121974D01*
D02*
G37*
G36*
X73721Y98735D02*
X73338Y98659D01*
X73014Y98443D01*
X72797Y98119D01*
X72721Y97736D01*
X72797Y97354D01*
X73014Y97030D01*
X73338Y96813D01*
X73721Y96737D01*
X74103Y96813D01*
X74427Y97030D01*
X74644Y97354D01*
X74720Y97736D01*
X74644Y98119D01*
X74427Y98443D01*
X74103Y98659D01*
X73721Y98735D01*
D02*
G37*
%LPD*%
G36*
X86854Y86412D02*
X86809Y86181D01*
X86707Y86028D01*
X86554Y85927D01*
X86375Y85891D01*
X86195Y85927D01*
X86043Y86028D01*
X85941Y86181D01*
X85895Y86412D01*
Y87716D01*
X85875Y87765D01*
X85885Y87817D01*
X85880Y87843D01*
X85885Y87868D01*
X85875Y87920D01*
X85895Y87969D01*
Y88189D01*
X86854D01*
Y86412D01*
D02*
G37*
G36*
X90004Y86394D02*
X89958Y86163D01*
X89856Y86011D01*
X89704Y85909D01*
X89524Y85873D01*
X89345Y85909D01*
X89192Y86011D01*
X89091Y86163D01*
X89045Y86394D01*
Y87698D01*
X89024Y87747D01*
X89035Y87800D01*
X89030Y87825D01*
X89035Y87850D01*
X89024Y87902D01*
X89045Y87951D01*
Y88189D01*
X90004D01*
Y86394D01*
D02*
G37*
G36*
X93129Y86376D02*
X93083Y86145D01*
X92981Y85993D01*
X92829Y85891D01*
X92649Y85855D01*
X92469Y85891D01*
X92317Y85993D01*
X92215Y86145D01*
X92169Y86376D01*
Y88189D01*
X93129D01*
Y86376D01*
D02*
G37*
G36*
X96278D02*
X96232Y86145D01*
X96130Y85993D01*
X95978Y85891D01*
X95798Y85855D01*
X95619Y85891D01*
X95467Y85993D01*
X95365Y86145D01*
X95319Y86376D01*
Y88189D01*
X96278D01*
Y86376D01*
D02*
G37*
G36*
X99428D02*
X99382Y86145D01*
X99280Y85993D01*
X99128Y85891D01*
X98948Y85855D01*
X98768Y85891D01*
X98616Y85993D01*
X98514Y86145D01*
X98468Y86376D01*
Y88189D01*
X99428D01*
Y86376D01*
D02*
G37*
D31*
X86375Y86360D02*
Y89317D01*
X86350Y87843D02*
X86375Y87817D01*
X89524Y86343D02*
Y89300D01*
X89499Y87825D02*
X89524Y87800D01*
X92649Y86325D02*
Y89325D01*
X95798Y86325D02*
Y89325D01*
X98948Y86325D02*
Y89325D01*
X98973Y97321D02*
Y100321D01*
X95824Y97321D02*
Y100321D01*
X92674Y97321D02*
Y100321D01*
X89524Y97321D02*
Y100321D01*
X86876Y117975D02*
Y120975D01*
X90025Y117975D02*
Y120975D01*
X93175Y117975D02*
Y120975D01*
X96324Y117975D02*
Y120975D01*
X99474Y117975D02*
Y120975D01*
X96358Y126378D02*
Y127878D01*
X99508Y126378D02*
Y127878D01*
X102657Y126378D02*
Y127878D01*
X93209Y126378D02*
Y127878D01*
X90059Y126476D02*
Y127976D01*
X86221Y126378D02*
Y127878D01*
X83071Y126378D02*
Y127878D01*
D32*
X0Y0D02*
X150000D01*
X0Y200000D02*
X150000D01*
D41*
Y0D02*
Y200000D01*
X0Y0D02*
Y200000D01*
D43*
X133000Y155500D02*
D03*
Y145500D02*
D03*
Y135500D02*
D03*
Y125500D02*
D03*
X143000Y155500D02*
D03*
Y145500D02*
D03*
Y135500D02*
D03*
Y125500D02*
D03*
X133000Y75500D02*
D03*
Y65500D02*
D03*
Y55500D02*
D03*
Y45500D02*
D03*
X143000Y115500D02*
D03*
Y105500D02*
D03*
Y95500D02*
D03*
Y85500D02*
D03*
X7500Y182500D02*
D03*
X143000Y75500D02*
D03*
Y65500D02*
D03*
Y55500D02*
D03*
Y45500D02*
D03*
X7500Y7500D02*
D03*
Y27500D02*
D03*
X133000Y115500D02*
D03*
Y105500D02*
D03*
Y95500D02*
D03*
Y85500D02*
D03*
X100394Y77953D02*
D03*
D45*
X120000Y78000D02*
D03*
Y68000D02*
D03*
Y58000D02*
D03*
X120079Y38189D02*
D03*
Y48425D02*
D03*
X90000Y68000D02*
D03*
X100000D02*
D03*
X110000D02*
D03*
X90000Y78000D02*
D03*
X110000D02*
D03*
X90000Y48000D02*
D03*
X100000D02*
D03*
X110000D02*
D03*
X90000Y58000D02*
D03*
X100000D02*
D03*
X110000D02*
D03*
X113000Y144500D02*
D03*
X103000D02*
D03*
X93000D02*
D03*
X113000Y134500D02*
D03*
X103000D02*
D03*
X93000D02*
D03*
X123228Y144882D02*
D03*
Y154724D02*
D03*
Y134646D02*
D03*
X110000Y38000D02*
D03*
X100000D02*
D03*
X90000D02*
D03*
X130000Y28000D02*
D03*
X120000D02*
D03*
X110000D02*
D03*
X100000D02*
D03*
X90000D02*
D03*
X130000Y18000D02*
D03*
X120000D02*
D03*
X110000D02*
D03*
X100000D02*
D03*
X90000D02*
D03*
X130000Y8000D02*
D03*
X120000D02*
D03*
X110000D02*
D03*
X100000D02*
D03*
X90000D02*
D03*
X140000D02*
D03*
Y18000D02*
D03*
Y28000D02*
D03*
X143000Y184500D02*
D03*
Y174500D02*
D03*
Y164500D02*
D03*
X113000Y154500D02*
D03*
X103000D02*
D03*
X93000D02*
D03*
Y164500D02*
D03*
X103000D02*
D03*
X113000D02*
D03*
X123000D02*
D03*
X133000D02*
D03*
X93000Y174500D02*
D03*
X103000D02*
D03*
X113000D02*
D03*
X123000D02*
D03*
X133000D02*
D03*
X93000Y184500D02*
D03*
X103000D02*
D03*
X113000D02*
D03*
X123000D02*
D03*
X133000D02*
D03*
X18202Y31736D02*
D03*
D46*
X26691Y172570D02*
D03*
Y175370D02*
D03*
X30191Y175270D02*
D03*
X30091Y172570D02*
D03*
D47*
X102657Y127878D02*
D03*
X99508Y127878D02*
D03*
X96358D02*
D03*
Y126378D02*
D03*
X99508D02*
D03*
X102657Y126378D02*
D03*
X93209Y127878D02*
D03*
X90059Y127976D02*
D03*
X86221Y127878D02*
D03*
X83071D02*
D03*
Y126378D02*
D03*
X86221D02*
D03*
X90059Y126476D02*
D03*
X93209Y126378D02*
D03*
X91600Y117225D02*
D03*
X85313Y117235D02*
D03*
Y118735D02*
D03*
X85301Y120187D02*
D03*
X101049Y117225D02*
D03*
Y118725D02*
D03*
X101037Y120177D02*
D03*
X71850Y104337D02*
D03*
X75886Y97638D02*
D03*
X90025Y120975D02*
D03*
Y119475D02*
D03*
Y117975D02*
D03*
X93175Y120975D02*
D03*
Y119475D02*
D03*
Y117975D02*
D03*
X75886Y96161D02*
D03*
Y94784D02*
D03*
X86350Y87843D02*
D03*
X86375Y86360D02*
D03*
X87950Y85610D02*
D03*
Y87110D02*
D03*
Y88610D02*
D03*
X78740Y102854D02*
D03*
X80610D02*
D03*
X80250Y103971D02*
D03*
X91099Y88593D02*
D03*
Y87093D02*
D03*
Y85593D02*
D03*
X89524Y86343D02*
D03*
X100523Y85575D02*
D03*
Y87075D02*
D03*
Y88575D02*
D03*
X89499Y87825D02*
D03*
X92674Y89360D02*
D03*
X92649Y86325D02*
D03*
Y87825D02*
D03*
X95798D02*
D03*
Y86325D02*
D03*
X89524Y89360D02*
D03*
X94224Y85575D02*
D03*
Y87075D02*
D03*
Y88575D02*
D03*
X97373D02*
D03*
Y87075D02*
D03*
Y85575D02*
D03*
X86375Y89360D02*
D03*
X98948Y86325D02*
D03*
Y87825D02*
D03*
X97899Y120225D02*
D03*
Y118725D02*
D03*
Y117225D02*
D03*
X96324Y117975D02*
D03*
Y119475D02*
D03*
Y120975D02*
D03*
X94750Y117225D02*
D03*
Y118725D02*
D03*
Y120225D02*
D03*
X91600D02*
D03*
Y118725D02*
D03*
X88439Y120177D02*
D03*
X88450Y118725D02*
D03*
Y117225D02*
D03*
X86876Y117975D02*
D03*
Y119475D02*
D03*
Y120975D02*
D03*
X99474D02*
D03*
Y119475D02*
D03*
Y117975D02*
D03*
X100548Y98071D02*
D03*
Y99571D02*
D03*
Y101071D02*
D03*
X91099Y98071D02*
D03*
X87950Y101071D02*
D03*
Y99571D02*
D03*
Y98071D02*
D03*
X91099Y101071D02*
D03*
Y99571D02*
D03*
X92674Y97321D02*
D03*
Y98821D02*
D03*
Y100321D02*
D03*
X95824D02*
D03*
Y98821D02*
D03*
Y97321D02*
D03*
X94249Y98071D02*
D03*
Y99571D02*
D03*
Y101071D02*
D03*
X97398D02*
D03*
Y99571D02*
D03*
Y98071D02*
D03*
X98973Y97321D02*
D03*
Y98821D02*
D03*
Y100321D02*
D03*
X89524D02*
D03*
Y98821D02*
D03*
Y97321D02*
D03*
X95798Y89343D02*
D03*
X70669Y108858D02*
D03*
Y107579D02*
D03*
X98948Y89325D02*
D03*
M02*
