%FSLAX25Y25*%
%MOIN*%
G70*
G01*
G75*
%ADD10R,0.03000X0.03370*%
%ADD11R,0.03000X0.03000*%
%ADD12R,0.01181X0.02559*%
%ADD13R,0.07000X0.13500*%
%ADD14R,0.06890X0.05709*%
%ADD15R,0.02953X0.01181*%
%ADD16R,0.02362X0.01181*%
%ADD17R,0.01575X0.02362*%
%ADD18C,0.00886*%
G04:AMPARAMS|DCode=19|XSize=10.83mil|YSize=57.36mil|CornerRadius=2.71mil|HoleSize=0mil|Usage=FLASHONLY|Rotation=180.000|XOffset=0mil|YOffset=0mil|HoleType=Round|Shape=RoundedRectangle|*
%AMROUNDEDRECTD19*
21,1,0.01083,0.05195,0,0,180.0*
21,1,0.00541,0.05736,0,0,180.0*
1,1,0.00541,-0.00271,0.02597*
1,1,0.00541,0.00271,0.02597*
1,1,0.00541,0.00271,-0.02597*
1,1,0.00541,-0.00271,-0.02597*
%
%ADD19ROUNDEDRECTD19*%
G04:AMPARAMS|DCode=20|XSize=10.83mil|YSize=25.79mil|CornerRadius=2.71mil|HoleSize=0mil|Usage=FLASHONLY|Rotation=180.000|XOffset=0mil|YOffset=0mil|HoleType=Round|Shape=RoundedRectangle|*
%AMROUNDEDRECTD20*
21,1,0.01083,0.02037,0,0,180.0*
21,1,0.00541,0.02579,0,0,180.0*
1,1,0.00541,-0.00271,0.01019*
1,1,0.00541,0.00271,0.01019*
1,1,0.00541,0.00271,-0.01019*
1,1,0.00541,-0.00271,-0.01019*
%
%ADD20ROUNDEDRECTD20*%
%ADD21R,0.02362X0.01575*%
%ADD22R,0.05000X0.03000*%
%ADD23R,0.03150X0.03150*%
%ADD24R,0.03937X0.07874*%
%ADD25C,0.02000*%
%ADD26C,0.01500*%
%ADD27C,0.01969*%
%ADD28C,0.01800*%
%ADD29C,0.01200*%
%ADD30C,0.00800*%
%ADD31C,0.01000*%
%ADD32C,0.00984*%
%ADD33C,0.00600*%
%ADD34C,0.01083*%
%ADD35R,0.08268X0.05118*%
%ADD36R,0.09055X0.03937*%
%ADD37R,0.07087X0.03937*%
%ADD38R,0.07087X0.04331*%
%ADD39R,0.02756X0.07087*%
%ADD40R,0.01969X0.07972*%
%ADD41C,0.00984*%
%ADD42C,0.06000*%
%ADD43C,0.05000*%
%ADD44R,0.05000X0.05000*%
%ADD45C,0.02500*%
%ADD46C,0.02000*%
%ADD47C,0.01000*%
%ADD48R,0.00295X0.00098*%
D10*
X15748Y36050D02*
D03*
Y42690D02*
D03*
X54331Y43871D02*
D03*
Y37231D02*
D03*
X54724Y18281D02*
D03*
Y11641D02*
D03*
X15748Y14737D02*
D03*
Y8097D02*
D03*
X29921D02*
D03*
Y14737D02*
D03*
X22835Y8097D02*
D03*
Y14737D02*
D03*
X40291Y177190D02*
D03*
Y170550D02*
D03*
X16831Y176844D02*
D03*
Y170204D02*
D03*
D11*
X25197Y28740D02*
D03*
X19697D02*
D03*
D12*
X59055Y38386D02*
D03*
Y43701D02*
D03*
X59449Y12795D02*
D03*
Y18110D02*
D03*
D13*
X63161Y167303D02*
D03*
X71878Y148051D02*
D03*
D14*
X28500Y173917D02*
D03*
D15*
X22791Y174902D02*
D03*
Y176870D02*
D03*
Y172933D02*
D03*
Y170965D02*
D03*
X34209Y176870D02*
D03*
Y174902D02*
D03*
Y170965D02*
D03*
Y172933D02*
D03*
D16*
X24150Y33063D02*
D03*
Y35032D02*
D03*
Y37000D02*
D03*
X20803Y33063D02*
D03*
Y35032D02*
D03*
Y37000D02*
D03*
X21063Y23622D02*
D03*
Y21654D02*
D03*
Y19685D02*
D03*
X24409Y23622D02*
D03*
Y21654D02*
D03*
Y19685D02*
D03*
D17*
X73552Y89862D02*
D03*
X70009D02*
D03*
X73552Y86024D02*
D03*
X70009D02*
D03*
X85068Y100098D02*
D03*
X81524D02*
D03*
X78768Y95374D02*
D03*
X82312D02*
D03*
X73060Y108268D02*
D03*
X69516D02*
D03*
X73590Y93675D02*
D03*
X70047D02*
D03*
D18*
X74460Y104337D02*
D03*
X76035D02*
D03*
X77609Y102762D02*
D03*
Y99613D02*
D03*
Y101187D02*
D03*
Y104337D02*
D03*
X72885Y101187D02*
D03*
Y99613D02*
D03*
X74460D02*
D03*
X76035D02*
D03*
X72885Y102762D02*
D03*
Y104337D02*
D03*
D19*
X89524Y107471D02*
D03*
X92674D02*
D03*
X95824D02*
D03*
X98973D02*
D03*
X100548Y107471D02*
D03*
X97398Y107471D02*
D03*
X94249D02*
D03*
X91099D02*
D03*
X87950Y107475D02*
D03*
X89524Y93471D02*
D03*
X92674D02*
D03*
X95824D02*
D03*
X98973D02*
D03*
X100548Y93471D02*
D03*
X97398Y93471D02*
D03*
X94249D02*
D03*
X91099D02*
D03*
X87950Y93475D02*
D03*
D20*
X86375Y105896D02*
D03*
Y109054D02*
D03*
Y91896D02*
D03*
Y95053D02*
D03*
D21*
X76575Y111446D02*
D03*
Y107902D02*
D03*
X80413D02*
D03*
Y111446D02*
D03*
D22*
X100103Y115088D02*
D03*
Y123088D02*
D03*
X93115D02*
D03*
Y115088D02*
D03*
X86127D02*
D03*
Y123088D02*
D03*
D23*
X105905Y85236D02*
D03*
D24*
Y92716D02*
D03*
D32*
X0Y0D02*
X150000D01*
X0Y200000D02*
X150000D01*
D41*
Y0D02*
Y200000D01*
X0Y0D02*
Y200000D01*
D42*
X43795Y4724D02*
D03*
Y14724D02*
D03*
Y24724D02*
D03*
Y31496D02*
D03*
Y41496D02*
D03*
Y51496D02*
D03*
D43*
X133000Y155500D02*
D03*
Y145500D02*
D03*
Y135500D02*
D03*
Y125500D02*
D03*
X143000Y155500D02*
D03*
Y145500D02*
D03*
Y135500D02*
D03*
Y125500D02*
D03*
X133000Y75500D02*
D03*
Y65500D02*
D03*
Y55500D02*
D03*
Y45500D02*
D03*
X143000Y115500D02*
D03*
Y105500D02*
D03*
Y95500D02*
D03*
Y85500D02*
D03*
X7500Y182500D02*
D03*
X143000Y75500D02*
D03*
Y65500D02*
D03*
Y55500D02*
D03*
Y45500D02*
D03*
X7500Y7500D02*
D03*
Y27500D02*
D03*
X133000Y115500D02*
D03*
Y105500D02*
D03*
Y95500D02*
D03*
Y85500D02*
D03*
X100394Y77953D02*
D03*
D44*
X7500Y172500D02*
D03*
Y17500D02*
D03*
Y37500D02*
D03*
M02*
