M48
;Layer_Color=9474304
;FILE_FORMAT=2:5
INCH,LZ
;TYPE=PLATED
T1F00S00C0.00800
T2F00S00C0.01000
T3F00S00C0.01500
T4F00S00C0.03000
T5F00S00C0.04000
%
T01
X007126Y0086024
X007126Y0089862
X006939Y0095472
X0071653Y0097736
X0073721
X0075886Y0097638
Y0096161
Y0094784
X0070768Y0099213
X007185Y0104337
X0070669Y0107579
Y0108858
X007874Y0102854
X008061
X008025Y0103971
X008795Y0101071
Y0099571
Y0098071
X0089524Y0098821
Y0100321
X0091099Y0101071
Y0099571
Y0098071
X0092674Y0098821
Y0100321
X0094249Y0099571
Y0098071
X0095824Y0098821
Y0100321
X0094249Y0101071
X0097398
Y0099571
Y0098071
X0095824Y0097321
X0098973
Y0098821
Y0100321
X0100548Y0099571
Y0098071
Y0101071
X0092674Y0097321
X0089524
Y008936
X0089499Y0087825
X0089524Y0086343
X008795Y008561
Y008711
Y008861
X0086375Y008936
X008635Y0087843
X0086375Y008636
X0091099Y0087093
Y0088593
X0092649Y0087825
Y0086325
X0091099Y0085593
X0094224Y0085575
Y0087075
Y0088575
X0095798Y0087825
Y0086325
X0097373Y0087075
Y0088575
X0098948Y0087825
Y0086325
X0100523Y0085575
Y0087075
Y0088575
X0098948Y0089325
X0095798Y0089343
X0092674Y008936
X0097373Y0085575
X0097899Y0117225
Y0118725
Y0120225
X0096324Y0119475
Y0117975
X009475Y0117225
Y0118725
Y0120225
X0093175Y0120975
Y0119475
Y0117975
X00916Y0117225
Y0118725
Y0120225
X0090025Y0120975
Y0119475
Y0117975
X008845Y0118725
X0088439Y0120177
X0086876Y0119475
Y0117975
X0085313Y0117235
Y0118735
X0085301Y0120187
X0086876Y0120975
X008845Y0117225
X0090059Y0126476
Y0127976
X0093209Y0127878
Y0126378
X0096358
Y0127878
X0099508
Y0126378
X0102657Y0126378
Y0127878
X0101037Y0120177
X0101049Y0118725
Y0117225
X0099474Y0117975
Y0119475
Y0120975
X0096324
X0086221Y0126378
Y0127878
X0083071
Y0126378
T02
X00195Y0177
X0026691Y017537
Y017257
X0030091
X0030191Y017527
X004498Y0163189
T03
X0017717Y0022441
X0018202Y0031736
X0027165Y0035827
X00265Y0026
X009Y0028
Y0038
Y0048
X01
X011
Y0038
X01
Y0028
X011
X012
X013
Y0018
X012
X011
X01
X009
Y0008
X01
X011
X012
X013
X014
Y0018
Y0028
X0120079Y0038189
Y0048425
X012Y0058
Y0068
Y0078
X011
Y0068
X01
X009
Y0078
Y0058
X01
X011
X0113Y01345
Y01445
X0103
X0093
Y01345
X0103
Y01545
X0113
Y01645
X0103
X0093
Y01545
Y01745
X0103
X0113
X0123
Y01645
X0133
X0143
Y01745
Y01845
X0133
Y01745
X0123Y01845
X0113
X0103
X0093
X0123228Y0154724
Y0144882
Y0134646
X0071878Y0134421
T04
X0043795Y0004724
Y0014724
Y0024724
Y0031496
Y0041496
Y0051496
T05
X00075Y00075
Y00175
Y00275
Y00375
X0133Y00455
X0143
Y00555
X0133
Y00655
Y00755
X0143
Y00855
Y00955
Y01055
Y01155
Y01255
X0133
Y01355
Y01455
Y01555
X0143
Y01455
Y01355
X0133Y01155
Y01055
Y00955
Y00855
X0143Y00655
X0100394Y0077953
X00075Y01725
Y01825
M30
