%FSLAX25Y25*%
%MOIN*%
G70*
G01*
G75*
G04 Layer_Color=255*
%ADD10R,0.03000X0.03370*%
%ADD11R,0.03000X0.03000*%
%ADD12R,0.01181X0.02559*%
%ADD13R,0.07000X0.13500*%
%ADD14R,0.06890X0.05709*%
%ADD15R,0.02953X0.01181*%
%ADD16R,0.02362X0.01181*%
%ADD17R,0.01575X0.02362*%
%ADD18C,0.00886*%
G04:AMPARAMS|DCode=19|XSize=10.83mil|YSize=57.36mil|CornerRadius=2.71mil|HoleSize=0mil|Usage=FLASHONLY|Rotation=180.000|XOffset=0mil|YOffset=0mil|HoleType=Round|Shape=RoundedRectangle|*
%AMROUNDEDRECTD19*
21,1,0.01083,0.05195,0,0,180.0*
21,1,0.00541,0.05736,0,0,180.0*
1,1,0.00541,-0.00271,0.02597*
1,1,0.00541,0.00271,0.02597*
1,1,0.00541,0.00271,-0.02597*
1,1,0.00541,-0.00271,-0.02597*
%
%ADD19ROUNDEDRECTD19*%
G04:AMPARAMS|DCode=20|XSize=10.83mil|YSize=25.79mil|CornerRadius=2.71mil|HoleSize=0mil|Usage=FLASHONLY|Rotation=180.000|XOffset=0mil|YOffset=0mil|HoleType=Round|Shape=RoundedRectangle|*
%AMROUNDEDRECTD20*
21,1,0.01083,0.02037,0,0,180.0*
21,1,0.00541,0.02579,0,0,180.0*
1,1,0.00541,-0.00271,0.01019*
1,1,0.00541,0.00271,0.01019*
1,1,0.00541,0.00271,-0.01019*
1,1,0.00541,-0.00271,-0.01019*
%
%ADD20ROUNDEDRECTD20*%
%ADD21R,0.02362X0.01575*%
%ADD22R,0.05000X0.03000*%
%ADD23R,0.03150X0.03150*%
%ADD24R,0.03937X0.07874*%
%ADD25C,0.02000*%
%ADD26C,0.01500*%
%ADD27C,0.01969*%
%ADD28C,0.01800*%
%ADD29C,0.01200*%
%ADD30C,0.00800*%
%ADD31C,0.01000*%
%ADD32C,0.00984*%
%ADD33C,0.00600*%
%ADD34C,0.01083*%
%ADD35R,0.08268X0.05118*%
%ADD36R,0.09055X0.03937*%
%ADD37R,0.07087X0.03937*%
%ADD38R,0.07087X0.04331*%
%ADD39R,0.02756X0.07087*%
%ADD40R,0.01969X0.07972*%
%ADD41C,0.00984*%
%ADD42C,0.06000*%
%ADD43C,0.05000*%
%ADD44R,0.05000X0.05000*%
%ADD45C,0.02500*%
%ADD46C,0.02000*%
%ADD47C,0.01000*%
%ADD48R,0.00295X0.00098*%
D32*
X0Y0D02*
X150000D01*
X0Y200000D02*
X150000D01*
D41*
Y0D02*
Y200000D01*
X0Y0D02*
Y200000D01*
D42*
X43795Y4724D02*
D03*
Y14724D02*
D03*
Y24724D02*
D03*
Y31496D02*
D03*
Y41496D02*
D03*
Y51496D02*
D03*
D43*
X133000Y155500D02*
D03*
Y145500D02*
D03*
Y135500D02*
D03*
Y125500D02*
D03*
X143000Y155500D02*
D03*
Y145500D02*
D03*
Y135500D02*
D03*
Y125500D02*
D03*
X133000Y75500D02*
D03*
Y65500D02*
D03*
Y55500D02*
D03*
Y45500D02*
D03*
X143000Y115500D02*
D03*
Y105500D02*
D03*
Y95500D02*
D03*
Y85500D02*
D03*
X7500Y182500D02*
D03*
X143000Y75500D02*
D03*
Y65500D02*
D03*
Y55500D02*
D03*
Y45500D02*
D03*
X7500Y7500D02*
D03*
Y27500D02*
D03*
X133000Y115500D02*
D03*
Y105500D02*
D03*
Y95500D02*
D03*
Y85500D02*
D03*
X100394Y77953D02*
D03*
D44*
X7500Y172500D02*
D03*
Y17500D02*
D03*
Y37500D02*
D03*
M02*
