%FSLAX25Y25*%
%MOIN*%
G70*
G01*
G75*
G04 Layer_Physical_Order=4*
G04 Layer_Color=16711680*
%ADD10R,0.03000X0.03370*%
%ADD11R,0.03000X0.03000*%
%ADD12R,0.01181X0.02559*%
%ADD13R,0.07000X0.13500*%
%ADD14R,0.06890X0.05709*%
%ADD15R,0.02953X0.01181*%
%ADD16R,0.02362X0.01181*%
%ADD17R,0.01575X0.02362*%
%ADD18C,0.00886*%
G04:AMPARAMS|DCode=19|XSize=10.83mil|YSize=57.36mil|CornerRadius=2.71mil|HoleSize=0mil|Usage=FLASHONLY|Rotation=180.000|XOffset=0mil|YOffset=0mil|HoleType=Round|Shape=RoundedRectangle|*
%AMROUNDEDRECTD19*
21,1,0.01083,0.05195,0,0,180.0*
21,1,0.00541,0.05736,0,0,180.0*
1,1,0.00541,-0.00271,0.02597*
1,1,0.00541,0.00271,0.02597*
1,1,0.00541,0.00271,-0.02597*
1,1,0.00541,-0.00271,-0.02597*
%
%ADD19ROUNDEDRECTD19*%
G04:AMPARAMS|DCode=20|XSize=10.83mil|YSize=25.79mil|CornerRadius=2.71mil|HoleSize=0mil|Usage=FLASHONLY|Rotation=180.000|XOffset=0mil|YOffset=0mil|HoleType=Round|Shape=RoundedRectangle|*
%AMROUNDEDRECTD20*
21,1,0.01083,0.02037,0,0,180.0*
21,1,0.00541,0.02579,0,0,180.0*
1,1,0.00541,-0.00271,0.01019*
1,1,0.00541,0.00271,0.01019*
1,1,0.00541,0.00271,-0.01019*
1,1,0.00541,-0.00271,-0.01019*
%
%ADD20ROUNDEDRECTD20*%
%ADD21R,0.02362X0.01575*%
%ADD22R,0.05000X0.03000*%
%ADD23R,0.03150X0.03150*%
%ADD24R,0.03937X0.07874*%
%ADD25C,0.02000*%
%ADD26C,0.01500*%
%ADD27C,0.01969*%
%ADD28C,0.01800*%
%ADD29C,0.01200*%
%ADD30C,0.00800*%
%ADD31C,0.01000*%
%ADD32C,0.00984*%
%ADD33C,0.00600*%
%ADD34C,0.01083*%
%ADD35R,0.08268X0.05118*%
%ADD36R,0.09055X0.03937*%
%ADD37R,0.07087X0.03937*%
%ADD38R,0.07087X0.04331*%
%ADD39R,0.02756X0.07087*%
%ADD40R,0.01969X0.07972*%
%ADD41C,0.00984*%
%ADD42C,0.06000*%
%ADD43C,0.05000*%
%ADD44R,0.05000X0.05000*%
%ADD45C,0.02500*%
%ADD46C,0.02000*%
%ADD47C,0.01000*%
%ADD48R,0.00295X0.00098*%
G36*
X148819Y81102D02*
X116142D01*
X109055Y88189D01*
D01*
X109055D01*
X108774Y88470D01*
X108774Y88470D01*
X108621Y88534D01*
X108572Y88583D01*
X108363Y88669D01*
X108260D01*
X108164Y88709D01*
X101625D01*
X101530Y88669D01*
X101426D01*
X101323Y88626D01*
X101250Y88553D01*
X101155Y88514D01*
X101115Y88418D01*
X101042Y88345D01*
Y88242D01*
X101003Y88146D01*
Y85665D01*
X100043D01*
Y88351D01*
X100004Y88446D01*
Y88550D01*
X99947Y88686D01*
Y89274D01*
Y89325D01*
X99871Y89707D01*
X99655Y90031D01*
X99330Y90248D01*
X98948Y90324D01*
X98566Y90248D01*
X98242Y90031D01*
X98025Y89707D01*
X97949Y89325D01*
Y89274D01*
Y88686D01*
X97892Y88550D01*
Y88446D01*
X97853Y88351D01*
Y85665D01*
X96894D01*
Y88351D01*
X96854Y88446D01*
Y88550D01*
X96798Y88686D01*
Y89291D01*
Y89343D01*
X96722Y89725D01*
X96505Y90049D01*
X96181Y90266D01*
X95798Y90342D01*
X95416Y90266D01*
X95092Y90049D01*
X94875Y89725D01*
X94799Y89343D01*
Y89291D01*
Y88686D01*
X94743Y88550D01*
Y88446D01*
X94703Y88351D01*
Y85665D01*
X93744D01*
Y88412D01*
X93704Y88507D01*
Y88611D01*
X93673Y88686D01*
Y89309D01*
Y89360D01*
X93597Y89743D01*
X93381Y90067D01*
X93056Y90284D01*
X92674Y90360D01*
X92292Y90284D01*
X91967Y90067D01*
X91751Y89743D01*
X91675Y89360D01*
Y89309D01*
Y88686D01*
X91618Y88550D01*
Y88446D01*
X91579Y88351D01*
Y85665D01*
X90620D01*
Y88351D01*
X90580Y88446D01*
Y88550D01*
X90524Y88686D01*
Y89309D01*
Y89360D01*
X90448Y89743D01*
X90231Y90067D01*
X89907Y90284D01*
X89524Y90360D01*
X89142Y90284D01*
X88818Y90067D01*
X88601Y89743D01*
X88525Y89360D01*
Y89309D01*
Y88686D01*
X88469Y88550D01*
Y88446D01*
X88429Y88351D01*
Y85665D01*
X87470D01*
Y88351D01*
X87430Y88446D01*
Y88550D01*
X87374Y88686D01*
Y89309D01*
Y89360D01*
X87298Y89743D01*
X87081Y90067D01*
X86757Y90284D01*
X86375Y90360D01*
X85992Y90284D01*
X85668Y90067D01*
X85452Y89743D01*
X85376Y89360D01*
Y89309D01*
Y88812D01*
X85345Y88739D01*
X85272Y88709D01*
X83442D01*
X83266Y88782D01*
X83144Y88903D01*
X83071Y89080D01*
Y89370D01*
Y97479D01*
Y102362D01*
X77165D01*
X75590Y103937D01*
X69685D01*
X68504Y105118D01*
Y109449D01*
Y109843D01*
X70866Y112205D01*
X84501D01*
X85263Y111444D01*
X85630Y111292D01*
X103543D01*
X103911Y111444D01*
X104672Y112205D01*
X104724D01*
X110630Y118110D01*
X112992Y120472D01*
X148819D01*
Y81102D01*
D02*
G37*
G36*
Y131102D02*
Y121260D01*
X112992D01*
X104304Y112572D01*
X103616Y111884D01*
X103440Y111811D01*
X85733D01*
X85557Y111884D01*
X84869Y112572D01*
X81201Y116240D01*
X78740Y118701D01*
Y129134D01*
Y185827D01*
Y198819D01*
X148819D01*
Y131102D01*
D02*
G37*
G36*
X99428Y89274D02*
D01*
Y88686D01*
X99467Y88591D01*
Y88487D01*
X99496Y88418D01*
X99524Y88351D01*
Y85665D01*
Y85575D01*
X99600Y85192D01*
X99816Y84868D01*
X100140Y84652D01*
X100523Y84576D01*
X100905Y84652D01*
X101229Y84868D01*
X101446Y85192D01*
X101522Y85575D01*
Y88043D01*
Y88146D01*
X101522D01*
X101530Y88149D01*
X101625Y88189D01*
X101729D01*
X108164D01*
D01*
X108373Y88103D01*
X108422Y88054D01*
X108480Y88030D01*
X108688Y87822D01*
X108688Y87822D01*
X108688Y87822D01*
X115774Y80735D01*
X116142Y80583D01*
X148819D01*
Y1181D01*
X77559D01*
Y78995D01*
Y89370D01*
X82551D01*
Y89080D01*
X82591Y88984D01*
Y88881D01*
X82664Y88705D01*
X82737Y88631D01*
X82777Y88536D01*
X82898Y88414D01*
X82994Y88375D01*
X83067Y88302D01*
X83243Y88228D01*
X83347D01*
X83442Y88189D01*
X85272D01*
X85368Y88228D01*
X85471Y88228D01*
X85544Y88259D01*
X85544D01*
X85544Y88259D01*
X85544Y88259D01*
X85617Y88332D01*
X85640Y88341D01*
X85649Y88364D01*
X85685Y88399D01*
X85721Y88435D01*
X85743Y88445D01*
X85752Y88467D01*
X85825Y88540D01*
X85825Y88540D01*
X85825Y88540D01*
Y88540D01*
X85856Y88613D01*
X85856Y88716D01*
X85895Y88812D01*
Y89309D01*
D01*
X85907Y89370D01*
X86842D01*
X86854Y89309D01*
D01*
Y88686D01*
X86894Y88591D01*
Y88487D01*
X86923Y88418D01*
X86950Y88351D01*
Y85665D01*
Y85610D01*
X87027Y85228D01*
X87243Y84904D01*
X87567Y84687D01*
X87950Y84611D01*
X88332Y84687D01*
X88656Y84904D01*
X88873Y85228D01*
X88949Y85610D01*
Y88248D01*
Y88351D01*
D01*
X88949Y88351D01*
X89005Y88487D01*
Y88591D01*
X89045Y88686D01*
Y89309D01*
D01*
X89057Y89370D01*
X89992D01*
X90004Y89309D01*
D01*
Y88686D01*
X90044Y88591D01*
Y88487D01*
X90072Y88418D01*
X90100Y88351D01*
Y85665D01*
Y85593D01*
X90176Y85210D01*
X90393Y84886D01*
X90717Y84669D01*
X91099Y84593D01*
X91482Y84669D01*
X91806Y84886D01*
X92022Y85210D01*
X92098Y85593D01*
Y88248D01*
Y88351D01*
D01*
X92098Y88351D01*
X92155Y88487D01*
Y88591D01*
X92194Y88686D01*
Y89309D01*
D01*
X92207Y89370D01*
X93142D01*
X93154Y89309D01*
D01*
Y88686D01*
X93185Y88611D01*
D01*
Y88507D01*
X93204Y88461D01*
X93224Y88412D01*
X93224Y88412D01*
D01*
Y88309D01*
Y85665D01*
Y85575D01*
X93300Y85192D01*
X93517Y84868D01*
X93841Y84652D01*
X94224Y84576D01*
X94606Y84652D01*
X94930Y84868D01*
X95147Y85192D01*
X95223Y85575D01*
Y88248D01*
Y88351D01*
D01*
X95223Y88351D01*
X95279Y88487D01*
Y88591D01*
X95319Y88686D01*
Y89291D01*
D01*
X95334Y89370D01*
X96262D01*
X96278Y89291D01*
D01*
Y88686D01*
X96318Y88591D01*
Y88487D01*
X96346Y88418D01*
X96374Y88351D01*
Y85665D01*
Y85575D01*
X96450Y85192D01*
X96667Y84868D01*
X96991Y84652D01*
X97373Y84576D01*
X97756Y84652D01*
X98080Y84868D01*
X98296Y85192D01*
X98372Y85575D01*
Y88248D01*
Y88351D01*
D01*
X98372Y88351D01*
X98429Y88487D01*
Y88591D01*
X98468Y88686D01*
Y89274D01*
D01*
X98488Y89370D01*
X99409D01*
X99428Y89274D01*
D02*
G37*
G36*
X55118Y142126D02*
Y116535D01*
X67716Y103937D01*
X68504Y103150D01*
X75643D01*
X76772Y102021D01*
Y94095D01*
Y87148D01*
X73552Y83928D01*
X73622Y83858D01*
X70866Y81102D01*
Y76378D01*
Y1181D01*
X1181D01*
Y198819D01*
X55118D01*
Y142126D01*
D02*
G37*
%LPC*%
G36*
X89524Y101320D02*
X89142Y101244D01*
X88818Y101028D01*
X88601Y100703D01*
X88525Y100321D01*
Y97321D01*
X88525Y97321D01*
X88525Y97321D01*
X88601Y96938D01*
X88818Y96614D01*
X89142Y96398D01*
X89524Y96322D01*
X89907Y96398D01*
X90231Y96614D01*
X90448Y96938D01*
X90524Y97321D01*
X90524Y97321D01*
X90524Y97321D01*
Y100321D01*
X90448Y100703D01*
X90231Y101028D01*
X89907Y101244D01*
X89524Y101320D01*
D02*
G37*
G36*
X69390Y96472D02*
X69007Y96396D01*
X68683Y96179D01*
X68467Y95855D01*
X68391Y95472D01*
X68467Y95090D01*
X68683Y94766D01*
X69007Y94549D01*
X69390Y94473D01*
X69772Y94549D01*
X70096Y94766D01*
X70313Y95090D01*
X70389Y95472D01*
X70313Y95855D01*
X70096Y96179D01*
X69772Y96396D01*
X69390Y96472D01*
D02*
G37*
G36*
X95824Y101320D02*
X95441Y101244D01*
X95117Y101028D01*
X94901Y100703D01*
X94824Y100321D01*
Y97321D01*
X94901Y96939D01*
X95117Y96614D01*
X95441Y96398D01*
X95824Y96322D01*
X96206Y96398D01*
X96530Y96614D01*
X96747Y96939D01*
X96823Y97321D01*
Y100321D01*
X96747Y100703D01*
X96530Y101028D01*
X96206Y101244D01*
X95824Y101320D01*
D02*
G37*
G36*
X98973D02*
X98591Y101244D01*
X98267Y101028D01*
X98050Y100703D01*
X97974Y100321D01*
Y97321D01*
X98050Y96939D01*
X98267Y96614D01*
X98591Y96398D01*
X98973Y96322D01*
X99356Y96398D01*
X99680Y96614D01*
X99896Y96939D01*
X99972Y97321D01*
Y100321D01*
X99896Y100703D01*
X99680Y101028D01*
X99356Y101244D01*
X98973Y101320D01*
D02*
G37*
G36*
X92674D02*
X92292Y101244D01*
X91967Y101028D01*
X91751Y100703D01*
X91675Y100321D01*
Y97321D01*
X91675Y97321D01*
X91675Y97321D01*
X91751Y96938D01*
X91967Y96614D01*
X92292Y96398D01*
X92674Y96322D01*
X93056Y96398D01*
X93381Y96614D01*
X93597Y96938D01*
X93673Y97321D01*
X93673Y97321D01*
X93673Y97321D01*
Y100321D01*
X93597Y100703D01*
X93381Y101028D01*
X93056Y101244D01*
X92674Y101320D01*
D02*
G37*
G36*
X71260Y90861D02*
X70877Y90785D01*
X70553Y90569D01*
X70337Y90245D01*
X70261Y89862D01*
X70337Y89480D01*
X70553Y89156D01*
X70877Y88939D01*
X71260Y88863D01*
X71642Y88939D01*
X71966Y89156D01*
X72183Y89480D01*
X72259Y89862D01*
X72183Y90245D01*
X71966Y90569D01*
X71642Y90785D01*
X71260Y90861D01*
D02*
G37*
G36*
X10480Y20480D02*
X4520D01*
Y14520D01*
X10480D01*
Y20480D01*
D02*
G37*
G36*
X43795Y35006D02*
X42887Y34887D01*
X42040Y34536D01*
X41313Y33978D01*
X40756Y33251D01*
X40405Y32405D01*
X40285Y31496D01*
X40405Y30588D01*
X40756Y29741D01*
X41313Y29014D01*
X42040Y28456D01*
X42876Y28110D01*
X42040Y27764D01*
X41313Y27206D01*
X40756Y26479D01*
X40405Y25633D01*
X40285Y24724D01*
X40405Y23816D01*
X40756Y22969D01*
X41313Y22242D01*
X42040Y21685D01*
X42286Y21583D01*
Y17866D01*
X42040Y17764D01*
X41313Y17206D01*
X40756Y16479D01*
X40405Y15633D01*
X40285Y14724D01*
X40405Y13816D01*
X40756Y12969D01*
X41313Y12242D01*
X42040Y11685D01*
X42887Y11334D01*
X43795Y11214D01*
X44704Y11334D01*
X45550Y11685D01*
X46277Y12242D01*
X46835Y12969D01*
X47186Y13816D01*
X47305Y14724D01*
X47186Y15633D01*
X46835Y16479D01*
X46277Y17206D01*
X45550Y17764D01*
X45304Y17866D01*
Y21583D01*
X45550Y21685D01*
X46277Y22242D01*
X46835Y22969D01*
X47186Y23816D01*
X47305Y24724D01*
X47186Y25633D01*
X46835Y26479D01*
X46277Y27206D01*
X45550Y27764D01*
X44715Y28110D01*
X45550Y28456D01*
X46277Y29014D01*
X46835Y29741D01*
X47186Y30588D01*
X47305Y31496D01*
X47186Y32405D01*
X46835Y33251D01*
X46277Y33978D01*
X45550Y34536D01*
X44704Y34887D01*
X43795Y35006D01*
D02*
G37*
G36*
Y8234D02*
X42887Y8115D01*
X42040Y7764D01*
X41313Y7206D01*
X40756Y6479D01*
X40405Y5633D01*
X40285Y4724D01*
X40405Y3816D01*
X40756Y2969D01*
X41313Y2242D01*
X42040Y1685D01*
X42887Y1334D01*
X43795Y1214D01*
X44704Y1334D01*
X45550Y1685D01*
X46277Y2242D01*
X46835Y2969D01*
X47186Y3816D01*
X47305Y4724D01*
X47186Y5633D01*
X46835Y6479D01*
X46277Y7206D01*
X45550Y7764D01*
X44704Y8115D01*
X43795Y8234D01*
D02*
G37*
G36*
X10480Y40480D02*
X4520D01*
Y34520D01*
X8346D01*
X12270Y30595D01*
Y26378D01*
X12385Y25800D01*
X12712Y25311D01*
X16045Y21979D01*
X16087Y21766D01*
X16469Y21194D01*
X17041Y20811D01*
X17717Y20677D01*
X18392Y20811D01*
X18964Y21194D01*
X19346Y21766D01*
X19480Y22441D01*
X19346Y23116D01*
X18964Y23688D01*
X18392Y24071D01*
X18179Y24113D01*
X15289Y27003D01*
Y31220D01*
X15289Y31220D01*
X15174Y31798D01*
X15065Y31960D01*
X14846Y32287D01*
X14846Y32287D01*
X10480Y36654D01*
Y40480D01*
D02*
G37*
G36*
X71260Y87023D02*
X70877Y86947D01*
X70553Y86730D01*
X70337Y86406D01*
X70261Y86024D01*
X70337Y85641D01*
X70553Y85317D01*
X70877Y85101D01*
X71260Y85024D01*
X71642Y85101D01*
X71966Y85317D01*
X72183Y85641D01*
X72259Y86024D01*
X72183Y86406D01*
X71966Y86730D01*
X71642Y86947D01*
X71260Y87023D01*
D02*
G37*
G36*
X43795Y55006D02*
X42887Y54887D01*
X42040Y54536D01*
X41313Y53978D01*
X40756Y53251D01*
X40405Y52404D01*
X40285Y51496D01*
X40405Y50588D01*
X40756Y49741D01*
X41313Y49014D01*
X42040Y48456D01*
X42286Y48354D01*
Y44638D01*
X42040Y44536D01*
X41313Y43978D01*
X40756Y43251D01*
X40405Y42404D01*
X40285Y41496D01*
X40405Y40588D01*
X40756Y39741D01*
X41313Y39014D01*
X42040Y38456D01*
X42887Y38106D01*
X43795Y37986D01*
X44704Y38106D01*
X45550Y38456D01*
X46277Y39014D01*
X46835Y39741D01*
X47186Y40588D01*
X47305Y41496D01*
X47212Y42205D01*
X47417Y42409D01*
X47744Y42899D01*
X47859Y43476D01*
X47744Y44054D01*
X47417Y44543D01*
X46927Y44870D01*
X46350Y44985D01*
X45772Y44870D01*
X45378Y44607D01*
X45304Y44638D01*
Y48354D01*
X45550Y48456D01*
X46277Y49014D01*
X46835Y49741D01*
X47186Y50588D01*
X47305Y51496D01*
X47186Y52404D01*
X46835Y53251D01*
X46277Y53978D01*
X45550Y54536D01*
X44704Y54887D01*
X43795Y55006D01*
D02*
G37*
G36*
X19500Y178509D02*
X18923Y178394D01*
X18433Y178067D01*
X18106Y177577D01*
X17991Y177000D01*
Y164600D01*
X17618D01*
X17041Y164485D01*
X16551Y164158D01*
X2968Y150575D01*
X2641Y150085D01*
X2526Y149508D01*
Y66043D01*
X2641Y65466D01*
X2968Y64976D01*
X22255Y45690D01*
Y39236D01*
X22370Y38659D01*
X22697Y38169D01*
X25491Y35375D01*
X25536Y35152D01*
X25918Y34580D01*
X26490Y34197D01*
X26713Y34153D01*
X28491Y32375D01*
Y30125D01*
X26038Y27672D01*
X25825Y27630D01*
X25253Y27247D01*
X24870Y26675D01*
X24736Y26000D01*
X24870Y25325D01*
X25253Y24753D01*
X25825Y24370D01*
X26500Y24236D01*
X27175Y24370D01*
X27747Y24753D01*
X28130Y25325D01*
X28172Y25538D01*
X31067Y28433D01*
X31394Y28923D01*
X31509Y29500D01*
X31509Y29500D01*
Y30000D01*
Y33000D01*
X31509Y33000D01*
X31394Y33577D01*
X31286Y33740D01*
X31067Y34067D01*
X31067Y34067D01*
X28835Y36299D01*
X28795Y36502D01*
X28413Y37074D01*
X27840Y37456D01*
X27637Y37497D01*
X25273Y39861D01*
Y46315D01*
X25158Y46892D01*
X24831Y47382D01*
X5544Y66668D01*
Y148883D01*
X18243Y161582D01*
X44882D01*
X45459Y161696D01*
X45949Y162023D01*
X45988Y162083D01*
X46047Y162122D01*
X46374Y162611D01*
X46489Y163189D01*
X46374Y163767D01*
X46047Y164256D01*
X45558Y164583D01*
X44980Y164698D01*
X44486Y164600D01*
X21009D01*
Y177000D01*
X20894Y177577D01*
X20567Y178067D01*
X20077Y178394D01*
X19500Y178509D01*
D02*
G37*
G36*
X96358Y128877D02*
X95976Y128801D01*
X95652Y128585D01*
X95435Y128260D01*
X95359Y127878D01*
Y126378D01*
X95435Y125996D01*
X95652Y125671D01*
X95976Y125455D01*
X96358Y125379D01*
X96741Y125455D01*
X97065Y125671D01*
X97281Y125996D01*
X97357Y126378D01*
Y127878D01*
X97281Y128260D01*
X97065Y128585D01*
X96741Y128801D01*
X96358Y128877D01*
D02*
G37*
G36*
X93209D02*
X92826Y128801D01*
X92502Y128585D01*
X92286Y128260D01*
X92210Y127878D01*
Y126378D01*
X92286Y125996D01*
X92502Y125671D01*
X92826Y125455D01*
X93209Y125379D01*
X93591Y125455D01*
X93915Y125671D01*
X94132Y125996D01*
X94208Y126378D01*
Y127878D01*
X94132Y128260D01*
X93915Y128585D01*
X93591Y128801D01*
X93209Y128877D01*
D02*
G37*
G36*
X86221D02*
X85838Y128801D01*
X85514Y128585D01*
X85297Y128260D01*
X85221Y127878D01*
Y126378D01*
X85297Y125996D01*
X85514Y125671D01*
X85838Y125455D01*
X86221Y125379D01*
X86603Y125455D01*
X86927Y125671D01*
X87144Y125996D01*
X87220Y126378D01*
Y127878D01*
X87144Y128260D01*
X86927Y128585D01*
X86603Y128801D01*
X86221Y128877D01*
D02*
G37*
G36*
X99508D02*
X99125Y128801D01*
X98801Y128585D01*
X98585Y128260D01*
X98509Y127878D01*
Y126378D01*
X98585Y125996D01*
X98801Y125671D01*
X99125Y125455D01*
X99508Y125379D01*
X99890Y125455D01*
X100214Y125671D01*
X100431Y125996D01*
X100507Y126378D01*
Y127878D01*
X100431Y128260D01*
X100214Y128585D01*
X99890Y128801D01*
X99508Y128877D01*
D02*
G37*
G36*
X10480Y175480D02*
X4520D01*
Y169520D01*
X10480D01*
Y175480D01*
D02*
G37*
G36*
X90059Y128976D02*
X89677Y128900D01*
X89353Y128683D01*
X89136Y128359D01*
X89060Y127976D01*
Y126476D01*
X89136Y126094D01*
X89353Y125770D01*
X89677Y125553D01*
X90059Y125477D01*
X90441Y125553D01*
X90766Y125770D01*
X90982Y126094D01*
X91058Y126476D01*
Y127976D01*
X90982Y128359D01*
X90766Y128683D01*
X90441Y128900D01*
X90059Y128976D01*
D02*
G37*
G36*
X102657Y128877D02*
X102275Y128801D01*
X101951Y128585D01*
X101734Y128260D01*
X101658Y127878D01*
Y126378D01*
X101734Y125996D01*
X101951Y125671D01*
X102275Y125455D01*
X102657Y125379D01*
X103040Y125455D01*
X103364Y125671D01*
X103581Y125996D01*
X103657Y126378D01*
Y127878D01*
X103581Y128260D01*
X103364Y128585D01*
X103040Y128801D01*
X102657Y128877D01*
D02*
G37*
G36*
X83071Y128877D02*
X82688Y128801D01*
X82364Y128585D01*
X82148Y128260D01*
X82072Y127878D01*
Y126378D01*
X82148Y125996D01*
X82364Y125671D01*
X82688Y125455D01*
X83071Y125379D01*
X83453Y125455D01*
X83777Y125671D01*
X83994Y125996D01*
X84070Y126378D01*
Y127878D01*
X83994Y128260D01*
X83777Y128585D01*
X83453Y128801D01*
X83071Y128877D01*
D02*
G37*
G36*
X86876Y121974D02*
X86493Y121898D01*
X86169Y121681D01*
X85952Y121357D01*
X85876Y120975D01*
Y117975D01*
X85952Y117592D01*
X86169Y117268D01*
X86493Y117052D01*
X86876Y116976D01*
X87258Y117052D01*
X87582Y117268D01*
X87799Y117592D01*
X87875Y117975D01*
Y120975D01*
X87799Y121357D01*
X87582Y121681D01*
X87258Y121898D01*
X86876Y121974D01*
D02*
G37*
G36*
X73721Y98735D02*
X73338Y98659D01*
X73014Y98443D01*
X72797Y98119D01*
X72721Y97736D01*
X72797Y97354D01*
X73014Y97030D01*
X73338Y96813D01*
X73721Y96737D01*
X74103Y96813D01*
X74427Y97030D01*
X74644Y97354D01*
X74720Y97736D01*
X74644Y98119D01*
X74427Y98443D01*
X74103Y98659D01*
X73721Y98735D01*
D02*
G37*
G36*
X70768Y100212D02*
X70385Y100136D01*
X70061Y99919D01*
X69845Y99595D01*
X69769Y99213D01*
X69845Y98830D01*
X70061Y98506D01*
X70385Y98289D01*
X70768Y98213D01*
X70798Y98219D01*
X70730Y98119D01*
X70654Y97736D01*
X70730Y97354D01*
X70947Y97030D01*
X71271Y96813D01*
X71653Y96737D01*
X72036Y96813D01*
X72360Y97030D01*
X72577Y97354D01*
X72653Y97736D01*
X72577Y98119D01*
X72360Y98443D01*
X72036Y98659D01*
X71653Y98735D01*
X71623Y98729D01*
X71691Y98830D01*
X71767Y99213D01*
X71691Y99595D01*
X71474Y99919D01*
X71150Y100136D01*
X70768Y100212D01*
D02*
G37*
G36*
X90025Y121974D02*
X89643Y121898D01*
X89319Y121681D01*
X89102Y121357D01*
X89026Y120975D01*
Y117975D01*
X89102Y117592D01*
X89319Y117268D01*
X89643Y117052D01*
X90025Y116976D01*
X90408Y117052D01*
X90732Y117268D01*
X90948Y117592D01*
X91024Y117975D01*
Y120975D01*
X90948Y121357D01*
X90732Y121681D01*
X90408Y121898D01*
X90025Y121974D01*
D02*
G37*
G36*
X99474D02*
X99092Y121898D01*
X98767Y121681D01*
X98551Y121357D01*
X98475Y120975D01*
Y117975D01*
X98551Y117592D01*
X98767Y117268D01*
X99092Y117052D01*
X99474Y116976D01*
X99856Y117052D01*
X100180Y117268D01*
X100397Y117592D01*
X100473Y117975D01*
Y120975D01*
X100397Y121357D01*
X100180Y121681D01*
X99856Y121898D01*
X99474Y121974D01*
D02*
G37*
G36*
X96324D02*
X95942Y121898D01*
X95618Y121681D01*
X95401Y121357D01*
X95325Y120975D01*
Y117975D01*
X95401Y117592D01*
X95618Y117268D01*
X95942Y117052D01*
X96324Y116976D01*
X96707Y117052D01*
X97031Y117268D01*
X97247Y117592D01*
X97324Y117975D01*
Y120975D01*
X97247Y121357D01*
X97031Y121681D01*
X96707Y121898D01*
X96324Y121974D01*
D02*
G37*
G36*
X93175D02*
X92792Y121898D01*
X92468Y121681D01*
X92252Y121357D01*
X92176Y120975D01*
Y117975D01*
X92252Y117592D01*
X92468Y117268D01*
X92792Y117052D01*
X93175Y116976D01*
X93557Y117052D01*
X93881Y117268D01*
X94098Y117592D01*
X94174Y117975D01*
Y120975D01*
X94098Y121357D01*
X93881Y121681D01*
X93557Y121898D01*
X93175Y121974D01*
D02*
G37*
%LPD*%
D25*
X13780Y26378D02*
Y31220D01*
X7500Y37500D02*
X13780Y31220D01*
Y26378D02*
X17717Y22441D01*
X26500Y26000D02*
X30000Y29500D01*
Y30000D01*
X43795Y14724D02*
Y24724D01*
Y41496D02*
Y51496D01*
X18202Y31736D02*
X20022Y29916D01*
X24782D01*
X8300Y7000D02*
X10480Y9180D01*
X14300D01*
X43692Y40819D02*
X46350Y43476D01*
X4035Y66043D02*
Y149508D01*
X17618Y163091D01*
X44882D01*
X23764Y39236D02*
X30000Y33000D01*
X23764Y39236D02*
Y46315D01*
X4035Y66043D02*
X23764Y46315D01*
X30000Y30000D02*
Y33000D01*
X19500Y163591D02*
Y177000D01*
D30*
X75886Y94784D02*
Y97638D01*
D31*
X85313Y117235D02*
Y120235D01*
X101049Y117225D02*
Y120225D01*
X97899Y117225D02*
Y120225D01*
X94750Y117225D02*
Y120225D01*
X91600Y117225D02*
Y120225D01*
X88450Y117225D02*
Y120225D01*
X100523Y85575D02*
Y88575D01*
X97373Y85575D02*
Y88575D01*
X94224Y85575D02*
Y88575D01*
X91099Y85593D02*
Y88593D01*
X87950Y85610D02*
Y88610D01*
X100548Y98071D02*
Y101071D01*
X97398Y98071D02*
Y101071D01*
X94249Y98071D02*
Y101071D01*
X91099Y98071D02*
Y101071D01*
X87950Y98071D02*
Y101071D01*
X98973Y97321D02*
Y100321D01*
X92674Y97321D02*
Y100321D01*
X95824Y97321D02*
Y100321D01*
X89524Y97321D02*
Y100321D01*
X86375Y84860D02*
Y87817D01*
X86350Y87843D02*
X86375Y87817D01*
X89524Y84843D02*
Y87800D01*
X89499Y87825D02*
X89524Y87800D01*
X92649Y84825D02*
Y87825D01*
X95798Y84825D02*
Y87825D01*
X98948Y84825D02*
Y87825D01*
X83071Y126378D02*
Y127878D01*
X86221Y126378D02*
Y127878D01*
X90059Y126476D02*
Y127976D01*
X93209Y126378D02*
Y127878D01*
X96358Y126378D02*
Y127878D01*
X99508Y126378D02*
Y127878D01*
X102657Y126378D02*
Y127878D01*
X86876Y117975D02*
Y120975D01*
X90025Y117975D02*
Y120975D01*
X93175Y117975D02*
Y120975D01*
X96324Y117975D02*
Y120975D01*
X99474Y117975D02*
Y120975D01*
X86375Y86360D02*
Y89360D01*
X89524Y86343D02*
Y89360D01*
X92674Y86350D02*
Y89360D01*
X92649Y86325D02*
X92674Y86350D01*
X95798Y86325D02*
Y89343D01*
X98948Y86325D02*
Y89325D01*
D32*
X0Y0D02*
X150000D01*
X0Y200000D02*
X150000D01*
D41*
Y0D02*
Y200000D01*
X0Y0D02*
Y200000D01*
D42*
X43795Y4724D02*
D03*
Y14724D02*
D03*
Y24724D02*
D03*
Y31496D02*
D03*
Y41496D02*
D03*
Y51496D02*
D03*
D43*
X133000Y155500D02*
D03*
Y145500D02*
D03*
Y135500D02*
D03*
Y125500D02*
D03*
X143000Y155500D02*
D03*
Y145500D02*
D03*
Y135500D02*
D03*
Y125500D02*
D03*
X133000Y75500D02*
D03*
Y65500D02*
D03*
Y55500D02*
D03*
Y45500D02*
D03*
X143000Y115500D02*
D03*
Y105500D02*
D03*
Y95500D02*
D03*
Y85500D02*
D03*
X7500Y182500D02*
D03*
X143000Y75500D02*
D03*
Y65500D02*
D03*
Y55500D02*
D03*
Y45500D02*
D03*
X7500Y7500D02*
D03*
Y27500D02*
D03*
X133000Y115500D02*
D03*
Y105500D02*
D03*
Y95500D02*
D03*
Y85500D02*
D03*
X100394Y77953D02*
D03*
D44*
X7500Y172500D02*
D03*
Y17500D02*
D03*
Y37500D02*
D03*
D45*
X17717Y22441D02*
D03*
X120000Y78000D02*
D03*
Y68000D02*
D03*
Y58000D02*
D03*
X120079Y38189D02*
D03*
Y48425D02*
D03*
X90000Y68000D02*
D03*
X100000D02*
D03*
X110000D02*
D03*
X90000Y78000D02*
D03*
X110000D02*
D03*
X90000Y48000D02*
D03*
X100000D02*
D03*
X110000D02*
D03*
X90000Y58000D02*
D03*
X100000D02*
D03*
X110000D02*
D03*
X113000Y144500D02*
D03*
X103000D02*
D03*
X93000D02*
D03*
X113000Y134500D02*
D03*
X103000D02*
D03*
X93000D02*
D03*
X123228Y144882D02*
D03*
Y154724D02*
D03*
Y134646D02*
D03*
X71878Y134421D02*
D03*
X26500Y26000D02*
D03*
X27165Y35827D02*
D03*
X110000Y38000D02*
D03*
X100000D02*
D03*
X90000D02*
D03*
X130000Y28000D02*
D03*
X120000D02*
D03*
X110000D02*
D03*
X100000D02*
D03*
X90000D02*
D03*
X130000Y18000D02*
D03*
X120000D02*
D03*
X110000D02*
D03*
X100000D02*
D03*
X90000D02*
D03*
X130000Y8000D02*
D03*
X120000D02*
D03*
X110000D02*
D03*
X100000D02*
D03*
X90000D02*
D03*
X140000D02*
D03*
Y18000D02*
D03*
Y28000D02*
D03*
X143000Y184500D02*
D03*
Y174500D02*
D03*
Y164500D02*
D03*
X113000Y154500D02*
D03*
X103000D02*
D03*
X93000D02*
D03*
Y164500D02*
D03*
X103000D02*
D03*
X113000D02*
D03*
X123000D02*
D03*
X133000D02*
D03*
X93000Y174500D02*
D03*
X103000D02*
D03*
X113000D02*
D03*
X123000D02*
D03*
X133000D02*
D03*
X93000Y184500D02*
D03*
X103000D02*
D03*
X113000D02*
D03*
X123000D02*
D03*
X133000D02*
D03*
X18202Y31736D02*
D03*
D46*
X26691Y172570D02*
D03*
Y175370D02*
D03*
X30191Y175270D02*
D03*
X30091Y172570D02*
D03*
X44980Y163189D02*
D03*
X19500Y177000D02*
D03*
D47*
X102657Y127878D02*
D03*
X99508Y127878D02*
D03*
X96358D02*
D03*
Y126378D02*
D03*
X99508D02*
D03*
X102657Y126378D02*
D03*
X93209Y127878D02*
D03*
X90059Y127976D02*
D03*
X86221Y127878D02*
D03*
X83071D02*
D03*
Y126378D02*
D03*
X86221D02*
D03*
X90059Y126476D02*
D03*
X93209Y126378D02*
D03*
X91600Y117225D02*
D03*
X85313Y117235D02*
D03*
Y118735D02*
D03*
X85301Y120187D02*
D03*
X101049Y117225D02*
D03*
Y118725D02*
D03*
X101037Y120177D02*
D03*
X73721Y97736D02*
D03*
X70768Y99213D02*
D03*
X71653Y97736D02*
D03*
X71850Y104337D02*
D03*
X75886Y97638D02*
D03*
X90025Y120975D02*
D03*
Y119475D02*
D03*
Y117975D02*
D03*
X93175Y120975D02*
D03*
Y119475D02*
D03*
Y117975D02*
D03*
X75886Y96161D02*
D03*
X69390Y95472D02*
D03*
X71260Y89862D02*
D03*
X71260Y86024D02*
D03*
X75886Y94784D02*
D03*
X86350Y87843D02*
D03*
X86375Y86360D02*
D03*
X87950Y85610D02*
D03*
Y87110D02*
D03*
Y88610D02*
D03*
X78740Y102854D02*
D03*
X80610D02*
D03*
X80250Y103971D02*
D03*
X91099Y88593D02*
D03*
Y87093D02*
D03*
Y85593D02*
D03*
X89524Y86343D02*
D03*
X100523Y85575D02*
D03*
Y87075D02*
D03*
Y88575D02*
D03*
X89499Y87825D02*
D03*
X92674Y89360D02*
D03*
X92649Y86325D02*
D03*
Y87825D02*
D03*
X95798D02*
D03*
Y86325D02*
D03*
X89524Y89360D02*
D03*
X94224Y85575D02*
D03*
Y87075D02*
D03*
Y88575D02*
D03*
X97373D02*
D03*
Y87075D02*
D03*
Y85575D02*
D03*
X86375Y89360D02*
D03*
X98948Y86325D02*
D03*
Y87825D02*
D03*
X97899Y120225D02*
D03*
Y118725D02*
D03*
Y117225D02*
D03*
X96324Y117975D02*
D03*
Y119475D02*
D03*
Y120975D02*
D03*
X94750Y117225D02*
D03*
Y118725D02*
D03*
Y120225D02*
D03*
X91600D02*
D03*
Y118725D02*
D03*
X88439Y120177D02*
D03*
X88450Y118725D02*
D03*
Y117225D02*
D03*
X86876Y117975D02*
D03*
Y119475D02*
D03*
Y120975D02*
D03*
X99474D02*
D03*
Y119475D02*
D03*
Y117975D02*
D03*
X100548Y98071D02*
D03*
Y99571D02*
D03*
Y101071D02*
D03*
X91099Y98071D02*
D03*
X87950Y101071D02*
D03*
Y99571D02*
D03*
Y98071D02*
D03*
X91099Y101071D02*
D03*
Y99571D02*
D03*
X92674Y97321D02*
D03*
Y98821D02*
D03*
Y100321D02*
D03*
X95824D02*
D03*
Y98821D02*
D03*
Y97321D02*
D03*
X94249Y98071D02*
D03*
Y99571D02*
D03*
Y101071D02*
D03*
X97398D02*
D03*
Y99571D02*
D03*
Y98071D02*
D03*
X98973Y97321D02*
D03*
Y98821D02*
D03*
Y100321D02*
D03*
X89524D02*
D03*
Y98821D02*
D03*
Y97321D02*
D03*
X95798Y89343D02*
D03*
X70669Y108858D02*
D03*
Y107579D02*
D03*
X98948Y89325D02*
D03*
M02*
