*
%FSLAX24Y24*%
%MOIN*%
%ADD10C,0.012000*%
%ADD11R,0.041370X0.041370*%
%ADD12R,0.112240X0.100430*%
%ADD13C,0.015000*%
%ADD14C,0.150000*%
%ADD15C,0.131100*%
%IPPOS*%
%LNsmb.gbx*%
%LPD*%
G75*
G54D10*
X000423Y000364D03*
X000561Y000541D03*
X000315Y000532D03*
G54D11*
X000423Y000423D03*
Y003967D03*
Y003258D03*
Y002549D03*
Y001841D03*
Y001132D03*
X001132Y000423D03*
X004301D03*
X001132Y003967D03*
X002175Y000423D03*
X002884D03*
X003593D03*
Y001014D03*
X002884D03*
X002175D03*
X004301D03*
Y003967D03*
X002175D03*
X002884D03*
X003593D03*
Y003376D03*
X002884D03*
X002175D03*
X004301D03*
Y002490D03*
X002884D03*
X003593D03*
Y001900D03*
X002884D03*
X002175D03*
X004301D03*
X002175Y002490D03*
G54D12*
X002530Y002195D03*
G54D13*
X000000Y000000D02*
X004724D01*
X000000D02*
Y004390D01*
X004724Y000000D02*
Y004390D01*
X000000D02*
X004724D01*
G54D10*
X000423Y004754D03*
X000561Y004931D03*
X000315Y004921D03*
G54D11*
X000423Y004813D03*
Y008356D03*
Y007648D03*
Y006939D03*
Y006230D03*
Y005522D03*
X001132Y004813D03*
X004301D03*
X001132Y008356D03*
X002175Y004813D03*
X002884D03*
X003593D03*
Y005404D03*
X002884D03*
X002175D03*
X004301D03*
Y008356D03*
X002175D03*
X002884D03*
X003593D03*
Y007766D03*
X002884D03*
X002175D03*
X004301D03*
Y006880D03*
X002884D03*
X003593D03*
Y006289D03*
X002884D03*
X002175D03*
X004301D03*
X002175Y006880D03*
G54D12*
X002530Y006585D03*
G54D13*
X000000Y004390D02*
X004724D01*
X000000D02*
Y008780D01*
X004724Y004390D02*
Y008780D01*
X000000D02*
X004724D01*
G54D10*
X000423Y009144D03*
X000561Y009321D03*
X000315Y009311D03*
G54D11*
X000423Y009203D03*
Y012746D03*
Y012038D03*
Y011329D03*
Y010620D03*
Y009912D03*
X001132Y009203D03*
X004301D03*
X001132Y012746D03*
X002175Y009203D03*
X002884D03*
X003593D03*
Y009793D03*
X002884D03*
X002175D03*
X004301D03*
Y012746D03*
X002175D03*
X002884D03*
X003593D03*
Y012156D03*
X002884D03*
X002175D03*
X004301D03*
Y011270D03*
X002884D03*
X003593D03*
Y010679D03*
X002884D03*
X002175D03*
X004301D03*
X002175Y011270D03*
G54D12*
X002530Y010974D03*
G54D13*
X000000Y008780D02*
X004724D01*
X000000D02*
Y013169D01*
X004724Y008780D02*
Y013169D01*
X000000D02*
X004724D01*
G54D10*
X000423Y013534D03*
X000561Y013711D03*
X000315Y013701D03*
G54D11*
X000423Y013593D03*
Y017136D03*
Y016427D03*
Y015719D03*
Y015010D03*
Y014301D03*
X001132Y013593D03*
X004301D03*
X001132Y017136D03*
X002175Y013593D03*
X002884D03*
X003593D03*
Y014183D03*
X002884D03*
X002175D03*
X004301D03*
Y017136D03*
X002175D03*
X002884D03*
X003593D03*
Y016545D03*
X002884D03*
X002175D03*
X004301D03*
Y015660D03*
X002884D03*
X003593D03*
Y015069D03*
X002884D03*
X002175D03*
X004301D03*
X002175Y015660D03*
G54D12*
X002530Y015364D03*
G54D13*
X000000Y013169D02*
X004724D01*
X000000D02*
Y017559D01*
X004724Y013169D02*
Y017559D01*
X000000D02*
X004724D01*
G54D10*
X000423Y017923D03*
X000561Y018101D03*
X000315Y018091D03*
G54D11*
X000423Y017983D03*
Y021526D03*
Y020817D03*
Y020108D03*
Y019400D03*
Y018691D03*
X001132Y017983D03*
X004301D03*
X001132Y021526D03*
X002175Y017983D03*
X002884D03*
X003593D03*
Y018573D03*
X002884D03*
X002175D03*
X004301D03*
Y021526D03*
X002175D03*
X002884D03*
X003593D03*
Y020935D03*
X002884D03*
X002175D03*
X004301D03*
Y020049D03*
X002884D03*
X003593D03*
Y019459D03*
X002884D03*
X002175D03*
X004301D03*
X002175Y020049D03*
G54D12*
X002530Y019754D03*
G54D13*
X000000Y017559D02*
X004724D01*
X000000D02*
Y021949D01*
X004724Y017559D02*
Y021949D01*
X000000D02*
X004724D01*
G54D10*
X005148Y000364D03*
X005285Y000541D03*
X005039Y000532D03*
G54D11*
X005148Y000423D03*
Y003967D03*
Y003258D03*
Y002549D03*
Y001841D03*
Y001132D03*
X005856Y000423D03*
X009026D03*
X005856Y003967D03*
X006900Y000423D03*
X007608D03*
X008317D03*
Y001014D03*
X007608D03*
X006900D03*
X009026D03*
Y003967D03*
X006900D03*
X007608D03*
X008317D03*
Y003376D03*
X007608D03*
X006900D03*
X009026D03*
Y002490D03*
X007608D03*
X008317D03*
Y001900D03*
X007608D03*
X006900D03*
X009026D03*
X006900Y002490D03*
G54D12*
X007254Y002195D03*
G54D13*
X004724Y000000D02*
X009449D01*
X004724D02*
Y004390D01*
X009449Y000000D02*
Y004390D01*
X004724D02*
X009449D01*
G54D10*
X005148Y004754D03*
X005285Y004931D03*
X005039Y004921D03*
G54D11*
X005148Y004813D03*
Y008356D03*
Y007648D03*
Y006939D03*
Y006230D03*
Y005522D03*
X005856Y004813D03*
X009026D03*
X005856Y008356D03*
X006900Y004813D03*
X007608D03*
X008317D03*
Y005404D03*
X007608D03*
X006900D03*
X009026D03*
Y008356D03*
X006900D03*
X007608D03*
X008317D03*
Y007766D03*
X007608D03*
X006900D03*
X009026D03*
Y006880D03*
X007608D03*
X008317D03*
Y006289D03*
X007608D03*
X006900D03*
X009026D03*
X006900Y006880D03*
G54D12*
X007254Y006585D03*
G54D13*
X004724Y004390D02*
X009449D01*
X004724D02*
Y008780D01*
X009449Y004390D02*
Y008780D01*
X004724D02*
X009449D01*
G54D10*
X005148Y009144D03*
X005285Y009321D03*
X005039Y009311D03*
G54D11*
X005148Y009203D03*
Y012746D03*
Y012038D03*
Y011329D03*
Y010620D03*
Y009912D03*
X005856Y009203D03*
X009026D03*
X005856Y012746D03*
X006900Y009203D03*
X007608D03*
X008317D03*
Y009793D03*
X007608D03*
X006900D03*
X009026D03*
Y012746D03*
X006900D03*
X007608D03*
X008317D03*
Y012156D03*
X007608D03*
X006900D03*
X009026D03*
Y011270D03*
X007608D03*
X008317D03*
Y010679D03*
X007608D03*
X006900D03*
X009026D03*
X006900Y011270D03*
G54D12*
X007254Y010974D03*
G54D13*
X004724Y008780D02*
X009449D01*
X004724D02*
Y013169D01*
X009449Y008780D02*
Y013169D01*
X004724D02*
X009449D01*
G54D10*
X005148Y013534D03*
X005285Y013711D03*
X005039Y013701D03*
G54D11*
X005148Y013593D03*
Y017136D03*
Y016427D03*
Y015719D03*
Y015010D03*
Y014301D03*
X005856Y013593D03*
X009026D03*
X005856Y017136D03*
X006900Y013593D03*
X007608D03*
X008317D03*
Y014183D03*
X007608D03*
X006900D03*
X009026D03*
Y017136D03*
X006900D03*
X007608D03*
X008317D03*
Y016545D03*
X007608D03*
X006900D03*
X009026D03*
Y015660D03*
X007608D03*
X008317D03*
Y015069D03*
X007608D03*
X006900D03*
X009026D03*
X006900Y015660D03*
G54D12*
X007254Y015364D03*
G54D13*
X004724Y013169D02*
X009449D01*
X004724D02*
Y017559D01*
X009449Y013169D02*
Y017559D01*
X004724D02*
X009449D01*
G54D10*
X005148Y017923D03*
X005285Y018101D03*
X005039Y018091D03*
G54D11*
X005148Y017983D03*
Y021526D03*
Y020817D03*
Y020108D03*
Y019400D03*
Y018691D03*
X005856Y017983D03*
X009026D03*
X005856Y021526D03*
X006900Y017983D03*
X007608D03*
X008317D03*
Y018573D03*
X007608D03*
X006900D03*
X009026D03*
Y021526D03*
X006900D03*
X007608D03*
X008317D03*
Y020935D03*
X007608D03*
X006900D03*
X009026D03*
Y020049D03*
X007608D03*
X008317D03*
Y019459D03*
X007608D03*
X006900D03*
X009026D03*
X006900Y020049D03*
G54D12*
X007254Y019754D03*
G54D13*
X004724Y017559D02*
X009449D01*
X004724D02*
Y021949D01*
X009449Y017559D02*
Y021949D01*
X004724D02*
X009449D01*
G54D10*
X009872Y000364D03*
X010010Y000541D03*
X009764Y000532D03*
G54D11*
X009872Y000423D03*
Y003967D03*
Y003258D03*
Y002549D03*
Y001841D03*
Y001132D03*
X010581Y000423D03*
X013750D03*
X010581Y003967D03*
X011624Y000423D03*
X012333D03*
X013041D03*
Y001014D03*
X012333D03*
X011624D03*
X013750D03*
Y003967D03*
X011624D03*
X012333D03*
X013041D03*
Y003376D03*
X012333D03*
X011624D03*
X013750D03*
Y002490D03*
X012333D03*
X013041D03*
Y001900D03*
X012333D03*
X011624D03*
X013750D03*
X011624Y002490D03*
G54D12*
X011978Y002195D03*
G54D13*
X009449Y000000D02*
X014173D01*
X009449D02*
Y004390D01*
X014173Y000000D02*
Y004390D01*
X009449D02*
X014173D01*
G54D10*
X009872Y004754D03*
X010010Y004931D03*
X009764Y004921D03*
G54D11*
X009872Y004813D03*
Y008356D03*
Y007648D03*
Y006939D03*
Y006230D03*
Y005522D03*
X010581Y004813D03*
X013750D03*
X010581Y008356D03*
X011624Y004813D03*
X012333D03*
X013041D03*
Y005404D03*
X012333D03*
X011624D03*
X013750D03*
Y008356D03*
X011624D03*
X012333D03*
X013041D03*
Y007766D03*
X012333D03*
X011624D03*
X013750D03*
Y006880D03*
X012333D03*
X013041D03*
Y006289D03*
X012333D03*
X011624D03*
X013750D03*
X011624Y006880D03*
G54D12*
X011978Y006585D03*
G54D13*
X009449Y004390D02*
X014173D01*
X009449D02*
Y008780D01*
X014173Y004390D02*
Y008780D01*
X009449D02*
X014173D01*
G54D10*
X009872Y009144D03*
X010010Y009321D03*
X009764Y009311D03*
G54D11*
X009872Y009203D03*
Y012746D03*
Y012038D03*
Y011329D03*
Y010620D03*
Y009912D03*
X010581Y009203D03*
X013750D03*
X010581Y012746D03*
X011624Y009203D03*
X012333D03*
X013041D03*
Y009793D03*
X012333D03*
X011624D03*
X013750D03*
Y012746D03*
X011624D03*
X012333D03*
X013041D03*
Y012156D03*
X012333D03*
X011624D03*
X013750D03*
Y011270D03*
X012333D03*
X013041D03*
Y010679D03*
X012333D03*
X011624D03*
X013750D03*
X011624Y011270D03*
G54D12*
X011978Y010974D03*
G54D13*
X009449Y008780D02*
X014173D01*
X009449D02*
Y013169D01*
X014173Y008780D02*
Y013169D01*
X009449D02*
X014173D01*
G54D10*
X009872Y013534D03*
X010010Y013711D03*
X009764Y013701D03*
G54D11*
X009872Y013593D03*
Y017136D03*
Y016427D03*
Y015719D03*
Y015010D03*
Y014301D03*
X010581Y013593D03*
X013750D03*
X010581Y017136D03*
X011624Y013593D03*
X012333D03*
X013041D03*
Y014183D03*
X012333D03*
X011624D03*
X013750D03*
Y017136D03*
X011624D03*
X012333D03*
X013041D03*
Y016545D03*
X012333D03*
X011624D03*
X013750D03*
Y015660D03*
X012333D03*
X013041D03*
Y015069D03*
X012333D03*
X011624D03*
X013750D03*
X011624Y015660D03*
G54D12*
X011978Y015364D03*
G54D13*
X009449Y013169D02*
X014173D01*
X009449D02*
Y017559D01*
X014173Y013169D02*
Y017559D01*
X009449D02*
X014173D01*
G54D10*
X009872Y017923D03*
X010010Y018101D03*
X009764Y018091D03*
G54D11*
X009872Y017983D03*
Y021526D03*
Y020817D03*
Y020108D03*
Y019400D03*
Y018691D03*
X010581Y017983D03*
X013750D03*
X010581Y021526D03*
X011624Y017983D03*
X012333D03*
X013041D03*
Y018573D03*
X012333D03*
X011624D03*
X013750D03*
Y021526D03*
X011624D03*
X012333D03*
X013041D03*
Y020935D03*
X012333D03*
X011624D03*
X013750D03*
Y020049D03*
X012333D03*
X013041D03*
Y019459D03*
X012333D03*
X011624D03*
X013750D03*
X011624Y020049D03*
G54D12*
X011978Y019754D03*
G54D13*
X009449Y017559D02*
X014173D01*
X009449D02*
Y021949D01*
X014173Y017559D02*
Y021949D01*
X009449D02*
X014173D01*
G54D10*
X014596Y000364D03*
X014734Y000541D03*
X014488Y000532D03*
G54D11*
X014596Y000423D03*
Y003967D03*
Y003258D03*
Y002549D03*
Y001841D03*
Y001132D03*
X015305Y000423D03*
X018474D03*
X015305Y003967D03*
X016348Y000423D03*
X017057D03*
X017766D03*
Y001014D03*
X017057D03*
X016348D03*
X018474D03*
Y003967D03*
X016348D03*
X017057D03*
X017766D03*
Y003376D03*
X017057D03*
X016348D03*
X018474D03*
Y002490D03*
X017057D03*
X017766D03*
Y001900D03*
X017057D03*
X016348D03*
X018474D03*
X016348Y002490D03*
G54D12*
X016703Y002195D03*
G54D13*
X014173Y000000D02*
X018898D01*
X014173D02*
Y004390D01*
X018898Y000000D02*
Y004390D01*
X014173D02*
X018898D01*
G54D10*
X014596Y004754D03*
X014734Y004931D03*
X014488Y004921D03*
G54D11*
X014596Y004813D03*
Y008356D03*
Y007648D03*
Y006939D03*
Y006230D03*
Y005522D03*
X015305Y004813D03*
X018474D03*
X015305Y008356D03*
X016348Y004813D03*
X017057D03*
X017766D03*
Y005404D03*
X017057D03*
X016348D03*
X018474D03*
Y008356D03*
X016348D03*
X017057D03*
X017766D03*
Y007766D03*
X017057D03*
X016348D03*
X018474D03*
Y006880D03*
X017057D03*
X017766D03*
Y006289D03*
X017057D03*
X016348D03*
X018474D03*
X016348Y006880D03*
G54D12*
X016703Y006585D03*
G54D13*
X014173Y004390D02*
X018898D01*
X014173D02*
Y008780D01*
X018898Y004390D02*
Y008780D01*
X014173D02*
X018898D01*
G54D10*
X014596Y009144D03*
X014734Y009321D03*
X014488Y009311D03*
G54D11*
X014596Y009203D03*
Y012746D03*
Y012038D03*
Y011329D03*
Y010620D03*
Y009912D03*
X015305Y009203D03*
X018474D03*
X015305Y012746D03*
X016348Y009203D03*
X017057D03*
X017766D03*
Y009793D03*
X017057D03*
X016348D03*
X018474D03*
Y012746D03*
X016348D03*
X017057D03*
X017766D03*
Y012156D03*
X017057D03*
X016348D03*
X018474D03*
Y011270D03*
X017057D03*
X017766D03*
Y010679D03*
X017057D03*
X016348D03*
X018474D03*
X016348Y011270D03*
G54D12*
X016703Y010974D03*
G54D13*
X014173Y008780D02*
X018898D01*
X014173D02*
Y013169D01*
X018898Y008780D02*
Y013169D01*
X014173D02*
X018898D01*
G54D10*
X014596Y013534D03*
X014734Y013711D03*
X014488Y013701D03*
G54D11*
X014596Y013593D03*
Y017136D03*
Y016427D03*
Y015719D03*
Y015010D03*
Y014301D03*
X015305Y013593D03*
X018474D03*
X015305Y017136D03*
X016348Y013593D03*
X017057D03*
X017766D03*
Y014183D03*
X017057D03*
X016348D03*
X018474D03*
Y017136D03*
X016348D03*
X017057D03*
X017766D03*
Y016545D03*
X017057D03*
X016348D03*
X018474D03*
Y015660D03*
X017057D03*
X017766D03*
Y015069D03*
X017057D03*
X016348D03*
X018474D03*
X016348Y015660D03*
G54D12*
X016703Y015364D03*
G54D13*
X014173Y013169D02*
X018898D01*
X014173D02*
Y017559D01*
X018898Y013169D02*
Y017559D01*
X014173D02*
X018898D01*
G54D10*
X014596Y017923D03*
X014734Y018101D03*
X014488Y018091D03*
G54D11*
X014596Y017983D03*
Y021526D03*
Y020817D03*
Y020108D03*
Y019400D03*
Y018691D03*
X015305Y017983D03*
X018474D03*
X015305Y021526D03*
X016348Y017983D03*
X017057D03*
X017766D03*
Y018573D03*
X017057D03*
X016348D03*
X018474D03*
Y021526D03*
X016348D03*
X017057D03*
X017766D03*
Y020935D03*
X017057D03*
X016348D03*
X018474D03*
Y020049D03*
X017057D03*
X017766D03*
Y019459D03*
X017057D03*
X016348D03*
X018474D03*
X016348Y020049D03*
G54D12*
X016703Y019754D03*
G54D13*
X014173Y017559D02*
X018898D01*
X014173D02*
Y021949D01*
X018898Y017559D02*
Y021949D01*
X014173D02*
X018898D01*
G54D10*
X019321Y000364D03*
X019459Y000541D03*
X019213Y000532D03*
G54D11*
X019321Y000423D03*
Y003967D03*
Y003258D03*
Y002549D03*
Y001841D03*
Y001132D03*
X020029Y000423D03*
X023199D03*
X020029Y003967D03*
X021073Y000423D03*
X021781D03*
X022490D03*
Y001014D03*
X021781D03*
X021073D03*
X023199D03*
Y003967D03*
X021073D03*
X021781D03*
X022490D03*
Y003376D03*
X021781D03*
X021073D03*
X023199D03*
Y002490D03*
X021781D03*
X022490D03*
Y001900D03*
X021781D03*
X021073D03*
X023199D03*
X021073Y002490D03*
G54D12*
X021427Y002195D03*
G54D13*
X018898Y000000D02*
X023622D01*
X018898D02*
Y004390D01*
X023622Y000000D02*
Y004390D01*
X018898D02*
X023622D01*
G54D10*
X019321Y004754D03*
X019459Y004931D03*
X019213Y004921D03*
G54D11*
X019321Y004813D03*
Y008356D03*
Y007648D03*
Y006939D03*
Y006230D03*
Y005522D03*
X020029Y004813D03*
X023199D03*
X020029Y008356D03*
X021073Y004813D03*
X021781D03*
X022490D03*
Y005404D03*
X021781D03*
X021073D03*
X023199D03*
Y008356D03*
X021073D03*
X021781D03*
X022490D03*
Y007766D03*
X021781D03*
X021073D03*
X023199D03*
Y006880D03*
X021781D03*
X022490D03*
Y006289D03*
X021781D03*
X021073D03*
X023199D03*
X021073Y006880D03*
G54D12*
X021427Y006585D03*
G54D13*
X018898Y004390D02*
X023622D01*
X018898D02*
Y008780D01*
X023622Y004390D02*
Y008780D01*
X018898D02*
X023622D01*
G54D10*
X019321Y009144D03*
X019459Y009321D03*
X019213Y009311D03*
G54D11*
X019321Y009203D03*
Y012746D03*
Y012038D03*
Y011329D03*
Y010620D03*
Y009912D03*
X020029Y009203D03*
X023199D03*
X020029Y012746D03*
X021073Y009203D03*
X021781D03*
X022490D03*
Y009793D03*
X021781D03*
X021073D03*
X023199D03*
Y012746D03*
X021073D03*
X021781D03*
X022490D03*
Y012156D03*
X021781D03*
X021073D03*
X023199D03*
Y011270D03*
X021781D03*
X022490D03*
Y010679D03*
X021781D03*
X021073D03*
X023199D03*
X021073Y011270D03*
G54D12*
X021427Y010974D03*
G54D13*
X018898Y008780D02*
X023622D01*
X018898D02*
Y013169D01*
X023622Y008780D02*
Y013169D01*
X018898D02*
X023622D01*
G54D10*
X019321Y013534D03*
X019459Y013711D03*
X019213Y013701D03*
G54D11*
X019321Y013593D03*
Y017136D03*
Y016427D03*
Y015719D03*
Y015010D03*
Y014301D03*
X020029Y013593D03*
X023199D03*
X020029Y017136D03*
X021073Y013593D03*
X021781D03*
X022490D03*
Y014183D03*
X021781D03*
X021073D03*
X023199D03*
Y017136D03*
X021073D03*
X021781D03*
X022490D03*
Y016545D03*
X021781D03*
X021073D03*
X023199D03*
Y015660D03*
X021781D03*
X022490D03*
Y015069D03*
X021781D03*
X021073D03*
X023199D03*
X021073Y015660D03*
G54D12*
X021427Y015364D03*
G54D13*
X018898Y013169D02*
X023622D01*
X018898D02*
Y017559D01*
X023622Y013169D02*
Y017559D01*
X018898D02*
X023622D01*
G54D10*
X019321Y017923D03*
X019459Y018101D03*
X019213Y018091D03*
G54D11*
X019321Y017983D03*
Y021526D03*
Y020817D03*
Y020108D03*
Y019400D03*
Y018691D03*
X020029Y017983D03*
X023199D03*
X020029Y021526D03*
X021073Y017983D03*
X021781D03*
X022490D03*
Y018573D03*
X021781D03*
X021073D03*
X023199D03*
Y021526D03*
X021073D03*
X021781D03*
X022490D03*
Y020935D03*
X021781D03*
X021073D03*
X023199D03*
Y020049D03*
X021781D03*
X022490D03*
Y019459D03*
X021781D03*
X021073D03*
X023199D03*
X021073Y020049D03*
G54D12*
X021427Y019754D03*
G54D13*
X018898Y017559D02*
X023622D01*
X018898D02*
Y021949D01*
X023622Y017559D02*
Y021949D01*
X018898D02*
X023622D01*
G54D14*
X-002500Y002500D03*
X026122D03*
X-002500Y019449D03*
G54D13*
X-005000Y026949D02*
X028622D01*
Y-005000D02*
X-005000D01*
Y026949D02*
Y-005000D01*
X028622Y026949D02*
Y-005000D01*
X000000D02*
Y026949D01*
X004724Y-005000D02*
Y026949D01*
X009449Y-005000D02*
Y026949D01*
X014173Y-005000D02*
Y026949D01*
X018898Y-005000D02*
Y026949D01*
X023622Y-005000D02*
Y026949D01*
X028622Y021949D02*
X-005000D01*
X028622Y017559D02*
X-005000D01*
X028622Y013169D02*
X-005000D01*
X028622Y008780D02*
X-005000D01*
X028622Y004390D02*
X-005000D01*
X028622Y000000D02*
X-005000D01*
G54D15*
X-002500Y-002500D03*
Y024449D03*
X026122D03*
Y-002500D03*
M02*
