*
%FSLAX24Y24*%
%MOIN*%
G04 A1 - rect7.09x27.56xr2.134 *
%AMA1spt*
22,1,0.002822,0.027560,-0.001411,-0.013780,0.0*
1,1,0.004268,-0.001411,-0.011646*
1,1,0.004268,-0.001411,0.011646*
20,1,0.004268,-0.001411,-0.011646,-0.001411,0.011646,0.0*
1,1,0.004268,0.001411,-0.011646*
1,1,0.004268,0.001411,0.011646*
20,1,0.004268,0.001411,-0.011646,0.001411,0.011646,0.0*
%
G04 A2 - rect7.01x22.05xr1.767 *
%AMA2spt*
22,1,0.003476,0.022050,-0.001738,-0.011025,0.0*
1,1,0.003533,-0.001738,-0.009258*
1,1,0.003533,-0.001738,0.009258*
20,1,0.003533,-0.001738,-0.009258,-0.001738,0.009258,0.0*
1,1,0.003533,0.001738,-0.009258*
1,1,0.003533,0.001738,0.009258*
20,1,0.003533,0.001738,-0.009258,0.001738,0.009258,0.0*
%
G04 A3 - rect7.01x53.62xr1.759 *
%AMA3spt*
22,1,0.003492,0.053620,-0.001746,-0.026810,0.0*
1,1,0.003518,-0.001746,-0.025051*
1,1,0.003518,-0.001746,0.025051*
20,1,0.003518,-0.001746,-0.025051,-0.001746,0.025051,0.0*
1,1,0.003518,0.001746,-0.025051*
1,1,0.003518,0.001746,0.025051*
20,1,0.003518,0.001746,-0.025051,0.001746,0.025051,0.0*
%
%ADD10R,0.039370X0.070870*%
%ADD11R,0.031500X0.031500*%
%ADD12R,0.050000X0.030000*%
%ADD13R,0.015750X0.021650*%
%ADD14R,0.019690X0.011810*%
%ADD15R,0.015750X0.023620*%
%ADD16C,0.008860*%
%ADD17R,0.023620X0.015750*%
%ADD18A1spt*%
%ADD19A2spt*%
%ADD20A3spt*%
%ADD21C,0.050000*%
%IPPOS*%
%LNspt.gbx*%
%LPD*%
G75*
G54D10*
X004193Y002431D03*
G54D11*
Y001722D03*
G54D12*
X003288Y003992D03*
Y003192D03*
X003987Y003992D03*
Y003192D03*
X002589Y003992D03*
Y003192D03*
G54D13*
X000979Y003100D03*
X000704D03*
Y003543D03*
X000979D03*
G54D14*
X001309Y003061D03*
Y002864D03*
Y002667D03*
X001604Y003061D03*
Y002864D03*
Y002667D03*
X001348Y004144D03*
Y003947D03*
Y003750D03*
X001644Y004144D03*
Y003947D03*
Y003750D03*
G54D15*
X000928Y002224D03*
X001282D03*
X000480Y000837D03*
X000834D03*
X000308Y002224D03*
X000662D03*
X001676Y000965D03*
X001322D03*
Y001280D03*
X001676D03*
Y001870D03*
X001322D03*
X001769Y003396D03*
X001415D03*
X000662Y002648D03*
X001017D03*
X000643Y004016D03*
X000997D03*
G54D16*
X000492Y001772D03*
Y001614D03*
X000807Y001299D03*
X000650D03*
X000492D03*
Y001457D03*
X000965Y001772D03*
Y001457D03*
Y001299D03*
Y001614D03*
X000807Y001772D03*
X000650D03*
G54D17*
X000325Y002788D03*
Y003143D03*
Y003859D03*
Y003505D03*
G54D18*
X002282Y001138D03*
X002439D03*
X002754D03*
X002597D03*
X003226D03*
X003384D03*
X003069D03*
X002911D03*
X003856D03*
X004014D03*
X003699D03*
X003541D03*
X004329D03*
X004171D03*
Y000614D03*
X004329D03*
X003541D03*
X003699D03*
X004014D03*
X003856D03*
X002911D03*
X003069D03*
X003384D03*
X003226D03*
X002597D03*
X002754D03*
X002439D03*
X002282D03*
X002124D03*
Y001138D03*
G54D19*
Y002304D03*
Y001988D03*
G54D20*
X002282Y002146D03*
X002597Y002145D03*
X002911D03*
X003226D03*
X003541D03*
X003384D03*
X003069D03*
X002754D03*
X002439D03*
G54D10*
X004193Y006821D03*
G54D11*
Y006112D03*
G54D12*
X003288Y008382D03*
Y007582D03*
X003987Y008382D03*
Y007582D03*
X002589Y008382D03*
Y007582D03*
G54D13*
X000979Y007490D03*
X000704D03*
Y007933D03*
X000979D03*
G54D14*
X001309Y007451D03*
Y007254D03*
Y007057D03*
X001604Y007451D03*
Y007254D03*
Y007057D03*
X001348Y008534D03*
Y008337D03*
Y008140D03*
X001644Y008534D03*
Y008337D03*
Y008140D03*
G54D15*
X000928Y006614D03*
X001282D03*
X000480Y005227D03*
X000834D03*
X000308Y006614D03*
X000662D03*
X001676Y005354D03*
X001322D03*
Y005669D03*
X001676D03*
Y006260D03*
X001322D03*
X001769Y007786D03*
X001415D03*
X000662Y007038D03*
X001017D03*
X000643Y008406D03*
X000997D03*
G54D16*
X000492Y006162D03*
Y006004D03*
X000807Y005689D03*
X000650D03*
X000492D03*
Y005847D03*
X000965Y006162D03*
Y005847D03*
Y005689D03*
Y006004D03*
X000807Y006162D03*
X000650D03*
G54D17*
X000325Y007178D03*
Y007532D03*
Y008249D03*
Y007895D03*
G54D18*
X002282Y005528D03*
X002439D03*
X002754D03*
X002597D03*
X003226D03*
X003384D03*
X003069D03*
X002911D03*
X003856D03*
X004014D03*
X003699D03*
X003541D03*
X004329D03*
X004171D03*
Y005004D03*
X004329D03*
X003541D03*
X003699D03*
X004014D03*
X003856D03*
X002911D03*
X003069D03*
X003384D03*
X003226D03*
X002597D03*
X002754D03*
X002439D03*
X002282D03*
X002124D03*
Y005528D03*
G54D19*
Y006693D03*
Y006378D03*
G54D20*
X002282Y006536D03*
X002597Y006535D03*
X002911D03*
X003226D03*
X003541D03*
X003384D03*
X003069D03*
X002754D03*
X002439D03*
G54D10*
X004193Y011211D03*
G54D11*
Y010502D03*
G54D12*
X003288Y012772D03*
Y011972D03*
X003987Y012772D03*
Y011972D03*
X002589Y012772D03*
Y011972D03*
G54D13*
X000979Y011880D03*
X000704D03*
Y012323D03*
X000979D03*
G54D14*
X001309Y011841D03*
Y011644D03*
Y011447D03*
X001604Y011841D03*
Y011644D03*
Y011447D03*
X001348Y012923D03*
Y012727D03*
Y012530D03*
X001644Y012923D03*
Y012727D03*
Y012530D03*
G54D15*
X000928Y011004D03*
X001282D03*
X000480Y009616D03*
X000834D03*
X000308Y011004D03*
X000662D03*
X001676Y009744D03*
X001322D03*
Y010059D03*
X001676D03*
Y010650D03*
X001322D03*
X001769Y012175D03*
X001415D03*
X000662Y011427D03*
X001017D03*
X000643Y012795D03*
X000997D03*
G54D16*
X000492Y010551D03*
Y010394D03*
X000807Y010079D03*
X000650D03*
X000492D03*
Y010236D03*
X000965Y010551D03*
Y010236D03*
Y010079D03*
Y010394D03*
X000807Y010551D03*
X000650D03*
G54D17*
X000325Y011568D03*
Y011922D03*
Y012639D03*
Y012285D03*
G54D18*
X002282Y009917D03*
X002439D03*
X002754D03*
X002597D03*
X003226D03*
X003384D03*
X003069D03*
X002911D03*
X003856D03*
X004014D03*
X003699D03*
X003541D03*
X004329D03*
X004171D03*
Y009394D03*
X004329D03*
X003541D03*
X003699D03*
X004014D03*
X003856D03*
X002911D03*
X003069D03*
X003384D03*
X003226D03*
X002597D03*
X002754D03*
X002439D03*
X002282D03*
X002124D03*
Y009917D03*
G54D19*
Y011083D03*
Y010767D03*
G54D20*
X002282Y010925D03*
X002597Y010925D03*
X002911D03*
X003226D03*
X003541D03*
X003384D03*
X003069D03*
X002754D03*
X002439D03*
G54D10*
X004193Y015601D03*
G54D11*
Y014892D03*
G54D12*
X003288Y017161D03*
Y016361D03*
X003987Y017161D03*
Y016361D03*
X002589Y017161D03*
Y016361D03*
G54D13*
X000979Y016270D03*
X000704D03*
Y016713D03*
X000979D03*
G54D14*
X001309Y016231D03*
Y016034D03*
Y015837D03*
X001604Y016231D03*
Y016034D03*
Y015837D03*
X001348Y017313D03*
Y017116D03*
Y016919D03*
X001644Y017313D03*
Y017116D03*
Y016919D03*
G54D15*
X000928Y015394D03*
X001282D03*
X000480Y014006D03*
X000834D03*
X000308Y015394D03*
X000662D03*
X001676Y014134D03*
X001322D03*
Y014449D03*
X001676D03*
Y015040D03*
X001322D03*
X001769Y016565D03*
X001415D03*
X000662Y015817D03*
X001017D03*
X000643Y017185D03*
X000997D03*
G54D16*
X000492Y014941D03*
Y014784D03*
X000807Y014469D03*
X000650D03*
X000492D03*
Y014626D03*
X000965Y014941D03*
Y014626D03*
Y014469D03*
Y014784D03*
X000807Y014941D03*
X000650D03*
G54D17*
X000325Y015958D03*
Y016312D03*
Y017029D03*
Y016674D03*
G54D18*
X002282Y014307D03*
X002439D03*
X002754D03*
X002597D03*
X003226D03*
X003384D03*
X003069D03*
X002911D03*
X003856D03*
X004014D03*
X003699D03*
X003541D03*
X004329D03*
X004171D03*
Y013784D03*
X004329D03*
X003541D03*
X003699D03*
X004014D03*
X003856D03*
X002911D03*
X003069D03*
X003384D03*
X003226D03*
X002597D03*
X002754D03*
X002439D03*
X002282D03*
X002124D03*
Y014307D03*
G54D19*
Y015473D03*
Y015157D03*
G54D20*
X002282Y015315D03*
X002597Y015315D03*
X002911D03*
X003226D03*
X003541D03*
X003384D03*
X003069D03*
X002754D03*
X002439D03*
G54D10*
X004193Y019990D03*
G54D11*
Y019282D03*
G54D12*
X003288Y021551D03*
Y020751D03*
X003987Y021551D03*
Y020751D03*
X002589Y021551D03*
Y020751D03*
G54D13*
X000979Y020660D03*
X000704D03*
Y021103D03*
X000979D03*
G54D14*
X001309Y020620D03*
Y020423D03*
Y020227D03*
X001604Y020620D03*
Y020423D03*
Y020227D03*
X001348Y021703D03*
Y021506D03*
Y021309D03*
X001644Y021703D03*
Y021506D03*
Y021309D03*
G54D15*
X000928Y019784D03*
X001282D03*
X000480Y018396D03*
X000834D03*
X000308Y019784D03*
X000662D03*
X001676Y018524D03*
X001322D03*
Y018839D03*
X001676D03*
Y019429D03*
X001322D03*
X001769Y020955D03*
X001415D03*
X000662Y020207D03*
X001017D03*
X000643Y021575D03*
X000997D03*
G54D16*
X000492Y019331D03*
Y019173D03*
X000807Y018858D03*
X000650D03*
X000492D03*
Y019016D03*
X000965Y019331D03*
Y019016D03*
Y018858D03*
Y019173D03*
X000807Y019331D03*
X000650D03*
G54D17*
X000325Y020348D03*
Y020702D03*
Y021419D03*
Y021064D03*
G54D18*
X002282Y018697D03*
X002439D03*
X002754D03*
X002597D03*
X003226D03*
X003384D03*
X003069D03*
X002911D03*
X003856D03*
X004014D03*
X003699D03*
X003541D03*
X004329D03*
X004171D03*
Y018173D03*
X004329D03*
X003541D03*
X003699D03*
X004014D03*
X003856D03*
X002911D03*
X003069D03*
X003384D03*
X003226D03*
X002597D03*
X002754D03*
X002439D03*
X002282D03*
X002124D03*
Y018697D03*
G54D19*
Y019863D03*
Y019547D03*
G54D20*
X002282Y019705D03*
X002597Y019705D03*
X002911D03*
X003226D03*
X003541D03*
X003384D03*
X003069D03*
X002754D03*
X002439D03*
G54D10*
X008917Y002431D03*
G54D11*
Y001722D03*
G54D12*
X008012Y003992D03*
Y003192D03*
X008711Y003992D03*
Y003192D03*
X007313Y003992D03*
Y003192D03*
G54D13*
X005704Y003100D03*
X005428D03*
Y003543D03*
X005704D03*
G54D14*
X006033Y003061D03*
Y002864D03*
Y002667D03*
X006329Y003061D03*
Y002864D03*
Y002667D03*
X006073Y004144D03*
Y003947D03*
Y003750D03*
X006368Y004144D03*
Y003947D03*
Y003750D03*
G54D15*
X005652Y002224D03*
X006007D03*
X005204Y000837D03*
X005558D03*
X005032Y002224D03*
X005387D03*
X006400Y000965D03*
X006046D03*
Y001280D03*
X006400D03*
Y001870D03*
X006046D03*
X006493Y003396D03*
X006139D03*
X005387Y002648D03*
X005741D03*
X005367Y004016D03*
X005721D03*
G54D16*
X005217Y001772D03*
Y001614D03*
X005531Y001299D03*
X005374D03*
X005217D03*
Y001457D03*
X005689Y001772D03*
Y001457D03*
Y001299D03*
Y001614D03*
X005531Y001772D03*
X005374D03*
G54D17*
X005049Y002788D03*
Y003143D03*
Y003859D03*
Y003505D03*
G54D18*
X007006Y001138D03*
X007163D03*
X007478D03*
X007321D03*
X007951D03*
X008108D03*
X007793D03*
X007636D03*
X008581D03*
X008738D03*
X008423D03*
X008266D03*
X009053D03*
X008896D03*
Y000614D03*
X009053D03*
X008266D03*
X008423D03*
X008738D03*
X008581D03*
X007636D03*
X007793D03*
X008108D03*
X007951D03*
X007321D03*
X007478D03*
X007163D03*
X007006D03*
X006848D03*
Y001138D03*
G54D19*
Y002304D03*
Y001988D03*
G54D20*
X007006Y002146D03*
X007321Y002145D03*
X007636D03*
X007951D03*
X008266D03*
X008108D03*
X007793D03*
X007478D03*
X007163D03*
G54D10*
X008917Y006821D03*
G54D11*
Y006112D03*
G54D12*
X008012Y008382D03*
Y007582D03*
X008711Y008382D03*
Y007582D03*
X007313Y008382D03*
Y007582D03*
G54D13*
X005704Y007490D03*
X005428D03*
Y007933D03*
X005704D03*
G54D14*
X006033Y007451D03*
Y007254D03*
Y007057D03*
X006329Y007451D03*
Y007254D03*
Y007057D03*
X006073Y008534D03*
Y008337D03*
Y008140D03*
X006368Y008534D03*
Y008337D03*
Y008140D03*
G54D15*
X005652Y006614D03*
X006007D03*
X005204Y005227D03*
X005558D03*
X005032Y006614D03*
X005387D03*
X006400Y005354D03*
X006046D03*
Y005669D03*
X006400D03*
Y006260D03*
X006046D03*
X006493Y007786D03*
X006139D03*
X005387Y007038D03*
X005741D03*
X005367Y008406D03*
X005721D03*
G54D16*
X005217Y006162D03*
Y006004D03*
X005531Y005689D03*
X005374D03*
X005217D03*
Y005847D03*
X005689Y006162D03*
Y005847D03*
Y005689D03*
Y006004D03*
X005531Y006162D03*
X005374D03*
G54D17*
X005049Y007178D03*
Y007532D03*
Y008249D03*
Y007895D03*
G54D18*
X007006Y005528D03*
X007163D03*
X007478D03*
X007321D03*
X007951D03*
X008108D03*
X007793D03*
X007636D03*
X008581D03*
X008738D03*
X008423D03*
X008266D03*
X009053D03*
X008896D03*
Y005004D03*
X009053D03*
X008266D03*
X008423D03*
X008738D03*
X008581D03*
X007636D03*
X007793D03*
X008108D03*
X007951D03*
X007321D03*
X007478D03*
X007163D03*
X007006D03*
X006848D03*
Y005528D03*
G54D19*
Y006693D03*
Y006378D03*
G54D20*
X007006Y006536D03*
X007321Y006535D03*
X007636D03*
X007951D03*
X008266D03*
X008108D03*
X007793D03*
X007478D03*
X007163D03*
G54D10*
X008917Y011211D03*
G54D11*
Y010502D03*
G54D12*
X008012Y012772D03*
Y011972D03*
X008711Y012772D03*
Y011972D03*
X007313Y012772D03*
Y011972D03*
G54D13*
X005704Y011880D03*
X005428D03*
Y012323D03*
X005704D03*
G54D14*
X006033Y011841D03*
Y011644D03*
Y011447D03*
X006329Y011841D03*
Y011644D03*
Y011447D03*
X006073Y012923D03*
Y012727D03*
Y012530D03*
X006368Y012923D03*
Y012727D03*
Y012530D03*
G54D15*
X005652Y011004D03*
X006007D03*
X005204Y009616D03*
X005558D03*
X005032Y011004D03*
X005387D03*
X006400Y009744D03*
X006046D03*
Y010059D03*
X006400D03*
Y010650D03*
X006046D03*
X006493Y012175D03*
X006139D03*
X005387Y011427D03*
X005741D03*
X005367Y012795D03*
X005721D03*
G54D16*
X005217Y010551D03*
Y010394D03*
X005531Y010079D03*
X005374D03*
X005217D03*
Y010236D03*
X005689Y010551D03*
Y010236D03*
Y010079D03*
Y010394D03*
X005531Y010551D03*
X005374D03*
G54D17*
X005049Y011568D03*
Y011922D03*
Y012639D03*
Y012285D03*
G54D18*
X007006Y009917D03*
X007163D03*
X007478D03*
X007321D03*
X007951D03*
X008108D03*
X007793D03*
X007636D03*
X008581D03*
X008738D03*
X008423D03*
X008266D03*
X009053D03*
X008896D03*
Y009394D03*
X009053D03*
X008266D03*
X008423D03*
X008738D03*
X008581D03*
X007636D03*
X007793D03*
X008108D03*
X007951D03*
X007321D03*
X007478D03*
X007163D03*
X007006D03*
X006848D03*
Y009917D03*
G54D19*
Y011083D03*
Y010767D03*
G54D20*
X007006Y010925D03*
X007321Y010925D03*
X007636D03*
X007951D03*
X008266D03*
X008108D03*
X007793D03*
X007478D03*
X007163D03*
G54D10*
X008917Y015601D03*
G54D11*
Y014892D03*
G54D12*
X008012Y017161D03*
Y016361D03*
X008711Y017161D03*
Y016361D03*
X007313Y017161D03*
Y016361D03*
G54D13*
X005704Y016270D03*
X005428D03*
Y016713D03*
X005704D03*
G54D14*
X006033Y016231D03*
Y016034D03*
Y015837D03*
X006329Y016231D03*
Y016034D03*
Y015837D03*
X006073Y017313D03*
Y017116D03*
Y016919D03*
X006368Y017313D03*
Y017116D03*
Y016919D03*
G54D15*
X005652Y015394D03*
X006007D03*
X005204Y014006D03*
X005558D03*
X005032Y015394D03*
X005387D03*
X006400Y014134D03*
X006046D03*
Y014449D03*
X006400D03*
Y015040D03*
X006046D03*
X006493Y016565D03*
X006139D03*
X005387Y015817D03*
X005741D03*
X005367Y017185D03*
X005721D03*
G54D16*
X005217Y014941D03*
Y014784D03*
X005531Y014469D03*
X005374D03*
X005217D03*
Y014626D03*
X005689Y014941D03*
Y014626D03*
Y014469D03*
Y014784D03*
X005531Y014941D03*
X005374D03*
G54D17*
X005049Y015958D03*
Y016312D03*
Y017029D03*
Y016674D03*
G54D18*
X007006Y014307D03*
X007163D03*
X007478D03*
X007321D03*
X007951D03*
X008108D03*
X007793D03*
X007636D03*
X008581D03*
X008738D03*
X008423D03*
X008266D03*
X009053D03*
X008896D03*
Y013784D03*
X009053D03*
X008266D03*
X008423D03*
X008738D03*
X008581D03*
X007636D03*
X007793D03*
X008108D03*
X007951D03*
X007321D03*
X007478D03*
X007163D03*
X007006D03*
X006848D03*
Y014307D03*
G54D19*
Y015473D03*
Y015157D03*
G54D20*
X007006Y015315D03*
X007321Y015315D03*
X007636D03*
X007951D03*
X008266D03*
X008108D03*
X007793D03*
X007478D03*
X007163D03*
G54D10*
X008917Y019990D03*
G54D11*
Y019282D03*
G54D12*
X008012Y021551D03*
Y020751D03*
X008711Y021551D03*
Y020751D03*
X007313Y021551D03*
Y020751D03*
G54D13*
X005704Y020660D03*
X005428D03*
Y021103D03*
X005704D03*
G54D14*
X006033Y020620D03*
Y020423D03*
Y020227D03*
X006329Y020620D03*
Y020423D03*
Y020227D03*
X006073Y021703D03*
Y021506D03*
Y021309D03*
X006368Y021703D03*
Y021506D03*
Y021309D03*
G54D15*
X005652Y019784D03*
X006007D03*
X005204Y018396D03*
X005558D03*
X005032Y019784D03*
X005387D03*
X006400Y018524D03*
X006046D03*
Y018839D03*
X006400D03*
Y019429D03*
X006046D03*
X006493Y020955D03*
X006139D03*
X005387Y020207D03*
X005741D03*
X005367Y021575D03*
X005721D03*
G54D16*
X005217Y019331D03*
Y019173D03*
X005531Y018858D03*
X005374D03*
X005217D03*
Y019016D03*
X005689Y019331D03*
Y019016D03*
Y018858D03*
Y019173D03*
X005531Y019331D03*
X005374D03*
G54D17*
X005049Y020348D03*
Y020702D03*
Y021419D03*
Y021064D03*
G54D18*
X007006Y018697D03*
X007163D03*
X007478D03*
X007321D03*
X007951D03*
X008108D03*
X007793D03*
X007636D03*
X008581D03*
X008738D03*
X008423D03*
X008266D03*
X009053D03*
X008896D03*
Y018173D03*
X009053D03*
X008266D03*
X008423D03*
X008738D03*
X008581D03*
X007636D03*
X007793D03*
X008108D03*
X007951D03*
X007321D03*
X007478D03*
X007163D03*
X007006D03*
X006848D03*
Y018697D03*
G54D19*
Y019863D03*
Y019547D03*
G54D20*
X007006Y019705D03*
X007321Y019705D03*
X007636D03*
X007951D03*
X008266D03*
X008108D03*
X007793D03*
X007478D03*
X007163D03*
G54D10*
X013642Y002431D03*
G54D11*
Y001722D03*
G54D12*
X012737Y003992D03*
Y003192D03*
X013435Y003992D03*
Y003192D03*
X012038Y003992D03*
Y003192D03*
G54D13*
X010428Y003100D03*
X010153D03*
Y003543D03*
X010428D03*
G54D14*
X010758Y003061D03*
Y002864D03*
Y002667D03*
X011053Y003061D03*
Y002864D03*
Y002667D03*
X010797Y004144D03*
Y003947D03*
Y003750D03*
X011092Y004144D03*
Y003947D03*
Y003750D03*
G54D15*
X010377Y002224D03*
X010731D03*
X009928Y000837D03*
X010283D03*
X009757Y002224D03*
X010111D03*
X011125Y000965D03*
X010771D03*
Y001280D03*
X011125D03*
Y001870D03*
X010771D03*
X011218Y003396D03*
X010863D03*
X010111Y002648D03*
X010465D03*
X010091Y004016D03*
X010446D03*
G54D16*
X009941Y001772D03*
Y001614D03*
X010256Y001299D03*
X010098D03*
X009941D03*
Y001457D03*
X010413Y001772D03*
Y001457D03*
Y001299D03*
Y001614D03*
X010256Y001772D03*
X010098D03*
G54D17*
X009774Y002788D03*
Y003143D03*
Y003859D03*
Y003505D03*
G54D18*
X011730Y001138D03*
X011888D03*
X012203D03*
X012045D03*
X012675D03*
X012833D03*
X012518D03*
X012360D03*
X013305D03*
X013463D03*
X013148D03*
X012990D03*
X013778D03*
X013620D03*
Y000614D03*
X013778D03*
X012990D03*
X013148D03*
X013463D03*
X013305D03*
X012360D03*
X012518D03*
X012833D03*
X012675D03*
X012045D03*
X012203D03*
X011888D03*
X011730D03*
X011573D03*
Y001138D03*
G54D19*
Y002304D03*
Y001988D03*
G54D20*
X011730Y002146D03*
X012045Y002145D03*
X012360D03*
X012675D03*
X012990D03*
X012833D03*
X012518D03*
X012203D03*
X011888D03*
G54D10*
X013642Y006821D03*
G54D11*
Y006112D03*
G54D12*
X012737Y008382D03*
Y007582D03*
X013435Y008382D03*
Y007582D03*
X012038Y008382D03*
Y007582D03*
G54D13*
X010428Y007490D03*
X010153D03*
Y007933D03*
X010428D03*
G54D14*
X010758Y007451D03*
Y007254D03*
Y007057D03*
X011053Y007451D03*
Y007254D03*
Y007057D03*
X010797Y008534D03*
Y008337D03*
Y008140D03*
X011092Y008534D03*
Y008337D03*
Y008140D03*
G54D15*
X010377Y006614D03*
X010731D03*
X009928Y005227D03*
X010283D03*
X009757Y006614D03*
X010111D03*
X011125Y005354D03*
X010771D03*
Y005669D03*
X011125D03*
Y006260D03*
X010771D03*
X011218Y007786D03*
X010863D03*
X010111Y007038D03*
X010465D03*
X010091Y008406D03*
X010446D03*
G54D16*
X009941Y006162D03*
Y006004D03*
X010256Y005689D03*
X010098D03*
X009941D03*
Y005847D03*
X010413Y006162D03*
Y005847D03*
Y005689D03*
Y006004D03*
X010256Y006162D03*
X010098D03*
G54D17*
X009774Y007178D03*
Y007532D03*
Y008249D03*
Y007895D03*
G54D18*
X011730Y005528D03*
X011888D03*
X012203D03*
X012045D03*
X012675D03*
X012833D03*
X012518D03*
X012360D03*
X013305D03*
X013463D03*
X013148D03*
X012990D03*
X013778D03*
X013620D03*
Y005004D03*
X013778D03*
X012990D03*
X013148D03*
X013463D03*
X013305D03*
X012360D03*
X012518D03*
X012833D03*
X012675D03*
X012045D03*
X012203D03*
X011888D03*
X011730D03*
X011573D03*
Y005528D03*
G54D19*
Y006693D03*
Y006378D03*
G54D20*
X011730Y006536D03*
X012045Y006535D03*
X012360D03*
X012675D03*
X012990D03*
X012833D03*
X012518D03*
X012203D03*
X011888D03*
G54D10*
X013642Y011211D03*
G54D11*
Y010502D03*
G54D12*
X012737Y012772D03*
Y011972D03*
X013435Y012772D03*
Y011972D03*
X012038Y012772D03*
Y011972D03*
G54D13*
X010428Y011880D03*
X010153D03*
Y012323D03*
X010428D03*
G54D14*
X010758Y011841D03*
Y011644D03*
Y011447D03*
X011053Y011841D03*
Y011644D03*
Y011447D03*
X010797Y012923D03*
Y012727D03*
Y012530D03*
X011092Y012923D03*
Y012727D03*
Y012530D03*
G54D15*
X010377Y011004D03*
X010731D03*
X009928Y009616D03*
X010283D03*
X009757Y011004D03*
X010111D03*
X011125Y009744D03*
X010771D03*
Y010059D03*
X011125D03*
Y010650D03*
X010771D03*
X011218Y012175D03*
X010863D03*
X010111Y011427D03*
X010465D03*
X010091Y012795D03*
X010446D03*
G54D16*
X009941Y010551D03*
Y010394D03*
X010256Y010079D03*
X010098D03*
X009941D03*
Y010236D03*
X010413Y010551D03*
Y010236D03*
Y010079D03*
Y010394D03*
X010256Y010551D03*
X010098D03*
G54D17*
X009774Y011568D03*
Y011922D03*
Y012639D03*
Y012285D03*
G54D18*
X011730Y009917D03*
X011888D03*
X012203D03*
X012045D03*
X012675D03*
X012833D03*
X012518D03*
X012360D03*
X013305D03*
X013463D03*
X013148D03*
X012990D03*
X013778D03*
X013620D03*
Y009394D03*
X013778D03*
X012990D03*
X013148D03*
X013463D03*
X013305D03*
X012360D03*
X012518D03*
X012833D03*
X012675D03*
X012045D03*
X012203D03*
X011888D03*
X011730D03*
X011573D03*
Y009917D03*
G54D19*
Y011083D03*
Y010767D03*
G54D20*
X011730Y010925D03*
X012045Y010925D03*
X012360D03*
X012675D03*
X012990D03*
X012833D03*
X012518D03*
X012203D03*
X011888D03*
G54D10*
X013642Y015601D03*
G54D11*
Y014892D03*
G54D12*
X012737Y017161D03*
Y016361D03*
X013435Y017161D03*
Y016361D03*
X012038Y017161D03*
Y016361D03*
G54D13*
X010428Y016270D03*
X010153D03*
Y016713D03*
X010428D03*
G54D14*
X010758Y016231D03*
Y016034D03*
Y015837D03*
X011053Y016231D03*
Y016034D03*
Y015837D03*
X010797Y017313D03*
Y017116D03*
Y016919D03*
X011092Y017313D03*
Y017116D03*
Y016919D03*
G54D15*
X010377Y015394D03*
X010731D03*
X009928Y014006D03*
X010283D03*
X009757Y015394D03*
X010111D03*
X011125Y014134D03*
X010771D03*
Y014449D03*
X011125D03*
Y015040D03*
X010771D03*
X011218Y016565D03*
X010863D03*
X010111Y015817D03*
X010465D03*
X010091Y017185D03*
X010446D03*
G54D16*
X009941Y014941D03*
Y014784D03*
X010256Y014469D03*
X010098D03*
X009941D03*
Y014626D03*
X010413Y014941D03*
Y014626D03*
Y014469D03*
Y014784D03*
X010256Y014941D03*
X010098D03*
G54D17*
X009774Y015958D03*
Y016312D03*
Y017029D03*
Y016674D03*
G54D18*
X011730Y014307D03*
X011888D03*
X012203D03*
X012045D03*
X012675D03*
X012833D03*
X012518D03*
X012360D03*
X013305D03*
X013463D03*
X013148D03*
X012990D03*
X013778D03*
X013620D03*
Y013784D03*
X013778D03*
X012990D03*
X013148D03*
X013463D03*
X013305D03*
X012360D03*
X012518D03*
X012833D03*
X012675D03*
X012045D03*
X012203D03*
X011888D03*
X011730D03*
X011573D03*
Y014307D03*
G54D19*
Y015473D03*
Y015157D03*
G54D20*
X011730Y015315D03*
X012045Y015315D03*
X012360D03*
X012675D03*
X012990D03*
X012833D03*
X012518D03*
X012203D03*
X011888D03*
G54D10*
X013642Y019990D03*
G54D11*
Y019282D03*
G54D12*
X012737Y021551D03*
Y020751D03*
X013435Y021551D03*
Y020751D03*
X012038Y021551D03*
Y020751D03*
G54D13*
X010428Y020660D03*
X010153D03*
Y021103D03*
X010428D03*
G54D14*
X010758Y020620D03*
Y020423D03*
Y020227D03*
X011053Y020620D03*
Y020423D03*
Y020227D03*
X010797Y021703D03*
Y021506D03*
Y021309D03*
X011092Y021703D03*
Y021506D03*
Y021309D03*
G54D15*
X010377Y019784D03*
X010731D03*
X009928Y018396D03*
X010283D03*
X009757Y019784D03*
X010111D03*
X011125Y018524D03*
X010771D03*
Y018839D03*
X011125D03*
Y019429D03*
X010771D03*
X011218Y020955D03*
X010863D03*
X010111Y020207D03*
X010465D03*
X010091Y021575D03*
X010446D03*
G54D16*
X009941Y019331D03*
Y019173D03*
X010256Y018858D03*
X010098D03*
X009941D03*
Y019016D03*
X010413Y019331D03*
Y019016D03*
Y018858D03*
Y019173D03*
X010256Y019331D03*
X010098D03*
G54D17*
X009774Y020348D03*
Y020702D03*
Y021419D03*
Y021064D03*
G54D18*
X011730Y018697D03*
X011888D03*
X012203D03*
X012045D03*
X012675D03*
X012833D03*
X012518D03*
X012360D03*
X013305D03*
X013463D03*
X013148D03*
X012990D03*
X013778D03*
X013620D03*
Y018173D03*
X013778D03*
X012990D03*
X013148D03*
X013463D03*
X013305D03*
X012360D03*
X012518D03*
X012833D03*
X012675D03*
X012045D03*
X012203D03*
X011888D03*
X011730D03*
X011573D03*
Y018697D03*
G54D19*
Y019863D03*
Y019547D03*
G54D20*
X011730Y019705D03*
X012045Y019705D03*
X012360D03*
X012675D03*
X012990D03*
X012833D03*
X012518D03*
X012203D03*
X011888D03*
G54D10*
X018366Y002431D03*
G54D11*
Y001722D03*
G54D12*
X017461Y003992D03*
Y003192D03*
X018160Y003992D03*
Y003192D03*
X016762Y003992D03*
Y003192D03*
G54D13*
X015153Y003100D03*
X014877D03*
Y003543D03*
X015153D03*
G54D14*
X015482Y003061D03*
Y002864D03*
Y002667D03*
X015778Y003061D03*
Y002864D03*
Y002667D03*
X015522Y004144D03*
Y003947D03*
Y003750D03*
X015817Y004144D03*
Y003947D03*
Y003750D03*
G54D15*
X015101Y002224D03*
X015456D03*
X014653Y000837D03*
X015007D03*
X014481Y002224D03*
X014835D03*
X015849Y000965D03*
X015495D03*
Y001280D03*
X015849D03*
Y001870D03*
X015495D03*
X015942Y003396D03*
X015588D03*
X014835Y002648D03*
X015190D03*
X014816Y004016D03*
X015170D03*
G54D16*
X014665Y001772D03*
Y001614D03*
X014980Y001299D03*
X014823D03*
X014665D03*
Y001457D03*
X015138Y001772D03*
Y001457D03*
Y001299D03*
Y001614D03*
X014980Y001772D03*
X014823D03*
G54D17*
X014498Y002788D03*
Y003143D03*
Y003859D03*
Y003505D03*
G54D18*
X016455Y001138D03*
X016612D03*
X016927D03*
X016770D03*
X017400D03*
X017557D03*
X017242D03*
X017085D03*
X018029D03*
X018187D03*
X017872D03*
X017715D03*
X018502D03*
X018344D03*
Y000614D03*
X018502D03*
X017715D03*
X017872D03*
X018187D03*
X018029D03*
X017085D03*
X017242D03*
X017557D03*
X017400D03*
X016770D03*
X016927D03*
X016612D03*
X016455D03*
X016297D03*
Y001138D03*
G54D19*
Y002304D03*
Y001988D03*
G54D20*
X016455Y002146D03*
X016770Y002145D03*
X017085D03*
X017400D03*
X017715D03*
X017557D03*
X017242D03*
X016927D03*
X016612D03*
G54D10*
X018366Y006821D03*
G54D11*
Y006112D03*
G54D12*
X017461Y008382D03*
Y007582D03*
X018160Y008382D03*
Y007582D03*
X016762Y008382D03*
Y007582D03*
G54D13*
X015153Y007490D03*
X014877D03*
Y007933D03*
X015153D03*
G54D14*
X015482Y007451D03*
Y007254D03*
Y007057D03*
X015778Y007451D03*
Y007254D03*
Y007057D03*
X015522Y008534D03*
Y008337D03*
Y008140D03*
X015817Y008534D03*
Y008337D03*
Y008140D03*
G54D15*
X015101Y006614D03*
X015456D03*
X014653Y005227D03*
X015007D03*
X014481Y006614D03*
X014835D03*
X015849Y005354D03*
X015495D03*
Y005669D03*
X015849D03*
Y006260D03*
X015495D03*
X015942Y007786D03*
X015588D03*
X014835Y007038D03*
X015190D03*
X014816Y008406D03*
X015170D03*
G54D16*
X014665Y006162D03*
Y006004D03*
X014980Y005689D03*
X014823D03*
X014665D03*
Y005847D03*
X015138Y006162D03*
Y005847D03*
Y005689D03*
Y006004D03*
X014980Y006162D03*
X014823D03*
G54D17*
X014498Y007178D03*
Y007532D03*
Y008249D03*
Y007895D03*
G54D18*
X016455Y005528D03*
X016612D03*
X016927D03*
X016770D03*
X017400D03*
X017557D03*
X017242D03*
X017085D03*
X018029D03*
X018187D03*
X017872D03*
X017715D03*
X018502D03*
X018344D03*
Y005004D03*
X018502D03*
X017715D03*
X017872D03*
X018187D03*
X018029D03*
X017085D03*
X017242D03*
X017557D03*
X017400D03*
X016770D03*
X016927D03*
X016612D03*
X016455D03*
X016297D03*
Y005528D03*
G54D19*
Y006693D03*
Y006378D03*
G54D20*
X016455Y006536D03*
X016770Y006535D03*
X017085D03*
X017400D03*
X017715D03*
X017557D03*
X017242D03*
X016927D03*
X016612D03*
G54D10*
X018366Y011211D03*
G54D11*
Y010502D03*
G54D12*
X017461Y012772D03*
Y011972D03*
X018160Y012772D03*
Y011972D03*
X016762Y012772D03*
Y011972D03*
G54D13*
X015153Y011880D03*
X014877D03*
Y012323D03*
X015153D03*
G54D14*
X015482Y011841D03*
Y011644D03*
Y011447D03*
X015778Y011841D03*
Y011644D03*
Y011447D03*
X015522Y012923D03*
Y012727D03*
Y012530D03*
X015817Y012923D03*
Y012727D03*
Y012530D03*
G54D15*
X015101Y011004D03*
X015456D03*
X014653Y009616D03*
X015007D03*
X014481Y011004D03*
X014835D03*
X015849Y009744D03*
X015495D03*
Y010059D03*
X015849D03*
Y010650D03*
X015495D03*
X015942Y012175D03*
X015588D03*
X014835Y011427D03*
X015190D03*
X014816Y012795D03*
X015170D03*
G54D16*
X014665Y010551D03*
Y010394D03*
X014980Y010079D03*
X014823D03*
X014665D03*
Y010236D03*
X015138Y010551D03*
Y010236D03*
Y010079D03*
Y010394D03*
X014980Y010551D03*
X014823D03*
G54D17*
X014498Y011568D03*
Y011922D03*
Y012639D03*
Y012285D03*
G54D18*
X016455Y009917D03*
X016612D03*
X016927D03*
X016770D03*
X017400D03*
X017557D03*
X017242D03*
X017085D03*
X018029D03*
X018187D03*
X017872D03*
X017715D03*
X018502D03*
X018344D03*
Y009394D03*
X018502D03*
X017715D03*
X017872D03*
X018187D03*
X018029D03*
X017085D03*
X017242D03*
X017557D03*
X017400D03*
X016770D03*
X016927D03*
X016612D03*
X016455D03*
X016297D03*
Y009917D03*
G54D19*
Y011083D03*
Y010767D03*
G54D20*
X016455Y010925D03*
X016770Y010925D03*
X017085D03*
X017400D03*
X017715D03*
X017557D03*
X017242D03*
X016927D03*
X016612D03*
G54D10*
X018366Y015601D03*
G54D11*
Y014892D03*
G54D12*
X017461Y017161D03*
Y016361D03*
X018160Y017161D03*
Y016361D03*
X016762Y017161D03*
Y016361D03*
G54D13*
X015153Y016270D03*
X014877D03*
Y016713D03*
X015153D03*
G54D14*
X015482Y016231D03*
Y016034D03*
Y015837D03*
X015778Y016231D03*
Y016034D03*
Y015837D03*
X015522Y017313D03*
Y017116D03*
Y016919D03*
X015817Y017313D03*
Y017116D03*
Y016919D03*
G54D15*
X015101Y015394D03*
X015456D03*
X014653Y014006D03*
X015007D03*
X014481Y015394D03*
X014835D03*
X015849Y014134D03*
X015495D03*
Y014449D03*
X015849D03*
Y015040D03*
X015495D03*
X015942Y016565D03*
X015588D03*
X014835Y015817D03*
X015190D03*
X014816Y017185D03*
X015170D03*
G54D16*
X014665Y014941D03*
Y014784D03*
X014980Y014469D03*
X014823D03*
X014665D03*
Y014626D03*
X015138Y014941D03*
Y014626D03*
Y014469D03*
Y014784D03*
X014980Y014941D03*
X014823D03*
G54D17*
X014498Y015958D03*
Y016312D03*
Y017029D03*
Y016674D03*
G54D18*
X016455Y014307D03*
X016612D03*
X016927D03*
X016770D03*
X017400D03*
X017557D03*
X017242D03*
X017085D03*
X018029D03*
X018187D03*
X017872D03*
X017715D03*
X018502D03*
X018344D03*
Y013784D03*
X018502D03*
X017715D03*
X017872D03*
X018187D03*
X018029D03*
X017085D03*
X017242D03*
X017557D03*
X017400D03*
X016770D03*
X016927D03*
X016612D03*
X016455D03*
X016297D03*
Y014307D03*
G54D19*
Y015473D03*
Y015157D03*
G54D20*
X016455Y015315D03*
X016770Y015315D03*
X017085D03*
X017400D03*
X017715D03*
X017557D03*
X017242D03*
X016927D03*
X016612D03*
G54D10*
X018366Y019990D03*
G54D11*
Y019282D03*
G54D12*
X017461Y021551D03*
Y020751D03*
X018160Y021551D03*
Y020751D03*
X016762Y021551D03*
Y020751D03*
G54D13*
X015153Y020660D03*
X014877D03*
Y021103D03*
X015153D03*
G54D14*
X015482Y020620D03*
Y020423D03*
Y020227D03*
X015778Y020620D03*
Y020423D03*
Y020227D03*
X015522Y021703D03*
Y021506D03*
Y021309D03*
X015817Y021703D03*
Y021506D03*
Y021309D03*
G54D15*
X015101Y019784D03*
X015456D03*
X014653Y018396D03*
X015007D03*
X014481Y019784D03*
X014835D03*
X015849Y018524D03*
X015495D03*
Y018839D03*
X015849D03*
Y019429D03*
X015495D03*
X015942Y020955D03*
X015588D03*
X014835Y020207D03*
X015190D03*
X014816Y021575D03*
X015170D03*
G54D16*
X014665Y019331D03*
Y019173D03*
X014980Y018858D03*
X014823D03*
X014665D03*
Y019016D03*
X015138Y019331D03*
Y019016D03*
Y018858D03*
Y019173D03*
X014980Y019331D03*
X014823D03*
G54D17*
X014498Y020348D03*
Y020702D03*
Y021419D03*
Y021064D03*
G54D18*
X016455Y018697D03*
X016612D03*
X016927D03*
X016770D03*
X017400D03*
X017557D03*
X017242D03*
X017085D03*
X018029D03*
X018187D03*
X017872D03*
X017715D03*
X018502D03*
X018344D03*
Y018173D03*
X018502D03*
X017715D03*
X017872D03*
X018187D03*
X018029D03*
X017085D03*
X017242D03*
X017557D03*
X017400D03*
X016770D03*
X016927D03*
X016612D03*
X016455D03*
X016297D03*
Y018697D03*
G54D19*
Y019863D03*
Y019547D03*
G54D20*
X016455Y019705D03*
X016770Y019705D03*
X017085D03*
X017400D03*
X017715D03*
X017557D03*
X017242D03*
X016927D03*
X016612D03*
G54D10*
X023090Y002431D03*
G54D11*
Y001722D03*
G54D12*
X022185Y003992D03*
Y003192D03*
X022884Y003992D03*
Y003192D03*
X021487Y003992D03*
Y003192D03*
G54D13*
X019877Y003100D03*
X019601D03*
Y003543D03*
X019877D03*
G54D14*
X020207Y003061D03*
Y002864D03*
Y002667D03*
X020502Y003061D03*
Y002864D03*
Y002667D03*
X020246Y004144D03*
Y003947D03*
Y003750D03*
X020541Y004144D03*
Y003947D03*
Y003750D03*
G54D15*
X019826Y002224D03*
X020180D03*
X019377Y000837D03*
X019731D03*
X019206Y002224D03*
X019560D03*
X020574Y000965D03*
X020219D03*
Y001280D03*
X020574D03*
Y001870D03*
X020219D03*
X020666Y003396D03*
X020312D03*
X019560Y002648D03*
X019914D03*
X019540Y004016D03*
X019895D03*
G54D16*
X019390Y001772D03*
Y001614D03*
X019705Y001299D03*
X019547D03*
X019390D03*
Y001457D03*
X019862Y001772D03*
Y001457D03*
Y001299D03*
Y001614D03*
X019705Y001772D03*
X019547D03*
G54D17*
X019222Y002788D03*
Y003143D03*
Y003859D03*
Y003505D03*
G54D18*
X021179Y001138D03*
X021337D03*
X021652D03*
X021494D03*
X022124D03*
X022281D03*
X021966D03*
X021809D03*
X022754D03*
X022911D03*
X022596D03*
X022439D03*
X023226D03*
X023069D03*
Y000614D03*
X023226D03*
X022439D03*
X022596D03*
X022911D03*
X022754D03*
X021809D03*
X021966D03*
X022281D03*
X022124D03*
X021494D03*
X021652D03*
X021337D03*
X021179D03*
X021022D03*
Y001138D03*
G54D19*
Y002304D03*
Y001988D03*
G54D20*
X021179Y002146D03*
X021494Y002145D03*
X021809D03*
X022124D03*
X022439D03*
X022281D03*
X021966D03*
X021652D03*
X021337D03*
G54D10*
X023090Y006821D03*
G54D11*
Y006112D03*
G54D12*
X022185Y008382D03*
Y007582D03*
X022884Y008382D03*
Y007582D03*
X021487Y008382D03*
Y007582D03*
G54D13*
X019877Y007490D03*
X019601D03*
Y007933D03*
X019877D03*
G54D14*
X020207Y007451D03*
Y007254D03*
Y007057D03*
X020502Y007451D03*
Y007254D03*
Y007057D03*
X020246Y008534D03*
Y008337D03*
Y008140D03*
X020541Y008534D03*
Y008337D03*
Y008140D03*
G54D15*
X019826Y006614D03*
X020180D03*
X019377Y005227D03*
X019731D03*
X019206Y006614D03*
X019560D03*
X020574Y005354D03*
X020219D03*
Y005669D03*
X020574D03*
Y006260D03*
X020219D03*
X020666Y007786D03*
X020312D03*
X019560Y007038D03*
X019914D03*
X019540Y008406D03*
X019895D03*
G54D16*
X019390Y006162D03*
Y006004D03*
X019705Y005689D03*
X019547D03*
X019390D03*
Y005847D03*
X019862Y006162D03*
Y005847D03*
Y005689D03*
Y006004D03*
X019705Y006162D03*
X019547D03*
G54D17*
X019222Y007178D03*
Y007532D03*
Y008249D03*
Y007895D03*
G54D18*
X021179Y005528D03*
X021337D03*
X021652D03*
X021494D03*
X022124D03*
X022281D03*
X021966D03*
X021809D03*
X022754D03*
X022911D03*
X022596D03*
X022439D03*
X023226D03*
X023069D03*
Y005004D03*
X023226D03*
X022439D03*
X022596D03*
X022911D03*
X022754D03*
X021809D03*
X021966D03*
X022281D03*
X022124D03*
X021494D03*
X021652D03*
X021337D03*
X021179D03*
X021022D03*
Y005528D03*
G54D19*
Y006693D03*
Y006378D03*
G54D20*
X021179Y006536D03*
X021494Y006535D03*
X021809D03*
X022124D03*
X022439D03*
X022281D03*
X021966D03*
X021652D03*
X021337D03*
G54D10*
X023090Y011211D03*
G54D11*
Y010502D03*
G54D12*
X022185Y012772D03*
Y011972D03*
X022884Y012772D03*
Y011972D03*
X021487Y012772D03*
Y011972D03*
G54D13*
X019877Y011880D03*
X019601D03*
Y012323D03*
X019877D03*
G54D14*
X020207Y011841D03*
Y011644D03*
Y011447D03*
X020502Y011841D03*
Y011644D03*
Y011447D03*
X020246Y012923D03*
Y012727D03*
Y012530D03*
X020541Y012923D03*
Y012727D03*
Y012530D03*
G54D15*
X019826Y011004D03*
X020180D03*
X019377Y009616D03*
X019731D03*
X019206Y011004D03*
X019560D03*
X020574Y009744D03*
X020219D03*
Y010059D03*
X020574D03*
Y010650D03*
X020219D03*
X020666Y012175D03*
X020312D03*
X019560Y011427D03*
X019914D03*
X019540Y012795D03*
X019895D03*
G54D16*
X019390Y010551D03*
Y010394D03*
X019705Y010079D03*
X019547D03*
X019390D03*
Y010236D03*
X019862Y010551D03*
Y010236D03*
Y010079D03*
Y010394D03*
X019705Y010551D03*
X019547D03*
G54D17*
X019222Y011568D03*
Y011922D03*
Y012639D03*
Y012285D03*
G54D18*
X021179Y009917D03*
X021337D03*
X021652D03*
X021494D03*
X022124D03*
X022281D03*
X021966D03*
X021809D03*
X022754D03*
X022911D03*
X022596D03*
X022439D03*
X023226D03*
X023069D03*
Y009394D03*
X023226D03*
X022439D03*
X022596D03*
X022911D03*
X022754D03*
X021809D03*
X021966D03*
X022281D03*
X022124D03*
X021494D03*
X021652D03*
X021337D03*
X021179D03*
X021022D03*
Y009917D03*
G54D19*
Y011083D03*
Y010767D03*
G54D20*
X021179Y010925D03*
X021494Y010925D03*
X021809D03*
X022124D03*
X022439D03*
X022281D03*
X021966D03*
X021652D03*
X021337D03*
G54D10*
X023090Y015601D03*
G54D11*
Y014892D03*
G54D12*
X022185Y017161D03*
Y016361D03*
X022884Y017161D03*
Y016361D03*
X021487Y017161D03*
Y016361D03*
G54D13*
X019877Y016270D03*
X019601D03*
Y016713D03*
X019877D03*
G54D14*
X020207Y016231D03*
Y016034D03*
Y015837D03*
X020502Y016231D03*
Y016034D03*
Y015837D03*
X020246Y017313D03*
Y017116D03*
Y016919D03*
X020541Y017313D03*
Y017116D03*
Y016919D03*
G54D15*
X019826Y015394D03*
X020180D03*
X019377Y014006D03*
X019731D03*
X019206Y015394D03*
X019560D03*
X020574Y014134D03*
X020219D03*
Y014449D03*
X020574D03*
Y015040D03*
X020219D03*
X020666Y016565D03*
X020312D03*
X019560Y015817D03*
X019914D03*
X019540Y017185D03*
X019895D03*
G54D16*
X019390Y014941D03*
Y014784D03*
X019705Y014469D03*
X019547D03*
X019390D03*
Y014626D03*
X019862Y014941D03*
Y014626D03*
Y014469D03*
Y014784D03*
X019705Y014941D03*
X019547D03*
G54D17*
X019222Y015958D03*
Y016312D03*
Y017029D03*
Y016674D03*
G54D18*
X021179Y014307D03*
X021337D03*
X021652D03*
X021494D03*
X022124D03*
X022281D03*
X021966D03*
X021809D03*
X022754D03*
X022911D03*
X022596D03*
X022439D03*
X023226D03*
X023069D03*
Y013784D03*
X023226D03*
X022439D03*
X022596D03*
X022911D03*
X022754D03*
X021809D03*
X021966D03*
X022281D03*
X022124D03*
X021494D03*
X021652D03*
X021337D03*
X021179D03*
X021022D03*
Y014307D03*
G54D19*
Y015473D03*
Y015157D03*
G54D20*
X021179Y015315D03*
X021494Y015315D03*
X021809D03*
X022124D03*
X022439D03*
X022281D03*
X021966D03*
X021652D03*
X021337D03*
G54D10*
X023090Y019990D03*
G54D11*
Y019282D03*
G54D12*
X022185Y021551D03*
Y020751D03*
X022884Y021551D03*
Y020751D03*
X021487Y021551D03*
Y020751D03*
G54D13*
X019877Y020660D03*
X019601D03*
Y021103D03*
X019877D03*
G54D14*
X020207Y020620D03*
Y020423D03*
Y020227D03*
X020502Y020620D03*
Y020423D03*
Y020227D03*
X020246Y021703D03*
Y021506D03*
Y021309D03*
X020541Y021703D03*
Y021506D03*
Y021309D03*
G54D15*
X019826Y019784D03*
X020180D03*
X019377Y018396D03*
X019731D03*
X019206Y019784D03*
X019560D03*
X020574Y018524D03*
X020219D03*
Y018839D03*
X020574D03*
Y019429D03*
X020219D03*
X020666Y020955D03*
X020312D03*
X019560Y020207D03*
X019914D03*
X019540Y021575D03*
X019895D03*
G54D16*
X019390Y019331D03*
Y019173D03*
X019705Y018858D03*
X019547D03*
X019390D03*
Y019016D03*
X019862Y019331D03*
Y019016D03*
Y018858D03*
Y019173D03*
X019705Y019331D03*
X019547D03*
G54D17*
X019222Y020348D03*
Y020702D03*
Y021419D03*
Y021064D03*
G54D18*
X021179Y018697D03*
X021337D03*
X021652D03*
X021494D03*
X022124D03*
X022281D03*
X021966D03*
X021809D03*
X022754D03*
X022911D03*
X022596D03*
X022439D03*
X023226D03*
X023069D03*
Y018173D03*
X023226D03*
X022439D03*
X022596D03*
X022911D03*
X022754D03*
X021809D03*
X021966D03*
X022281D03*
X022124D03*
X021494D03*
X021652D03*
X021337D03*
X021179D03*
X021022D03*
Y018697D03*
G54D19*
Y019863D03*
Y019547D03*
G54D20*
X021179Y019705D03*
X021494Y019705D03*
X021809D03*
X022124D03*
X022439D03*
X022281D03*
X021966D03*
X021652D03*
X021337D03*
G54D21*
X-002500Y002500D03*
X026122D03*
X-002500Y019449D03*
M02*
